<?xml version="1.0" encoding="UTF-8"?>
<svg xmlns="http://www.w3.org/2000/svg" version="1.1" viewBox="0 0 169.5 98.8">
  <defs>
    <style>
      .cls-1 {
        fill: #00429d;
      }

      .cls-2 {
        font-family: DIN-Medium, 'DIN Medium';
        font-size: 15px;
        font-weight: 500;
        letter-spacing: 0em;
      }

      .cls-3, .cls-4 {
        fill-rule: evenodd;
      }

      .cls-3, .cls-4, .cls-5 {
        stroke-width: 0px;
      }

      .cls-3, .cls-5 {
        fill: #fefefe;
      }

      .cls-4 {
        fill: #aa8132;
      }

      .cls-6 {
        font-family: DIN-Light, DIN;
        font-size: 10.5px;
        font-weight: 300;
        letter-spacing: 0em;
      }
    </style>
  </defs>
  <g id="Ebene_4_Kopie" data-name="Ebene 4 Kopie">
    <g>
      <path class="cls-5" d="M98.4,49.6c0,16.1,0,32.2,0,48.3,0,1-.1,1.3-1.2,1.3-31.7,0-63.4,0-95.1,0-1,0-1.2-.3-1.2-1.2,0-32.3,0-64.6,0-96.9C.9,0,1.4,0,2.2,0c31.6,0,63.3,0,94.9,0,1.1,0,1.3.3,1.3,1.3,0,16.1,0,32.2,0,48.3Z"/>
      <path class="cls-4" d="M77.7,52.3h15.3c.4,1.7.1,3.4.2,5.1,0,3.9,0,7.8,0,11.7,0,.6-.2,1.2.2,1.7-2.2,5.3-5.7,9.6-9.9,13.5-8.3,7.7-18.1,12.6-29.4,14.1-.8.1-1.5,0-2.3.1-2.5-.1-5-.1-7.5,0-10.1-.5-19.1-3.9-27.1-9.9-6.5-4.8-11.4-11-15-18.3,1.6.2,3.3,1.4,4.7-.3.5-.5.2-1.1.2-1.7,0-4.8,0-9.5,0-14.3,0-.6-.1-1.2.2-1.7,4.7,0,9.3,0,14,0,1.6,0,2.2-.5,2.2-2.1-.1-4.8.5-4.2-4.3-4.2-4,0-7.9,0-11.9,0-.5-2.6.1-5.2-.3-7.7.3-2.3,1.2-3.2,3.6-3.2,3.8,0,7.6,0,11.4,0,1.6,0,2.3-.5,2.2-2.1-.2-4.2.8-3.6-3.9-4.2-4.5-.5-9-.8-13.4.3-1.8.4-3.5,1.1-5.4,2.1.9-2.6,2.1-4.6,3.4-6.6C13.6,10.8,25.9,3,41.7.8c.5,0,1.1,0,1.6,0,1.4.3,2.8,0,4.2,0,1.8,0,3.6.3,5.4,0,5.9.4,11.4,2.1,16.6,4.6,10.1,4.9,18.1,12,23.4,22,.2.4.3.8.5,1.1,0,4.9,0,9.7,0,14.6,0,1.9,0,1.9-2,1.9-4,0-8.1,0-12.1,0-1.5,0-1.8-.5-1.7-1.8,0-4,0-8.1,0-12.1,0-.5.3-1.1-.2-1.5-.3-.5-.5-1.1-1.2-1.1-1.9,0-3.8,0-5.7,0-1.1,0-1.2,1-1.2,1.8,0,3.3,0,6.5,0,9.8,0,9.4,0,18.8,0,28.2,0,2.3.1,2.4,2.4,2.4,1.2,0,2.5,0,3.7,0,1,0,1.6-.3,1.9-1.2.5-.5.2-1.1.2-1.6,0-4.6,0-9.3,0-13.9,0-.6-.2-1.2.2-1.7Z"/>
      <path class="cls-4" d="M77.3,29.7c.4-.9.4-.5.4.1,0,3.5,0,7.1,0,10.6,0,1.1,0,2.1,0,3.2,0,.9.4,1.2,1.3,1.2,4.3,0,8.5,0,12.8,0,1.2,0,1.3-.6,1.3-1.6,0-4.3,0-8.6,0-12.9,0-.6-.2-1.3.3-1.8.3.4.2.9.2,1.4,0,4.7,0,9.3,0,14,0,1,0,1.5-1.3,1.5-4.6,0-9.2,0-13.8,0-.9,0-1.3-.1-1.3-1.1,0-4.8,0-9.7,0-14.5Z"/>
      <path class="cls-4" d="M93.4,70.8c-.6-.5-.4-1.2-.4-1.8,0-5.5,0-11.1,0-16.6.4,0,.5.3.5.6,0,6,.2,11.9-.1,17.9Z"/>
      <path class="cls-4" d="M7.3,52.3c0,5.8,0,11.5,0,17.3,0,.2,0,.3-.1.5,0,0-.2,0-.3,0,0-5.6,0-11.2,0-16.7,0-.4-.2-.9.5-1Z"/>
      <path class="cls-4" d="M77.7,52.3c0,5.7,0,11.4,0,17.1,0,.1.2,1.2-.4.2,0-5.5,0-10.9,0-16.4,0-.4-.2-.9.5-1Z"/>
      <path class="cls-4" d="M52.8.8c-2.6.8-5.3.1-7.9.3-.6,0-1.2.2-1.6-.3,3.2-.4,6.4-.5,9.6,0Z"/>
      <path class="cls-4" d="M44.3,98.5c2.5-.6,5-.6,7.5,0-2.5.3-5,.3-7.5,0Z"/>
      <path class="cls-4" d="M7,38.1c.7,1.2.2,2.5.3,3.8,0,1.3,0,2.7,0,4-.4,0-.5-.3-.5-.6,0-2.4-.2-4.8.1-7.2Z"/>
      <path class="cls-3" d="M31.6,31.4c.3-1.6,1.2-2.6,2.9-2.8,5.7-.6,11.5-1,17.2.2,4.6,1,8.5,3,9.5,8.1,1,5.2.2,9.6-4.8,12.4,1.5.9,2.9,1.8,3.9,3.3,3.5,5.2,1.3,13.6-4.3,16.5-2.4,1.2-4.9,1.8-7.5,2-4.5.3-9,.2-13.5-.3-1.6-.2-3-.8-3.4-2.5-.4-.3-.2-.8-.2-1.2,0-11.5,0-23,0-34.5,0-.4-.1-.8.2-1.2Z"/>
      <path class="cls-4" d="M31.6,31.4c0,12.3,0,24.5,0,36.8-.1.2-.2.6-.4.3-.2-.2,0-.7,0-1,0-12.1,0-24.1,0-36.2v-.8s.4.1.3.3c0,.1,0,.4.1.7Z"/>
      <path class="cls-4" d="M46.7,71.8h-6.3c0,0,0-.1,0-.2h6.3c0,0,0,.1,0,.2Z"/>
      <path class="cls-4" d="M23.8,51.2v-4.2s0,0,.1,0v4.2s0,0-.1,0Z"/>
      <path class="cls-4" d="M24.5,33.8v-4.1s0,0,.1,0v4.1s0,0-.1,0Z"/>
      <path class="cls-4" d="M49.3,52.4c3.2.6,4.6,2.4,4.7,5.6.1,3.8-1,5.4-4.4,6.2-3,.7-6.1.4-9.2.4-.8,0-.8-.4-.8-1,0-3.7,0-7.3,0-11,2.6-.7,5.3-.3,8-.3.5,0,1,.2,1.6,0Z"/>
      <path class="cls-4" d="M47.9,34.9c5.8.3,6.6,3.8,5.6,7.9-.6,2.3-2.6,3.2-4.8,3.4-2.7.2-5.4,0-8.2.1-.9,0-.9-.5-.9-1.1,0-3.3,0-6.6,0-9.9,2.3-.7,4.6-.3,7-.3.4,0,.8.2,1.2,0Z"/>
      <path class="cls-4" d="M49.3,52.4c-2.1.6-4.2.2-6.2.3-1.1,0-2.2,0-3.3,0,0-.5.2-.6.6-.6,3,.1,6-.3,8.9.3Z"/>
      <path class="cls-4" d="M47.9,34.9c-2,.7-4,.2-6,.3-.7,0-1.4,0-2.1,0,0-.5.3-.6.7-.6,2.5,0,5-.3,7.5.2Z"/>
    </g>
  </g>
  <g id="Ebene_2" data-name="Ebene 2">
    <text class="cls-1" transform="translate(99.8 19.5)"><tspan class="cls-6"><tspan x="0" y="0">Leibniz</tspan></tspan><tspan class="cls-2"><tspan x="0" y="19.8">Ferdinand</tspan></tspan><tspan class="cls-2"><tspan x="0" y="35.1">Braun</tspan></tspan><tspan class="cls-2"><tspan x="0" y="50.5">Institut</tspan></tspan></text>
  </g>
</svg>