<?xml version="1.0" encoding="utf-8"?>
<!-- Generator: Adobe Illustrator 16.0.4, SVG Export Plug-In . SVG Version: 6.00 Build 0)  -->
<!DOCTYPE svg PUBLIC "-//W3C//DTD SVG 1.0//EN" "http://www.w3.org/TR/2001/REC-SVG-20010904/DTD/svg10.dtd">
<svg version="1.0" id="Ebene_1" xmlns="http://www.w3.org/2000/svg" xmlns:xlink="http://www.w3.org/1999/xlink" x="0px" y="0px"
	 width="400.033px" height="400.033px" viewBox="0 0 400.033 400.033" enable-background="new 0 0 400.033 400.033"
	 xml:space="preserve">
<circle fill-rule="evenodd" clip-rule="evenodd" fill="#4286F5" cx="200.017" cy="200.017" r="198.425"/>
<path fill-rule="evenodd" clip-rule="evenodd" fill="#FFFFFF" d="M315.556,70.024c-2.686-0.094-5.37-0.222-8.057-0.259
	c-7.821-0.106-15.644-0.212-23.466-0.251c-10.896-0.055-21.79-0.067-32.686-0.069c-26.206-0.005-52.412,0.012-78.618-0.007
	c-0.977,0-1.696,0.257-2.432,0.916c-4.539,4.067-9.1,8.11-13.699,12.108c-20.569,17.884-41.157,35.746-61.728,53.627
	c-2.861,2.487-5.736,4.96-8.427,7.635c-0.343,0.341-0.85,0.618-0.834,1.335c1.49,0.11,2.912,0.282,4.336,0.311
	c6.189,0.124,12.379,0.26,18.568,0.29c9.935,0.048,19.871,0.015,29.806,0.017c0.384,0,0.769,0.016,1.152,0.002
	c0.528-0.019,0.748,0.219,0.833,0.748c0.243,1.513,0.566,3.013,0.817,4.524c1.015,6.115,2.479,12.105,4.938,17.818
	c4.681,10.872,12.207,19.049,22.924,24.21c7.568,3.645,15.621,5.433,23.917,6.317c2.621,0.28,5.262,0.363,7.864,0.822
	c2.09,0.368,2.156,0.492,1.522,2.447c-1.179,3.638-1.949,7.38-1.42,11.184c0.938,6.735,3.249,12.994,7.206,18.587
	c0.244,0.345,0.569,0.65,0.652,1.226c-0.508,0.076-1.009,0.186-1.516,0.222c-1.674,0.12-3.35,0.229-5.026,0.313
	c-5.892,0.296-11.757,0.836-17.594,1.726c-7.79,1.187-15.421,2.97-22.79,5.797c-7.497,2.876-14.4,6.756-20.451,12.087
	c-6.835,6.021-11.635,13.455-15.202,21.758c-0.942,2.192-1.399,4.479-1.418,6.852c-0.021,2.783-0.041,5.568,0.024,8.351
	c0.052,2.215,0.45,4.377,1.327,6.438c1.17,2.75,2.621,5.335,4.418,7.72c4.762,6.32,10.84,11.106,17.687,14.939
	c12.603,7.055,26.133,10.898,40.582,11.358c8.255,0.264,16.499,0.043,24.703-1.04c7.869-1.039,15.521-2.938,22.936-5.776
	c7.676-2.939,14.787-6.855,20.972-12.329c9.487-8.396,14.945-18.855,15.856-31.536c0.569-7.918-0.344-15.695-2.794-23.274
	c-2.264-7.001-5.997-13.039-11.539-17.926c-2.342-2.065-4.77-4.021-7.29-5.86c-4.417-3.226-8.858-6.421-13.005-9.998
	c-2.949-2.544-5.772-5.209-7.92-8.504c-3.539-5.433-4.339-13.104,0.243-19.461c1.84-2.552,4.029-4.757,6.396-6.797
	c3.018-2.599,6.121-5.095,9.146-7.688c7.022-6.02,12.004-13.362,14.89-22.162c1.414-4.312,1.956-8.689,1.455-13.185
	c-0.448-4.012-1.478-7.903-2.614-11.767c-1.162-3.951-2.311-7.904-3.385-11.881c-0.618-2.287-0.018-4.001,1.566-5.596
	c1.627-1.638,3.323-3.191,5.147-4.602c5.844-4.522,11.778-8.927,17.55-13.543c3.336-2.667,6.728-5.261,10.301-7.607
	c1.002-0.659,2.016-1.307,3.126-1.768c1.054-0.438,1.531-0.192,1.744,0.931c0.205,1.09,0.142,2.202-0.001,3.298
	c-0.405,3.105-1.191,6.122-2.427,8.992c-1.464,3.401-2.134,6.958-2.317,10.616c-0.23,4.599-0.41,9.202-0.551,13.805
	c-0.216,7.146-0.397,14.292-0.562,21.439c-0.131,5.709-0.251,11.419-0.309,17.129c-0.053,5.279-0.062,10.56-0.007,15.838
	c0.044,4.173,0.169,8.347,0.564,12.505c0.154,1.624,0.438,3.227,1.113,4.736c0.939,2.102,2.474,3.5,4.729,4.065
	c2.45,0.613,4.926,0.619,7.428,0.412c2.026-0.168,3.35-1.239,4.3-2.939c0.804-1.438,1.324-2.975,1.677-4.571
	c1.38-6.231,1.562-12.561,1.312-18.894c-0.309-7.859-0.904-15.707-1.223-23.566c-0.314-7.766-0.473-15.538-0.636-23.309
	c-0.139-6.574-0.023-13.15-0.206-19.725c-0.05-1.811-0.374-3.489-1.014-5.166c-1.329-3.49-2.734-6.958-3.601-10.606
	c-0.787-3.314-1.09-6.626,0.188-9.901c1.036-2.654,2.818-4.777,4.858-6.702c1.989-1.877,4.105-3.619,5.972-5.625
	c0.37-0.398,0.854-0.743,0.902-1.312C316.135,69.964,315.831,70.034,315.556,70.024z M242.36,255.345
	c2.127,1.73,4.056,3.667,5.817,5.771c2.576,3.074,4.063,6.698,5.285,10.457c1.282,3.948,2.039,7.984,1.973,12.147
	c-0.127,7.911-2.894,14.795-8.192,20.647c-5.115,5.649-11.546,9.258-18.604,11.896c-5.032,1.881-10.242,2.778-15.575,3.176
	c-3.876,0.289-7.748,0.584-12.141,0.587c-6.545,0.454-13.164-1.545-19.745-3.644c-6.019-1.919-11.677-4.606-16.737-8.448
	c-6.653-5.051-11.347-11.493-13.049-19.728c-2.366-11.449-0.021-21.841,8.034-30.585c3.584-3.891,8.056-6.637,12.804-8.913
	c6.178-2.962,12.682-4.864,19.438-5.971c4.082-0.669,8.191-1.018,12.315-1.015C218.371,241.733,231.186,246.251,242.36,255.345z
	 M232.112,178.96c-1.876,3.212-4.142,6.126-6.998,8.522c-6.997,5.873-14.854,7.135-23.424,4.159
	c-7.808-2.713-14.165-7.52-19.593-13.672c-7.479-8.477-12.59-18.166-14.947-29.237c-1.878-8.822-1.851-17.613,1.063-26.247
	c2.04-6.044,5.356-11.238,10.602-15.034c3.606-2.609,7.65-4.127,12.066-4.656c9.828-1.177,18.326,1.768,25.75,8.2
	c10.261,8.892,16.978,19.905,19.982,33.151c0.894,3.935,1.388,7.928,1.342,10.385C237.932,164.229,236.234,171.906,232.112,178.96z"
	/>
</svg>
