<?xml version="1.0" encoding="utf-8"?>
<!-- Generator: Adobe Illustrator 16.0.4, SVG Export Plug-In . SVG Version: 6.00 Build 0)  -->
<!DOCTYPE svg PUBLIC "-//W3C//DTD SVG 1.0//EN" "http://www.w3.org/TR/2001/REC-SVG-20010904/DTD/svg10.dtd">
<svg version="1.0" id="svg21644" xmlns:svg="http://www.w3.org/2000/svg"
	 xmlns="http://www.w3.org/2000/svg" xmlns:xlink="http://www.w3.org/1999/xlink" x="0px" y="0px" width="708.662px"
	 height="698.252px" viewBox="0 0 708.662 698.252" enable-background="new 0 0 708.662 698.252" xml:space="preserve">
<g id="layer1" transform="translate(-326.97721,407.72131)">
	<g id="q6" transform="matrix(8.0844227,0,0,-8.0844227,-5594.4582,4128.6908)">
		<g>
			<g id="g9247">
				<path id="path9249" fill="#005091" d="M769.06,528.99l-0.07-0.08l0.13-0.04l0.73-0.18l0.73-0.54l0.38-0.46l0.38-0.26
					c0,0,0.24,0.18,0.06,0.38l-0.23,0.27l-0.44,0.53l-0.28,0.16l-0.35,0.13l-0.39,0.08l-0.39,0.03L769.06,528.99z M769.4,526.05
					c0,0-0.04-0.02-0.09-0.01c0,0-0.06,0.03-0.04,0.08l0.05,0.1l0.13,0.08l0.13,0.06l0.15,0.05l0.13,0.07l0.27,0.1l0.22,0.08
					l0.15,0.07l0.17,0.04l0.18,0.05l0.05,0.05l0.01,0.09l-0.01,0.06l-0.07,0.06l-0.08,0.02c0,0-0.1,0.01-0.15,0
					c-0.06-0.01-0.13-0.06-0.16-0.06s-0.21-0.11-0.21-0.11l-0.25-0.13l-0.19-0.07l-0.18-0.07l-0.22-0.04c0,0-0.14,0-0.18-0.01
					c-0.03-0.01-0.22,0.02-0.21,0.02c0,0-0.12,0-0.18,0.05c-0.02,0.02,0.02,0.12,0.01,0.1c0,0,0.09,0.04,0.13,0.04
					c0,0,0.09,0,0.11,0l0.09,0.01h0.16h0.17l0.2,0.04c0,0,0.05,0.03,0.07,0.11l0.03,0.15l-0.04,0.19l-0.06,0.09l-0.12,0.08
					l-0.18,0.12c0,0-0.1,0.05-0.12,0.05c-0.02,0-0.17,0.06-0.17,0.06l-0.15-0.01c0,0-0.4-0.02-0.48-0.15l-0.1-0.02l0.03,0.35
					l0.08,0.25l0.21,0.01l0.31-0.06l0.15-0.06l0.15-0.08l0.22-0.07l0.14-0.08l0.15-0.06l0.22,0.01l0.11,0.04l0.02,0.09l-0.05,0.12
					l-0.11,0.13l-0.22,0.17l-0.24,0.14l-0.1,0.08l-0.12,0.07l-0.13,0.03l-0.18,0.03h-0.21c0,0-0.18-0.01-0.19,0
					c0,0-0.1,0.06-0.09,0.09l-0.02,0.18v0.12l0.13,0.1l0.15,0.07l0.27,0.04h0.31h0.42l0.19-0.02l0.27-0.04l0.19-0.08l0.32-0.15
					l0.16-0.12l0.29-0.34l0.25-0.28l0.23-0.32l0.28-0.32l0.27-0.36c0,0,0.07-0.08,0.11-0.14c0.02-0.03,0.04-0.15,0.04-0.18
					l-0.03-0.19c0,0-0.08-0.11-0.22-0.13h-0.25h-0.37h-0.34c-0.03,0-0.25-0.02-0.3-0.04l-0.2-0.04l-0.21-0.09l-0.17-0.07l-0.28-0.1
					l-0.3-0.1L769.4,526.05z"/>
				<path id="path9251" fill="#005091" d="M791.67,499.88c0.16,0.21,0.19,0.78,2.14,0.92c0.45,0,0.67-0.57,0.35-0.58
					c-0.14,0-0.27,0.01-0.27,0.01c-0.41-0.01-0.31-0.24-0.31-0.24s0.14-0.36,0.78-0.31c0.05,0.01,0.3,0.01,0.36,0.03
					c0.89,0.23,0.22,0.89,0.22,0.89c-0.19,0.22-0.72,0.36-0.72,0.36l-0.22,0.05l-0.37,0.04l-0.66-0.09c-1.07-0.22-1.5-0.14-1.5-0.14
					L791.67,499.88z"/>
				<path id="path9253" fill="#005091" d="M790.37,502.71l0.47-0.22c0,0,0.92-0.69,1.98-0.53c0.06,0.01,1.93,0.18,2.69-0.64
					c0,0.17,0.02,0.51-0.02,0.59c-0.27,0.57-1.51,0.56-1.51,0.56c-1.38-0.34-2.37,0.13-2.37,0.13s-0.78,0.59-0.83,0.61
					c-0.06,0.03-0.61,0.21-0.61,0.21L790.37,502.71z"/>
				<path id="path9255" fill="#005091" d="M796.28,501.84l-0.68,1.06c-0.34,0.39-1.25,0.42-1.25,0.42l-0.56,0.03
					c0,0-0.86-0.08-0.94-0.08c-0.91-0.07-1.94,0.33-1.94,0.33l-0.33,0.11c0,0-0.11,0.43-0.11,0.49c0,0.05,0.03,0.44,0.03,0.44
					c0.17-0.62,0.78-0.58,0.78-0.58c0.19-0.06,0.27,0.02,0.27,0.02l0.99-0.05l1.42,0.05c0,0,0.59-0.05,0.65-0.05
					c1.12-0.05,1.47-1.24,1.47-1.24L796.28,501.84z"/>
				<path id="path9257" fill="#005091" d="M796.3,505.37l-0.42,0.56l-0.36,0.3l-0.39,0.28l-0.39,0.22l-0.36,0.23l-0.48,0.25
					l-0.66,0.36l-0.59,0.33l-0.5,0.39l-0.4,0.25l-0.22,0.25l-0.03,0.51l0.05,0.62l0.17,0.47l0.11,0.42l0.09,0.45l0.06,0.41
					l-0.02,0.31l-0.04,0.39l-0.09,0.42l0.33,0.22l0.21-0.36l0.09-0.31l0.03-0.36l-0.03-0.36l-0.03-0.47l-0.08-0.39l-0.14-0.45
					l-0.14-0.33l-0.11-0.38l-0.07-0.42l0.07-0.36l0.36-0.28l0.47-0.14l0.7-0.3l0.61-0.2l0.5-0.19l0.45-0.28l0.39-0.28l0.39-0.28
					l0.44-0.39l0.42-0.47l-0.08-0.25L796.3,505.37z"/>
				<path id="path9259" fill="#005091" d="M797.01,507.03c-0.32,0.61-1.34,0.67-1.34,0.67c-0.1,0.03-0.16,0.14-0.16,0.14
					s0.02,0.07,0.11,0.08c0.43,0.06,1.33-0.34,1.33-0.34l0.09-0.21L797.01,507.03z"/>
				<path id="path9261" fill="none" stroke="#005091" stroke-width="0.102" stroke-miterlimit="3.864" d="M797.01,507.03
					c-0.32,0.61-1.34,0.67-1.34,0.67c-0.1,0.03-0.16,0.14-0.16,0.14s0.02,0.07,0.11,0.08c0.43,0.06,1.33-0.34,1.33-0.34l0.09-0.21
					L797.01,507.03z"/>
				<path id="path9263" fill="#005091" d="M792.6,512.37c0,0,0.57-0.53,0.66-0.92c-0.03-0.11-0.61-1.56-0.61-1.56
					c-0.22-0.85-0.03-1.24,0.58-1.12l3.32-0.2l-0.31,0.92c-0.03-0.02-0.19-0.19-0.44-0.17c-3.32-0.66-2.51,0.71-2.51,0.71
					c0.03-0.23,0.48,1.25,0.48,1.25c0.14,0.38-0.28,0.9-0.28,0.9c-0.03,0.11-0.88,1.06-0.88,1.06l-0.4-0.23
					C792.21,513.01,792.52,512.52,792.6,512.37"/>
				<path id="path9265" fill="#005091" d="M794.17,509.79c0.32,0.43,0.53,0.74,0.64,0.92c0.42,0.94-0.7,1.39-0.7,1.39
					c-0.15,0.1-0.67,0.09-0.67,0.09l-0.58,0.33c0.06-0.08-0.28,0.28-0.28,0.28s1.43-0.12,1.81-0.26c1.12-0.78,1.3-1.49,0.5-2.28
					l-0.28-0.54l-0.22-0.69l-0.48,0.02L794.17,509.79z"/>
				<path id="path9267" fill="#005091" d="M794.57,504.12v0.22l0.14,0.7l0.09,0.5l0.02,0.19v0.14l0.14-0.11l0.09-0.22l0.05-0.22
					v-0.17l-0.02-0.17l-0.12-0.3c0,0-0.14-0.16-0.05-0.62c0.01-0.05,0.08-0.2,0.08-0.2l-0.19-0.03c0,0-0.11,0.05-0.14,0.11
					C794.63,503.99,794.57,504.06,794.57,504.12"/>
				<path id="path9269" fill="#005091" d="M793.9,503.8l-0.13,0.11l-0.14,0.21l-0.06,0.14v0.14l0.06,0.16l0.05,0.28l0.09,0.34
					l0.02,0.39l-0.05,0.27l-0.2,0.34l-0.22,0.19l-0.28,0.25l-0.41,0.23l-0.48,0.22l-0.26,0.14l-0.42,0.22l-0.53,0.39l-0.28,0.28
					l-0.19,0.3l-0.11,0.39l-0.03,0.42l0.08,0.34l0.14,0.34l0.14,0.31l0.11,0.25l0.03,0.56l0.03,0.19l-0.08,0.39l-0.06,0.25
					l-0.06,0.17c0,0-0.13,0.46-0.05,0.54c0.08,0.08,0.51,0.17,0.46,0.17c-0.3,0.04,0.57-0.09,0.4-0.21
					c0.05-0.09,0.03-0.36,0.03-0.36v-0.34l-0.08-0.36l-0.09-0.3l-0.08-0.37l-0.09-0.27l-0.11-0.31l-0.08-0.28l-0.06-0.23l-0.11-0.42
					l-0.02-0.39l0.11-0.42l0.19-0.33l0.25-0.25l0.31-0.14l0.46-0.25l0.47-0.2c0,0,0.25-0.11,0.33-0.17
					c0.09-0.05,0.56-0.25,0.56-0.25l0.22-0.19l0.25-0.31l0.2-0.25l0.05-0.33l-0.02-0.59l-0.12-0.52v-0.23v-0.25l0.06-0.29
					l-0.06-0.17L793.9,503.8z"/>
				<path id="path9271" fill="#005091" d="M788.46,511.84v-0.28l-0.05-0.69l-0.53-1.63c-0.11-0.58-0.05-1.04,0.17-1.36l0.47-0.84
					l0.17-0.31c0,0,0.39-1.22-0.14-1.53c-0.81-0.91-1.06,0.14-1.06,0.14l-0.39,0.75l-0.25,0.84c-0.05,0.21-0.5,0.81-0.5,0.81
					l-0.23,0.27l-0.23,0.2l-0.3,0.36l-0.26,0.2l-0.16,0.11c0,0-0.17,0.08-0.23,0.08c-0.05,0-0.22-0.05-0.22-0.05
					s-0.14-0.14-0.11-0.2c0.03-0.05,0.11-0.25,0.11-0.25l0.2-0.11l0.39-0.2l0.3-0.25l0.37-0.44l0.26-0.39l0.3-0.78l0.17-0.59
					l0.25-0.52l0.37-0.61c0.39-0.48,1.16-0.18,1.21-0.18c0.06,0,0.31,0.2,0.31,0.2s0.26-0.07,0.31,0.04
					c0.06,0.11,0.11,0.74,0.11,0.74l0.03,0.47l-0.03,0.34c0.02,0.19-0.19,0.75-0.19,0.75l-0.64,1.08c-0.32,0.72,0,1.51,0,1.51
					l0.41,1.07l0.14,0.42l0.17,0.72v0.19c-0.15,0.39-0.56,0.2-0.61,0.17C788.49,512.06,788.46,511.84,788.46,511.84"/>
				<path id="path9273" fill="#005091" d="M789.19,504.74l-0.08-0.28l-0.12-0.22l-0.14-0.17l-0.16-0.18l-0.31-0.25
					c-0.81-0.41-1.36-0.11-1.36-0.11c0.03-0.03-0.45,0.34-0.45,0.34l-1.07,1.57l-0.41,0.64l-0.67,0.75
					c-0.96,0.72-1.42-0.17-1.42-0.17l-0.14-0.22l0.53,1.23c0.71-0.1,1.55-0.67,1.55-0.67l1.69-2.57l0.44-0.54
					c0.66-0.19,0.95,0.16,0.95,0.16s0.12,0.1,0.22,0.22c0.1,0.11,0.39,0.16,0.39,0.16s0.17,0.14,0.22,0.17
					C788.91,504.63,789.19,504.74,789.19,504.74"/>
				<path id="path9275" fill="#005091" d="M786.97,512.42l0.01-0.4c0.17-0.21,0.12-0.35,0.12-0.35c0.03,0-0.17-0.19-0.17-0.19
					l-0.28-0.31l-0.25-0.44l-0.16-0.42l-0.06-0.39c-0.02-0.6,0.36-1.4,0.36-1.4l0.5-0.77c0.36-0.69,0.22-1.32,0.22-1.32l-0.1-0.5
					l0.27-0.56l0.1-0.18c0,0,0.07,0.29,0.1,0.35c0.03,0.05,0.08,1.15,0.08,1.15c0.04,0.39-0.14,0.94-0.14,0.94
					c-0.75,1.1-0.89,1.61-0.89,1.61c-0.17,0.6-0.1,0.93,0.09,1.15l0.39,0.53l0.22,0.28l0.25,0.22c0,0,0.08,0.09,0.17,0.2
					c0.08,0.11,0.16,0.22,0.16,0.22l0.06,0.17c0,0-0.03,0.22-0.17,0.28c-0.14,0.05-0.28,0.16-0.28,0.16l-0.32,0.15L786.97,512.42z"
					/>
				<path id="path9277" fill="#005091" d="M786.69,502.41c0.02,0-0.18,0.04-0.18,0.04l-0.35-0.01c-0.38,0.16-0.67,0.02-0.67,0.02
					l-0.7-0.54l-0.41-0.34l-0.27-0.29c-0.22-0.24-0.39-0.12-0.39-0.12l-0.49,0.35l0.16,0.06l0.32,0.02l0.72,0.49l0.7,0.67l0.15,0.13
					c0.02,0.77-0.54,0.57-0.54,0.57l-0.13-0.12l-0.14-0.22c0,0-0.14-0.09-0.22-0.03c-0.1,0.07-0.12,0.21-0.12,0.21
					s0.11,0.3,0.38,0.47c0.32,0.12,0.57,0.11,0.57,0.11l-0.02,0.19c-0.18,0.44-0.86,0.49-0.86,0.49c-1.02-0.04-0.97-0.65-0.97-0.65
					l-0.09-0.28l-0.36,1.06l0.47-0.02c0,0,0.56,0.2,0.61,0.2c0.04,0,0.16,0.04,0.54,0.03c0.4-0.03,0.97-0.74,0.97-0.74l0.45-1.02
					c0.04-0.13,0.16-0.2,0.16-0.2l0.45-0.27C786.43,502.67,786.67,502.41,786.69,502.41"/>
				<path id="path9279" fill="#005091" d="M789.31,503.21c0.71,1.67,1.02,1.62,0.75,3.67c0.04,0.08-1.1,1.52-1.1,1.52
					c-0.1,0.14-0.09,0.63-0.09,0.63c0.09,0.6,0.49,1.17,0.49,1.17c0.14,0.12,0.28,0.59,0.28,0.59l0.11,0.83v0.18l0.51,0.19
					c0,0-0.12-1.92-0.33-2.08c-0.45-0.81-0.49-1.44-0.14-1.88l0.48-0.63c0.07-0.06,0.27-0.07,0.27-0.07l0.76-0.6l0.91-0.82
					l0.58-0.65c0.4-0.68,0.26-1.3,0.26-1.3c-0.1-0.03-0.29,0.03-0.29,0.03l-0.01,0.57c-0.02,0.36-0.39,0.72-0.39,0.72l-0.72,0.75
					l-0.88,0.67l-0.13,0.05l-0.02-0.2l0.09-0.16l0.22-0.27l1.17-1.63l0.3-0.52l-0.79,0.04l-0.05,0.3c-0.06,0.66-0.88,1.45-0.88,1.45
					l-0.06-0.39l-0.09-1.01l0.11-0.52c0,0,0.03-0.75,0.01-0.71C790.62,503.18,789.31,503.21,789.31,503.21"/>
				<path id="path9281" fill="#005091" d="M787.02,512.01l0.27-0.24c3.81-0.25,4.7,0.77,4.7,0.77c0.32,0.2,0.72,0.81,0.72,0.81
					l0.42,0.17l-0.04,0.54l-0.45-0.18l-0.41-0.07l-0.27,0.04l-0.09-0.47c-0.15-0.61-3.34-1.17-3.34-1.17l-0.5,0.02h-0.42l-0.32-0.09
					L787.02,512.01z"/>
				<path id="path9283" fill="#005091" d="M787.42,512.34c0,0,0.03,0.27,0.05,0.32c0.02,0.04,0.14,0.18,0.14,0.18
					c1.74-0.01,4.24,0.88,4.24,0.88c0.36,0.04,0.36,0.13,0.36,0.13c0.32,0.49,0.07,0.57,0.07,0.57l-0.55-0.18
					c-1.84-1-4.58-1.09-4.58-1.09l-0.11-0.24l0.02-0.32L787.42,512.34z"/>
				<path id="path9285" fill="#005091" d="M787.13,513.29c-0.05,0.2,0.2,0.2,0.2,0.2c1.29,0.02,3.52,0.81,3.57,0.83
					c0.04,0.03,0.77,0.32,0.77,0.32c0.27,0.22,0.57,0.12,0.57,0.12l-0.03,0.51l-0.14,0.36c0,0-0.11,0.19-0.11,0.15
					c0-0.05-0.5-0.67-0.5-0.67c-0.61-0.65-2.91-1.08-2.91-1.08l-0.45-0.07h-0.68c-0.35,0-0.36,0.53-0.36,0.53l-0.33-0.35l0.13-0.56
					L787.13,513.29z"/>
				<path id="path9287" fill="#005091" d="M792.1,515.61c-0.04,0.39-0.72,0.17-0.72,0.17c-1.19-0.86-3.19-1.24-3.19-1.24
					c-1.04,0.09-1.19-0.28-1.19-0.28c-0.4,0.04-0.5,0.27-0.5,0.27s-0.11,0.86-0.11,0.9c0,0.05-0.11,0.21-0.11,0.21l0.27-0.09
					l0.49-0.53c1.66-0.08,2.32,0.84,2.32,0.84c0.9,0.34,1.2,0.44,1.45,0.75c0.11,0.14,0.22,0.11,0.27,0.13
					c0.05,0.02,0.88,0.04,0.88,0.04L792.1,515.61z"/>
				<path id="path9289" fill="#005091" d="M779.76,517.78c0,0,0.52,0.39,0.56,0.45c0.04,0.05,0.18,0.2,0.23,0.25
					c0.04,0.04,0.27,0.2,0.27,0.2c0.12-0.02,0.6,0,0.6,0c0.01-0.01,0.09-0.14,0.2-0.22c0.11-0.08,0.28-0.27,0.28-0.27l0.29-0.21
					c0,0,0.3-0.2,0.34-0.2c0.05,0,0.38-0.11,0.38-0.11l0.3-0.12l0.29-0.18l0.41-0.13l0.31-0.16l0.18-0.14l0.18-0.13l0.48-0.38
					l0.28-0.18l0.27-0.18c0.17-0.36,0.94-0.52,0.94-0.52l-0.21,0.33l-0.11,0.32l-0.02,0.38c0,0-0.05,0.25-0.05,0.3
					c0,0.04-0.06,0.2-0.06,0.2l-0.34,0.22l-0.29,0.18l-0.57,0.12l-0.25,0.13l-0.42,0.23c0,0-0.37,0.14-0.41,0.14h-0.32l-0.31,0.11
					c-0.78,0.39-1.29,0.97-1.29,0.97l-0.27,0.27l-0.23,0.07l-0.27,0.02l-0.38-0.02c0,0-0.16-0.01-0.95-0.54
					c-0.25-0.23-0.58-0.07-0.58-0.07c0,0.05,0.11-0.45,0.11-0.45l0.25-0.45L779.76,517.78z"/>
				<path id="path9291" fill="#005091" d="M789.41,515.82c-0.01,0.15-0.36,0.26-0.36,0.26l-0.78-0.03l-0.63,0.06l-0.34,0.12
					l-0.25,0.11l-0.2,0.14l-0.2,0.13l-0.45,0.38l-0.27,0.07l-0.3,0.16l-0.23,0.28l0.39-0.03c0,0,0.45-0.03,0.5-0.03
					c0.04,0,0.43-0.02,0.43-0.02s0.33-0.09,0.38-0.09c0.05,0,0.32-0.09,0.32-0.09l0.38-0.2l0.54-0.25c0.58-0.34,0.99,0.07,0.99,0.07
					l0.27-0.05c0.2-0.69,1.02-0.51,1.02-0.51C790.54,516.19,789.41,515.82,789.41,515.82"/>
				<path id="path9293" fill="#005091" d="M783.7,530.37l-0.22,0.09l-0.27,0.15l-0.18,0.14l-0.25,0.04l-0.25,0.05l-0.27,0.16
					l-0.38,0.25l-0.2,0.29l-0.21,0.34l-0.32,0.52l-0.18,0.47l-0.06,0.25v0.16l0.09,0.04c0.13-0.01,0.31-0.11,0.31-0.11
					c0.24-0.1,0.54-0.39,0.54-0.39l0.28-0.22l0.22-0.11l0.5-0.19l0.29-0.08l0.74-0.19c0.44-0.11,0.82-0.31,0.82-0.31
					c0.73-0.51,0.83-1.08,0.83-1.08l0.11-0.52l0.05-0.5l-0.02-0.38l-0.05-0.54l0.05-0.3l0.11-0.34l0.07-0.22
					c0.01-0.16,0.01-0.26,0-0.29c-0.09-0.01-0.25,0.09-0.25,0.09c-0.09,0.07-0.21,0.27-0.21,0.27l-0.13,0.22l-0.07,0.34l-0.02,0.52
					l-0.04,0.43v0.61c0.07,0.59-0.39,1.22-0.39,1.22l-0.29,0.24l-0.39,0.18l-0.29,0.12l-0.61,0.13l-0.56,0.09l-0.54,0.25l-0.25,0.18
					c-0.3,0.04-0.18-0.25-0.18-0.25l0.11-0.27l0.18-0.25c0.43-0.28,0.63-0.29,0.63-0.29s0.73-0.02,0.79-0.04
					c0.07-0.03,0.25-0.09,0.25-0.09l0.23-0.12l0.2-0.15l0.18-0.25l0.02-0.21C784.09,530.24,783.7,530.37,783.7,530.37"/>
				<path id="path9295" fill="none" stroke="#005091" stroke-width="0.102" stroke-miterlimit="3.864" d="M783.7,530.37l-0.22,0.09
					l-0.27,0.15l-0.18,0.14l-0.25,0.04l-0.25,0.05l-0.27,0.16l-0.38,0.25l-0.2,0.29l-0.21,0.34l-0.32,0.52l-0.18,0.47l-0.06,0.25
					v0.16l0.09,0.04c0.13-0.01,0.31-0.11,0.31-0.11c0.24-0.1,0.54-0.39,0.54-0.39l0.28-0.22l0.22-0.11l0.5-0.19l0.29-0.08l0.74-0.19
					c0.44-0.11,0.82-0.31,0.82-0.31c0.73-0.51,0.83-1.08,0.83-1.08l0.11-0.52l0.05-0.5l-0.02-0.38l-0.05-0.54l0.05-0.3l0.11-0.34
					l0.07-0.22c0.01-0.16,0.01-0.26,0-0.29c-0.09-0.01-0.25,0.09-0.25,0.09c-0.09,0.07-0.21,0.27-0.21,0.27l-0.13,0.22l-0.07,0.34
					l-0.02,0.52l-0.04,0.43v0.61c0.07,0.59-0.39,1.22-0.39,1.22l-0.29,0.24l-0.39,0.18l-0.29,0.12l-0.61,0.13l-0.56,0.09l-0.54,0.25
					l-0.25,0.18c-0.3,0.04-0.18-0.25-0.18-0.25l0.11-0.27l0.18-0.25c0.43-0.28,0.63-0.29,0.63-0.29s0.73-0.02,0.79-0.04
					c0.07-0.03,0.25-0.09,0.25-0.09l0.23-0.12l0.2-0.15l0.18-0.25l0.02-0.21C784.09,530.24,783.7,530.37,783.7,530.37z"/>
				<path id="path9297" fill="#005091" d="M786.88,520.05c-0.12-0.17,0.04-0.29,0.27-0.34c-0.01-0.03,0.43-0.11,0.43-0.11
					c0.11-0.01,0.22,0.13,0.2,0.2c-0.02,0.07-0.14,0.14-0.14,0.14C787.31,520.23,786.88,520.05,786.88,520.05"/>
				<path id="path9299" fill="none" stroke="#005091" stroke-width="0.102" stroke-miterlimit="3.864" d="M786.88,520.05
					c-0.12-0.17,0.04-0.29,0.27-0.34c-0.01-0.03,0.43-0.11,0.43-0.11c0.11-0.01,0.22,0.13,0.2,0.2c-0.02,0.07-0.14,0.14-0.14,0.14
					C787.31,520.23,786.88,520.05,786.88,520.05z"/>
				<path id="path9301" fill="#005091" d="M776.62,525.43c-0.08-0.02-0.2,0.09-0.2,0.09c-0.14,0.2-0.05,0.42-0.05,0.42
					c0.02,0.04,0.1,0.12,0.14,0.14c0.04,0.02,0.16,0.07,0.2,0.07c0.25,0.04,0.37,0.01,0.57-0.07c0.04-0.01,0.22-0.11,0.22-0.11
					l0.23-0.18c0.12-0.13,0.18-0.22,0.18-0.27c0,0,0.03-0.64-0.05-0.7c-0.24-0.32-0.5-0.52-0.79-0.59l-1.04-0.25l-0.29-0.11
					l-0.16-0.2l-0.19-0.46c0,0-0.18,1.04-0.22,1.06c-0.05,0.03-0.13,0.64-0.13,0.64l0.7-0.57c1.07,0,1.62,0.54,1.62,0.54l0.07,0.3
					c0,0.16-0.01,0.25-0.02,0.27c0,0-0.14,0.23-0.52,0.11C776.79,525.48,776.62,525.43,776.62,525.43"/>
				<path id="path9303" fill="none" stroke="#005091" stroke-width="0.102" stroke-miterlimit="3.864" d="M776.62,525.43
					c-0.08-0.02-0.2,0.09-0.2,0.09c-0.14,0.2-0.05,0.42-0.05,0.42c0.02,0.04,0.1,0.12,0.14,0.14c0.04,0.02,0.16,0.07,0.2,0.07
					c0.25,0.04,0.37,0.01,0.57-0.07c0.04-0.01,0.22-0.11,0.22-0.11l0.23-0.18c0.12-0.13,0.18-0.22,0.18-0.27c0,0,0.03-0.64-0.05-0.7
					c-0.24-0.32-0.5-0.52-0.79-0.59l-1.04-0.25l-0.29-0.11l-0.16-0.2l-0.19-0.46c0,0-0.18,1.04-0.22,1.06
					c-0.05,0.03-0.13,0.64-0.13,0.64l0.7-0.57c1.07,0,1.62,0.54,1.62,0.54l0.07,0.3c0,0.16-0.01,0.25-0.02,0.27
					c0,0-0.14,0.23-0.52,0.11C776.79,525.48,776.62,525.43,776.62,525.43z"/>
				<path id="path9305" fill="#005091" d="M771.69,537.63c0.17,0.14,0.99,0.51,0.99,0.51c-0.01,0.02,1.02,0.33,1.02,0.33
					s0.55,0.16,0.69,0.18c2.04,0.32,3.6,0.44,4.69,0.39c2.11,0,3.9-0.5,3.9-0.5c1.05-0.22,3.22-1.06,3.22-1.06
					c0.42-0.16,1.85-0.91,2.59-2.08c0.06-0.09,1.57-2.52,1.57-2.52c0.46-0.95,1.03-3.07,1.03-3.07l0.29-1.21l0.37-1.35
					c0.55-2.06,0.66-3.22,0.66-3.22l0.11-0.94l0.18-1.71l0.07-0.89l0.18-1.43c0.04-0.16-0.44-1.68-0.44-1.68l-0.54-0.73l-0.52-0.14
					v0.29l0.59,0.76c0.06,0.02,0.4,0.74,0.4,0.81c0,0.07-0.11,2.96-0.11,2.96l-0.07,1.57l-0.1,0.99c0.03,0.11-0.16,1.28-0.16,1.28
					c0.01,0.07-0.25,0.76-0.25,0.76l-0.26,0.92l-0.26,0.88l-0.27,1.07l-0.16,0.98c-0.02,0.35-0.59,2-0.59,2
					c-0.74,1.7-2.19,3.51-2.19,3.51l-0.91,0.84c-5.01,3.05-10.81,2.41-11.01,2.41c0,0-1.14-0.14-2.26-0.33
					c-1.05-0.25-1.65-0.54-1.65-0.54c-0.27-0.17-0.69-0.22-0.69-0.22C771.6,537.46,771.69,537.63,771.69,537.63"/>
				<path id="path9307" fill="#005091" d="M780.55,536.82c0.1-0.04,0.29-0.15,0.58-0.32c1.18-0.76,2.14-1.22,3.07-1.52
					c0.07-0.03,1.83-0.77,2.27-1.77c0.41-0.6,0.58-1.17,0.58-1.17c-0.01,0.1,0.26-0.84,0.26-0.84l0.32-1.72l0.22-0.62
					c0.25-0.73,0.77-1.17,0.77-1.17l1.39-1.21c0,0,0.8-0.88,0.75-1.63c0.05-0.16-0.13-0.23-0.2,0.02c-0.09,0.3-0.11,0.36-0.21,0.53
					c-0.17,0.32-0.85,0.93-0.85,0.93l-0.8,0.59l-0.81,0.62l-0.55,0.48c-0.33,0.61-0.25,1.13-0.25,1.13l0.03,0.8
					c0.1,0.41-0.32,1.76-0.32,1.76l-0.16,0.37l-0.14,0.32l-0.25,0.55c-0.04,0.03-0.18,0.15-0.52,0.48c-0.8,0.93-2.26,1.35-2.26,1.35
					c-0.64,0.13-1.1,0.27-1.57,0.51C780.44,536.17,780.55,536.82,780.55,536.82"/>
				<path id="path9309" fill="none" stroke="#005091" stroke-width="0.102" stroke-miterlimit="3.864" d="M780.55,536.82
					c0.1-0.04,0.29-0.15,0.58-0.32c1.18-0.76,2.14-1.22,3.07-1.52c0.07-0.03,1.83-0.77,2.27-1.77c0.41-0.6,0.58-1.17,0.58-1.17
					c-0.01,0.1,0.26-0.84,0.26-0.84l0.32-1.72l0.22-0.62c0.25-0.73,0.77-1.17,0.77-1.17l1.39-1.21c0,0,0.8-0.88,0.75-1.63
					c0.05-0.16-0.13-0.23-0.2,0.02c-0.09,0.3-0.11,0.36-0.21,0.53c-0.17,0.32-0.85,0.93-0.85,0.93l-0.8,0.59l-0.81,0.62l-0.55,0.48
					c-0.33,0.61-0.25,1.13-0.25,1.13l0.03,0.8c0.1,0.41-0.32,1.76-0.32,1.76l-0.16,0.37l-0.14,0.32l-0.25,0.55
					c-0.04,0.03-0.18,0.15-0.52,0.48c-0.8,0.93-2.26,1.35-2.26,1.35c-0.64,0.13-1.1,0.27-1.57,0.51
					C780.44,536.17,780.55,536.82,780.55,536.82z"/>
				<path id="path9311" fill="#005091" d="M772.01,536.13c0.37,0.21,1.65,0.51,1.65,0.51c0.09,0.05,1.25,0.22,1.32,0.22
					c0.07,0,2.15,0.29,2.15,0.29c0.91,0.07,1.61-0.22,1.61-0.22c0.26-0.07,0.48-0.25,0.48-0.25l1.17-0.92l1.17-0.8
					c0,0,0.69-0.36,0.8-0.4c0.11-0.04,1.57-0.55,1.72-0.58c0.15-0.04,1.24-0.55,1.24-0.55s1.55-0.89,1.42-1.5
					c-0.65,0.69-1.82,1.17-1.82,1.17c-3.18,1.06-3.65,1.57-3.65,1.57l-0.88,0.58l-0.77,0.51c-1.01,0.81-2.41,0.87-2.41,0.87
					c-1.4,0.12-3.79-0.34-3.79-0.34C772.46,536.03,772.01,536.13,772.01,536.13"/>
				<path id="path9313" fill="#005091" d="M782.51,537.43c-0.08,0,0.5-0.05,0.98-0.17c0.15-0.03,0.87-0.3,0.95-0.33
					c0.07-0.02,1.3-0.55,1.46-0.65c0.75-0.43,1.25-0.78,1.54-1.03c0.84-0.71,1.04-1.18,1.04-1.18c0.58-0.78,1.03-1.53,1.34-2.62
					l0.25-0.87l0.15-0.77l0.22-1.28l0.18-0.77l-0.73,1.03l-0.27,0.34l-0.21,0.35l-0.21,0.66c-0.74,3.24-1.32,3.95-1.32,3.95
					c-0.74,1.11-1.87,1.75-1.87,1.75c-0.23,0.16-1.64,0.8-1.64,0.8s-1.17,0.44-1.31,0.48C782.21,537.34,782.51,537.43,782.51,537.43
					"/>
				<path id="path9315" fill="#005091" d="M775.09,533.35c0.73-0.41,1.21-0.47,1.21-0.47c0.58,0,1.24-0.15,1.24-0.15
					s0.44-0.22,0.51-0.44c0.07-0.22,0.07-0.33,0.07-0.33l0.04-0.69c0,0,0.14-0.8,0.25-0.84c0.11-0.04,0.11-0.24,1.65-0.62
					c0.07-0.02,0.79-0.32,0.88-0.44c0.21-0.16,0.34-0.31,0.4-0.44c0.54-0.89,0.18-2.81,0.18-2.81l0.08-0.4
					c0.69-0.6,1.05-0.52,1.05-0.52v0.22c0,0.08-0.18,0.44-0.18,0.44l-0.69,3.11c-0.3,0.58-1.61,1.13-1.61,1.13
					c-0.77,0.19-0.81,0.77-0.81,0.77l-0.18,0.76l-0.22,0.81c-0.2,1.02-1.09,0.99-1.09,0.99h-0.95l-0.48,0.03l-0.4,0.08l-0.62,0.25
					C775.42,533.79,774.73,533.95,775.09,533.35"/>
				<path id="path9317" fill="#005091" d="M775.2,531.84l0.44-0.09l0.33-0.11c0.3-0.02,0.36,0.07,0.36,0.07l0.66,0.22h0.22
					l0.44-0.07c0.85-0.21,0.91-0.73,0.91-0.73l-0.51,0.14l-0.48,0.04l-0.73,0.03l-0.51-0.03
					C775.61,531.07,775.2,531.84,775.2,531.84"/>
				<path id="path9319" fill="#005091" d="M774.94,534.81c0.64-0.85,1.32-0.35,1.28-0.4l1.06,0.22c0.29,0.02,0.56,0.04,0.64,0.03
					c0.48-0.04,0.68-0.12,0.8-0.15c0.32-0.1,0.59-0.14,1.01-0.79c-0.01,0.06,0.37-0.7,0.37-0.7l0.29-0.76
					c0.46-1.74,2.19-2.38,2.19-2.38l1.03-0.29l0.32-0.15c0,0,0.4-0.3,0.48-0.51c0.03-0.1,0.25-0.51,0.25-0.51l0.22-0.66l0.33-0.91
					l0.29-0.26l0.37-0.29l0.33-0.44c-0.12-0.1-0.07-0.36-0.07-0.36c0-0.05-0.33-0.12-0.33-0.12l-0.36-0.09
					c-0.16,0.07-0.26,0.35-0.26,0.35l-0.11,0.55l-0.48,1.57c-0.36,0.93-1.02,1.1-1.02,1.1l-0.92,0.44l-1.24,0.69
					c-0.9,0.43-1.39,2.01-1.39,2.01c-0.38,1.59-1.09,1.94-1.09,1.94c-0.38,0.39-2.26,0.17-2.26,0.17l-0.73-0.24
					c0.08,0.03-1.14-0.41-1.14-0.41s0.03,0.59,0.03,0.66C774.83,534.19,774.94,534.81,774.94,534.81"/>
				<path id="path9321" fill="#005091" d="M782.69,528.24c0.71-0.87,0.4-2.49,0.4-2.49l0.15-0.77l0.47-0.69c0,0,0.84-0.95,0.88-1.02
					c0.97-1.11,0.74-2.16,0.36-3l-0.36-0.44l-0.07-0.15l-0.04-0.95l0.15-0.25c0.24-0.15,1.09-0.18,1.09-0.18s1.1,0,1.17-0.04
					c0.08-0.04,0.52,0.07,0.41,0.14c-0.11,0.08-0.3,0.15-0.3,0.15s-0.51,0.4-0.54,0.51c-0.04,0.11-0.11,0.73-0.11,0.81
					c0,0.07-0.11,0.33-0.11,0.33c-0.03,0.06-0.21,0.33-0.34-0.04c0.03,0.07-0.07-0.4-0.07-0.4l-0.11-0.44l-0.4-0.18
					c-0.05-0.01-0.11,0-0.18,0.03c-0.08,0.06-0.04,0.33-0.04,0.33c0.05,0.13,0.29,0.48,0.29,0.48l0.15,0.47l0.18,0.66l0.08,0.77
					l-0.19,0.66l-0.22,0.43l-0.87,1.17l-0.4,0.55l-0.41,0.55l-0.18,0.66l-0.04,1.6c0.02,0.48-0.47,1.03-0.47,1.03
					C782.46,528.75,782.69,528.24,782.69,528.24"/>
				<path id="path9323" fill="#005091" d="M771.44,536.84l1.09,0.48l1.35,0.31c3.25,0.49,5.56,0.29,5.56,0.29
					c1.91-0.33,3.14-0.95,3.14-0.95s3.23-1.36,4.46-2.81c0.37-0.5,0.51-0.95,0.51-0.95l0.91-2.82c0.29-0.87,0.59-1.24,0.59-1.24
					c0.21-0.28,0.47-0.4,0.47-0.4l0.33-0.15c0.32-0.12,0.59-0.51,0.59-0.51c0.37-0.52,0.36-0.99,0.36-0.99c0.08-0.05,0-0.51,0-0.51
					l-0.33,0.4l-0.64,0.65c-1.44,0.8-1.84,2.9-1.84,2.9l-0.26,1.09l-0.36,1.1c-0.4,2.05-5.77,4.2-5.77,4.2
					c-2.27,1.09-5.12,0.73-5.12,0.73c-0.35,0-1.24-0.14-1.24-0.14l-2.35-0.4l-0.9-0.2L771.44,536.84z"/>
				<path id="path9325" fill="#005091" d="M790.36,515.99c0.14,0.01,0.23,0.16,0.26,0.44l0.11,0.51l0.07,0.66l0.04,0.55l0.07,0.58
					v0.48c-0.38,0.94-1.68,1.5-1.68,1.5l-0.69,0.22l-0.51,0.29l-0.4,0.37l-0.41,0.25l-0.51,0.15c-0.3,0.02-0.11,0.18-0.11,0.18
					s0.19,0.07,0.33,0.07c0.15,0,0.55-0.03,0.66-0.07c0.11-0.04,0.47-0.11,0.47-0.11s0.33-0.33,0.55-0.44
					c0.88-0.43,2.81-1.86,2.81-1.86c0.24-0.15,0.22-0.62,0.22-0.62v-0.48l-0.03-0.51l-0.11-0.37l-0.19-0.8l-0.07-0.51
					c0,0-0.11-0.18-0.14-0.26c-0.04-0.07-0.22-0.25-0.22-0.25l-0.3-0.08L790.36,515.99z"/>
				<path id="path9327" fill="#005091" d="M791.61,519.94l-0.48,0.8c0,0-0.5,0.99-1.46,1.45c-0.56,0.16-0.68,0.4-0.68,0.4
					c-0.01,0.02-0.01,0.64-0.01,0.64c0.11,0.96-0.73,1.79-0.73,1.79s-1.03,0.55-1.1,0.58c-0.07,0.04-1.04,0.33-1.14,0.37
					c-0.06,0.03-0.73,0.55-0.73,0.55l-0.14,0.4l0.29-0.18l0.95-0.48l2.19-1.08c0.5-0.27,0.77-0.6,0.77-0.6
					c0.1-0.2,0.29-1.09,0.29-1.09c0.04-0.34,0.37-0.55,0.37-0.55c0.16-0.15,1.5-1.39,1.5-1.39
					C791.74,521.21,791.61,519.94,791.61,519.94"/>
				<path id="path9329" fill="none" stroke="#005091" stroke-width="0.102" stroke-miterlimit="3.864" d="M791.61,519.94l-0.48,0.8
					c0,0-0.5,0.99-1.46,1.45c-0.56,0.16-0.68,0.4-0.68,0.4c-0.01,0.02-0.01,0.64-0.01,0.64c0.11,0.96-0.73,1.79-0.73,1.79
					s-1.03,0.55-1.1,0.58c-0.07,0.04-1.04,0.33-1.14,0.37c-0.06,0.03-0.73,0.55-0.73,0.55l-0.14,0.4l0.29-0.18l0.95-0.48l2.19-1.08
					c0.5-0.27,0.77-0.6,0.77-0.6c0.1-0.2,0.29-1.09,0.29-1.09c0.04-0.34,0.37-0.55,0.37-0.55c0.16-0.15,1.5-1.39,1.5-1.39
					C791.74,521.21,791.61,519.94,791.61,519.94z"/>
				<path id="path9331" fill="#005091" d="M775.49,534.28c-0.16,0.26-0.11,0.57-0.11,0.57c0.36,0.63,3.22,0.3,3.51,0.15l1.28-0.7
					l1.35-0.73c2.34-1.2,3.96-1.57,3.96-1.57c0.79-0.47,0.68-2.41,0.68-2.41l0.04-1.06l0.04-0.62l0.07-0.48
					c0.04-0.32,0.33-0.51,0.33-0.51l2.88-1.68c0,0,0.79-0.5,0.88-1.79c0-0.49-0.22-0.73-0.22-0.73c0.02-0.11,0-0.33,0-0.33
					s0.04-0.07,0.29-0.22c0.26-0.15,0.52-0.29,0.52-0.29l-0.04,0.33l-0.15,0.51l-0.03,1.17l0.06,0.87c0.02,0.22-0.11,0.34-0.36,0.48
					l-0.36,0.18l-1.46,0.73l-0.51,0.29l-0.73,0.44l-0.48,0.52l-0.29,0.54l-0.18,0.66l-0.08,0.62v0.52l-0.03,0.67l-0.04,0.68
					c0.13,1.05-2.12,1.64-2.12,1.64l-1.61,0.55l-0.66,0.29l-1.13,0.81c-0.01,0.05-1.13,0.76-1.13,0.76
					c-1.5,0.81-3.15,0.71-3.15,0.71l-0.71-0.06c-0.58-0.09-0.89-0.39-0.89-0.39l-0.04-0.29c0,0,0.06-0.28,0.09-0.35
					c0.04-0.1,0.17-0.27,0.17-0.27L775.49,534.28z"/>
				<path id="path9333" fill="#005091" d="M775.39,530.95c0.07-0.05,1.96-1.57,1.96-1.57c0.72-0.66,1.82-0.86,1.82-0.86
					c0.23-0.05,0.89-0.02,0.89-0.02c0.66-0.17,0.62-1,0.62-1c0.2-1.22-0.37-1.24-0.37-1.24c-0.16-0.1-0.29-0.14-0.29-0.14
					s-0.29-0.19-0.03-0.22c0.25-0.04,1.2,0.07,1.2,0.07l-0.33,2.3c-0.25,0.91-1.51,0.81-1.51,0.81c-0.28-0.06-0.66-0.02-0.66-0.02
					c-0.85,0.22-1.38,0.74-1.38,0.74l-1.82,1.36C774.97,531.35,775.39,530.95,775.39,530.95"/>
				<path id="path9335" fill="#005091" d="M789.84,516.43l0.09,0.59l0.21,0.77c0.02,0.1-0.07,0.3-0.07,0.3
					c0,0.03-0.51,0.66-0.51,0.66c-0.06,0.12-0.02,0.55-0.02,0.55c0.01,0.22-0.12,0.68-0.38,1.37c-0.31,0.51-0.84,0.66-0.84,0.66
					s-0.29,0.11-0.29,0.07c-0.06-0.02-0.07-0.08-0.01-0.17c0.75-0.75,0.88-1.62,0.88-1.62c0.04-0.13,0.03-0.1,0.07-0.18
					c0.03-0.07,0.12-0.33,0.12-0.33l0.14-0.37l0.4-0.8c0.17-0.21-0.22-0.73-0.22-0.73l0.04-0.51L789.84,516.43z"/>
				<path id="path9337" fill="#005091" d="M789.78,516.25l-0.04,0.55c0,0-0.06,0.51-0.14,0.58c-1.28,1.17-2.78,1.13-2.78,1.13
					l-0.26-0.07l0.13-0.18c3-0.66,2.65-1.43,2.65-1.43c0.14-0.16,0.07-0.25,0.07-0.25l0.19-0.22L789.78,516.25z"/>
				<path id="path9339" fill="#005091" d="M785.58,518.62c0,0,0.97,0.12,1.05,0.14c1.48,0.42,2.38,0.12,2.38,0.12
					c0.18-0.01,0.35-0.26,0.35-0.26l0.1,0.11l-0.01,0.22c-0.02,0.35-0.68,0.43-0.68,0.43l-1.61-0.09l-0.7-0.12l-1.1-0.29
					L785.58,518.62z"/>
				<path id="path9341" fill="#005091" d="M783.99,527.92l0.02-0.45c0,0-0.08-1.39-0.08-1.24c-0.01,0.02,0.03-0.78,0.33-1.03
					c0.18-0.11,0.56-0.44,0.56-0.44c0.22-0.16,0.6-0.83,0.6-0.83s0.33-1.09,0.27-1.17l-0.11-0.59l0.16-0.33c0,0,0.61,0.11,0.68,0.11
					s0.29,0.07,0.29,0.07l0.04,0.19c0,0-0.19,0.11-0.26,0.07c-0.07-0.04-0.18-0.07-0.18-0.07l-0.11,0.47c0,0.21-0.42,1.01-0.42,1.01
					l-0.09,0.27l-0.22,0.69l-0.44,0.63c-0.32,0.12-0.55,0.58-0.55,0.58c-0.13,0.22-0.18,1.65-0.18,1.65
					C784.27,527.65,783.99,527.92,783.99,527.92"/>
				<path id="path9343" fill="#005091" d="M788.25,521.55c0.12-0.09-0.15,0.44-0.15,0.44l0.15,1.2c-0.1,1.32-1.43,2.16-1.43,2.16
					l-0.7,0.22l-0.4-0.04c-0.42-0.35-0.91-0.18-0.91-0.18s-0.99-0.22-1.17-0.15c-0.18,0.08-0.36,0.3-0.36,0.3s-0.11,0.32-0.15,0.21
					c-0.08-0.21-0.66,0-0.66,0l-1.06,0.44l-0.11-0.03l-0.8-0.11l-0.04-0.15l0.18-0.07c0,0,1.76-0.56,2.02-1.56
					c0.02-0.12,0.43-0.12,0.5-0.12c0.08,0,0.88,0.29,0.88,0.29s0.29,0.74,0.91,0.36c0.1-0.05,0.92,0.04,0.92,0.04l0.73-0.11
					c0.87-0.24,1.03-1.75,1.03-1.75c0.07-0.16-0.19-0.51-0.19-0.51s0.42-0.78,0.48-0.84C788.13,521.33,788.25,521.55,788.25,521.55"
					/>
				<path id="path9345" fill="#005091" d="M775.12,527.21l0.26,0.18l0.22,0.22c0,0,0.25,0.29,0.36,0.29h0.37
					c0,0,0.65-0.12,0.76-0.15c0.11-0.04,0.66-0.25,0.66-0.25l0.73-0.15l0.29-0.03l0.48-0.26l0.25-0.33l0.11-0.22l0.04-0.29
					l0.22-0.18l0.48-0.11l-0.22,0.66l-0.37,0.84l-0.26,0.22l-0.29,0.14c-1.73,0.31-1.83,0.66-1.83,0.66l-0.18,0.18l-0.73,0.66
					l-0.97,1c-0.06,0.09-0.53,0.37-0.53,0.37c-0.17-0.04-0.07-0.2-0.07-0.2l0.84-0.69c0,0,0.59-0.88,0.73-0.99
					c0.15-0.11,0.22-0.33,0.22-0.33c-0.11-0.2-0.33,0-0.33,0l-0.22,0.29l-1.21,1.16c-0.44,0.25-0.14-0.21-0.14-0.21
					c0.05-0.08,0.81-0.98,0.81-0.98l0.07-0.41l-0.18-0.14l-0.26,0.11l-0.15-0.07l-0.22-0.44L775.12,527.21z"/>
				<path id="path9347" fill="#005091" d="M784.15,518.04l-0.11,0.29l-0.03,0.33c0.05,0.28,0.47,0.11,0.47,0.11s0.22,0.04,0.29,0.04
					c0.08,0,0.06,0.94,0.06,0.94l-0.53,0.01l-0.48-0.04c0,0-0.26,0.33-0.11,0.33c0.99-0.01,1.03,1.39,1.03,1.39
					c-0.05,0.33-0.26,0.15-0.26,0.15c-0.23-1.13-1.06-1.29-1.06-1.29l-0.44-0.03l-0.29,0.07l-0.15,0.15c1.07,0.57,1.25,1.1,1.25,1.1
					c0.14,0.12,0.11,0.84,0.11,0.84l-0.08,0.36c-0.13,0.13-0.25-0.03-0.25-0.03v-0.3c0-0.12-0.01-0.26-0.04-0.4
					c-0.73-1.5-1.39-0.99-1.39-0.99l-0.14,0.15c1.23,0.16,1.02,2.63,1.02,2.63l-0.04,0.33l-0.14,0.15l-0.17-0.02
					c0.13-0.33,0.17-1.12,0.17-1.12c0.04,0.02-0.34-1.6-1.35-1.39c-0.08,0.02-0.41,0.08-0.37,0.15c0.04,0.07,0,0.22,0.11,0.26
					c0.11,0.03,0.33,0.14,0.4,0.18c0.07,0.04,0.4,0.37,0.4,0.37l0.15,0.32l0.04,0.44l-0.04,0.19c-0.04,0.04-0.15,0-0.15,0
					l-0.07-0.15c-0.11-1.03-0.99-1.13-0.99-1.13l-0.4-0.19h-0.22l-0.11,0.08c0.89,0.63,0.95,1.31,0.95,1.31l0.04,0.4
					c0,0.19-0.01,0.27-0.04,0.26c-0.01,0.03-0.14,0-0.14,0c0,0.03-0.11-0.15-0.11-0.15l-0.19-0.58c-0.24-0.67-0.87-0.95-0.87-0.95
					c-0.35-0.02-0.19,0.25-0.19,0.25c0.81,0.82,0.74,1.1,0.74,1.1l-0.04,0.62c-0.09,0.09-0.19,0-0.19,0l-0.11-0.33
					c-0.1-0.67-0.65-1.2-0.8-1.2c-0.15,0-0.26-0.08-0.26-0.08l-0.07,0.19l0.26,0.14l0.22,0.26l0.18,0.33
					c0.03,0.21,0.04,0.36,0.04,0.44c0.04,0.17,0.07,0.27,0.07,0.29c-0.07,0.06-0.18,0.03-0.18,0.03c-0.03,0.02-0.08-0.18-0.08-0.18
					c-0.13-0.39-0.29-0.66-0.47-0.8c0,0-0.29,0.03-0.18,0.11c0.26,0.21,0.25,0.87,0.25,0.87l-0.04,0.92l0.11,0.22l0.59,0.14
					l0.84-0.07l0.22,0.18l-0.36,0.29l-0.77,0.11l-0.37-0.14l-0.29-0.04l-0.4,0.04l-0.15,0.07l-0.8,0.51c-0.18,0.03-0.29,0.03-0.33,0
					c0,0-0.17-0.16,0.07-0.25c0.1-0.05,1.97-0.75,1.06-2.71c-0.02-0.08-0.22-0.21-0.22-0.21c-0.07-0.06-0.58-0.08-0.58-0.08
					c-0.06,0-0.4,0.15-0.4,0.15l-0.33,0.33v0.32l-0.95-0.14l-0.08-0.22l0.04-0.15c0,0,0.29-0.28,0.33-0.29
					c0.11-0.05,0.25-0.4,0.25-0.4c0.01,0,0-0.66,0-0.66l-0.06-2.04c0.01-0.19,0.35-0.83,0.35-0.83l0.31,0.04
					c-0.19,0.37-0.33,0.89-0.3,1.22l0.14,1.1c0,0,0.15,0.44,0.15,0.51c0,0.07,0.08,0.62,0.08,0.62s0.03,0.11,0.14,0.11
					c0.11,0,0.18-0.03,0.18-0.03c0.05-0.03,0.07-0.11,0.07-0.11c0.01-0.01-0.03-0.81-0.03-0.81c-0.48-1.72-0.22-2.6-0.22-2.6
					c0.02,0.01,0.48,0.06,0.48,0.06c-0.28,0.47-0.3,0.97-0.3,0.97l0.11,0.55l0.15,0.55l0.11,0.84l0.07,0.14h0.15l0.03-0.36v-0.91
					l-0.11-0.69c-0.03-0.61,0.12-1.07,0.12-1.07l0.31,0.03l-0.1,0.41l-0.04,0.55c0,0,0.04,0.43,0.04,0.51
					c0,0.07,0.18,0.73,0.18,0.73l0.15,0.22c0.3,0.1,0.33-0.26,0.33-0.26l-0.29-1.5c0,0-0.07-0.69-0.04-0.76
					c0.04-0.1,0.29-0.51,0.29-0.51c0.06-0.09,0.15,0.07,0.15,0.07c-0.01-0.07,0.11,1.64,0.11,1.64s0.13,0.22,0.37,0.1
					c0.4-0.02,0.5,0.42,0.5,0.42s0.54,0.51,0.55-0.48c0.01-0.18-0.29-0.56-0.29-0.56c-0.29-0.33,0.23-0.17,0.23-0.17l0.39,0.14
					c0,0,0.3,0.08,0.37,0.08c0.07,0,0.15,0,0.29-0.08c0.15-0.07,0.22-0.21,0.22-0.21l-0.25-0.52c0,0-0.07-0.43,0-0.54
					c0.13-0.27,0.4,0,0.4,0s-0.08,0.29-0.04,0.36s0.11,0.26,0.11,0.26c0.1,0.17,0.51,0.14,0.51,0.14c0.74-0.33,0.88-1.53,0.88-1.53
					c0.07-0.17-0.18-0.22-0.18-0.22l0.14-0.29l1.13-0.41L784.15,518.04z"/>
				<path id="path9349" fill="none" stroke="#005091" stroke-width="0.102" stroke-miterlimit="3.864" d="M784.15,518.04l-0.11,0.29
					l-0.03,0.33c0.05,0.28,0.47,0.11,0.47,0.11s0.22,0.04,0.29,0.04c0.08,0,0.06,0.94,0.06,0.94l-0.53,0.01l-0.48-0.04
					c0,0-0.26,0.33-0.11,0.33c0.99-0.01,1.03,1.39,1.03,1.39c-0.05,0.33-0.26,0.15-0.26,0.15c-0.23-1.13-1.06-1.29-1.06-1.29
					l-0.44-0.03l-0.29,0.07l-0.15,0.15c1.07,0.57,1.25,1.1,1.25,1.1c0.14,0.12,0.11,0.84,0.11,0.84l-0.08,0.36
					c-0.13,0.13-0.25-0.03-0.25-0.03v-0.3c0-0.12-0.01-0.26-0.04-0.4c-0.73-1.5-1.39-0.99-1.39-0.99l-0.14,0.15
					c1.23,0.16,1.02,2.63,1.02,2.63l-0.04,0.33l-0.14,0.15l-0.17-0.02c0.13-0.33,0.17-1.12,0.17-1.12c0.04,0.02-0.34-1.6-1.35-1.39
					c-0.08,0.02-0.41,0.08-0.37,0.15c0.04,0.07,0,0.22,0.11,0.26c0.11,0.03,0.33,0.14,0.4,0.18c0.07,0.04,0.4,0.37,0.4,0.37
					l0.15,0.32l0.04,0.44l-0.04,0.19c-0.04,0.04-0.15,0-0.15,0l-0.07-0.15c-0.11-1.03-0.99-1.13-0.99-1.13l-0.4-0.19h-0.22
					l-0.11,0.08c0.89,0.63,0.95,1.31,0.95,1.31l0.04,0.4c0,0.19-0.01,0.27-0.04,0.26c-0.01,0.03-0.14,0-0.14,0
					c0,0.03-0.11-0.15-0.11-0.15l-0.19-0.58c-0.24-0.67-0.87-0.95-0.87-0.95c-0.35-0.02-0.19,0.25-0.19,0.25
					c0.81,0.82,0.74,1.1,0.74,1.1l-0.04,0.62c-0.09,0.09-0.19,0-0.19,0l-0.11-0.33c-0.1-0.67-0.65-1.2-0.8-1.2
					c-0.15,0-0.26-0.08-0.26-0.08l-0.07,0.19l0.26,0.14l0.22,0.26l0.18,0.33c0.03,0.21,0.04,0.36,0.04,0.44
					c0.04,0.17,0.07,0.27,0.07,0.29c-0.07,0.06-0.18,0.03-0.18,0.03c-0.03,0.02-0.08-0.18-0.08-0.18c-0.13-0.39-0.29-0.66-0.47-0.8
					c0,0-0.29,0.03-0.18,0.11c0.26,0.21,0.25,0.87,0.25,0.87l-0.04,0.92l0.11,0.22l0.59,0.14l0.84-0.07l0.22,0.18l-0.36,0.29
					l-0.77,0.11l-0.37-0.14l-0.29-0.04l-0.4,0.04l-0.15,0.07l-0.8,0.51c-0.18,0.03-0.29,0.03-0.33,0c0,0-0.17-0.16,0.07-0.25
					c0.1-0.05,1.97-0.75,1.06-2.71c-0.02-0.08-0.22-0.21-0.22-0.21c-0.07-0.06-0.58-0.08-0.58-0.08c-0.06,0-0.4,0.15-0.4,0.15
					l-0.33,0.33v0.32l-0.95-0.14l-0.08-0.22l0.04-0.15c0,0,0.29-0.28,0.33-0.29c0.11-0.05,0.25-0.4,0.25-0.4c0.01,0,0-0.66,0-0.66
					l-0.06-2.04c0.01-0.19,0.35-0.83,0.35-0.83l0.31,0.04c-0.19,0.37-0.33,0.89-0.3,1.22l0.14,1.1c0,0,0.15,0.44,0.15,0.51
					c0,0.07,0.08,0.62,0.08,0.62s0.03,0.11,0.14,0.11c0.11,0,0.18-0.03,0.18-0.03c0.05-0.03,0.07-0.11,0.07-0.11
					c0.01-0.01-0.03-0.81-0.03-0.81c-0.48-1.72-0.22-2.6-0.22-2.6c0.02,0.01,0.48,0.06,0.48,0.06c-0.28,0.47-0.3,0.97-0.3,0.97
					l0.11,0.55l0.15,0.55l0.11,0.84l0.07,0.14h0.15l0.03-0.36v-0.91l-0.11-0.69c-0.03-0.61,0.12-1.07,0.12-1.07l0.31,0.03l-0.1,0.41
					l-0.04,0.55c0,0,0.04,0.43,0.04,0.51c0,0.07,0.18,0.73,0.18,0.73l0.15,0.22c0.3,0.1,0.33-0.26,0.33-0.26l-0.29-1.5
					c0,0-0.07-0.69-0.04-0.76c0.04-0.1,0.29-0.51,0.29-0.51c0.06-0.09,0.15,0.07,0.15,0.07c-0.01-0.07,0.11,1.64,0.11,1.64
					s0.13,0.22,0.37,0.1c0.4-0.02,0.5,0.42,0.5,0.42s0.54,0.51,0.55-0.48c0.01-0.18-0.29-0.56-0.29-0.56
					c-0.29-0.33,0.23-0.17,0.23-0.17l0.39,0.14c0,0,0.3,0.08,0.37,0.08c0.07,0,0.15,0,0.29-0.08c0.15-0.07,0.22-0.21,0.22-0.21
					l-0.25-0.52c0,0-0.07-0.43,0-0.54c0.13-0.27,0.4,0,0.4,0s-0.08,0.29-0.04,0.36s0.11,0.26,0.11,0.26
					c0.1,0.17,0.51,0.14,0.51,0.14c0.74-0.33,0.88-1.53,0.88-1.53c0.07-0.17-0.18-0.22-0.18-0.22l0.14-0.29l1.13-0.41L784.15,518.04
					z"/>
				<path id="path9351" fill="#005091" d="M790.7,527.44l0.32-0.56l0.48-1.53l0.29-3.84l0.07-1.53v-1.25
					c-0.14-0.64-0.36-0.84-0.36-0.84c-0.02,0.01-0.15,0.73-0.15,0.73v1.65l-0.07,1.9c0.01,3.37-0.57,4.6-0.57,4.6L790.7,527.44z"/>
				<path id="path9353" fill="none" stroke="#005091" stroke-width="0.102" stroke-miterlimit="3.864" d="M790.7,527.44l0.32-0.56
					l0.48-1.53l0.29-3.84l0.07-1.53v-1.25c-0.14-0.64-0.36-0.84-0.36-0.84c-0.02,0.01-0.15,0.73-0.15,0.73v1.65l-0.07,1.9
					c0.01,3.37-0.57,4.6-0.57,4.6L790.7,527.44z"/>
				<path id="path9355" fill="#005091" d="M785.25,526.55l0.61-1.79l0.49-1.02l0.44-1.1c0.13-0.15,0-0.43,0-0.43l0.29-0.22l0.8-0.37
					c0,0,0.26-0.03,0.18,0.15c-0.07,0.18-0.55,0.73-0.76,0.91c-0.22,0.18-0.26,0.18-0.3,0.29c-0.03,0.11-0.51,1.68-0.51,1.68
					l-0.37,1.14l-0.47,0.65L785.25,526.55z"/>
				<path id="path9357" fill="#005091" d="M765.11,494.43l-0.65,0.01l0.1,2.52c0.01,1.35-0.43,2.45-0.43,2.45l-0.51,1.22l-0.5,0.94
					l-0.47,1.01c-0.26,0.48-0.29,1.03-0.29,1.03l0.02,0.32c0.01,0.8-0.61,0.76-0.61,0.76l-2.64,0.55l-1.37,0.12
					c-3-0.04-2.55,3.38-2.55,3.38c0.07,0.46,0.38,0.82,0.38,0.82l0.34,0.59c0.21,0.42-0.25,0.83-0.25,0.83l-0.36,0.18
					c-0.25,0.12-0.11,0.77-0.11,0.77l0.08,0.24l0.1,0.37c0.02,0.21-0.18,0.41-0.18,0.41c-0.17,0.27,0,0.89,0,0.89l0.04,0.77
					l-0.04,0.38c0,0-0.03,0.43-0.03,0.39c0-0.04-0.01,0.04-0.01,0.04l-0.48-0.02c-1.49-0.04-1.44,1.44-1.44,1.44
					c0.07,0.58,0.78,1.31,0.78,1.31l0.71,1.25l0.85,1.24l0.94,1.27c0.32,0.41,0.23,1.27,0.23,1.27l-0.01,0.6
					c-0.01,0.75,0.25,0.97,0.25,0.97l0.47,0.76c0,0,0.43,1.08,0.45,1.12c0.3,0.49,0.49,2.6,0.34,2.8c0.15-0.07-1.1,0.58-1.17,0.86
					c-0.33,1.99,0.21,3,0.21,3l1.31,1.14l0.98,1.18c1.23,1.87,2.39,1.91,2.39,1.91c0.33,0.8,1.38,1.61,1.38,1.61
					s1.08,0.74,3.06,0.44c0.58-0.01,0.77-0.56,0.77-0.56s0.23-1.73,1.07-2.1c1.08-0.72,1.69,0.07,1.69,0.07
					c0.44,0.2,0.6-0.32,0.01-0.51c-0.17-0.03-0.65-0.09-0.65-0.09c-1.59-0.33-2.04,0.95-2.04,0.95l-0.47,1.18
					c-0.17,0.73-1.1,0.68-1.1,0.68l-1.27-0.08c-0.29,0-0.56-0.05-0.81-0.17c-0.36-0.25-0.72-0.85-0.72-0.85l-0.21-0.3l-0.34-0.39
					l-0.31-0.21l-0.38-0.17c0,0-0.86-0.36-1.75-1.53c-0.26-0.5-0.6-0.97-0.96-1.44l-0.85-0.63c-0.98-0.78-0.75-1.82-0.75-1.82
					l0.03-0.91c0.03-0.26,0.5-0.53,1.11-0.76c0.24-0.12,0.29-0.42,0.29-0.42l0.04-0.76l-0.12-1.4l-0.26-1.02l-0.38-1.03l-0.37-0.7
					c-0.27-0.51-0.18-0.96-0.18-0.96v-0.97c0.02-0.63-0.81-1.28-0.81-1.28l-0.69-0.88l-0.84-1.45l-0.3-0.38
					c-0.51-0.52-1.17-1.7-1.17-1.7c0.03-0.37-0.27-1.04,0.9-1c0.21,0.01,1,0.09,1,0.09c0.64-0.09,1.09-0.36,1.09-0.36
					c0.31-0.43,0.82-0.29,0.98-0.24c0.25,0.08,0.37,0.12,0.13,0.76c-0.04,0.13-0.22,0.59-0.22,0.59l0.1,0.09
					c0,0,0.62-0.89,0.66-1.52c-0.74-0.47-1.11-0.33-1.11-0.33l-0.76,0.31l-0.59,0.09c-0.5,0.25-0.2,0.09-0.2,0.09
					c0.32-0.41,0.05-1.48,0.05-1.48l-0.07-0.4c0,0-0.07-0.29,0.21-0.32c0.21-0.02,0.33-0.03,0.39-0.05c0.09-0.02,0.2-0.11,0.23-0.16
					c0.32-0.49,0.49-0.33,0.49-0.33s0.41,0.02,0.54,0.03c0.11,0,0.27-0.44-0.07-0.44c-0.39-0.02-0.62-0.03-0.62-0.03
					c-0.11,0-0.46,0.27-0.46,0.27c-0.71,0.3-1.12-1.59-0.18-1.37c0.24-0.2,0.4-0.94,0.4-0.94c0-0.35-0.78-1.21-0.78-1.21
					s-0.2-0.41-0.05-1.31c0.12-1.1,1.09-1.87,2.89-1.87c0.87-0.03,2.21-0.12,2.25-0.12c0.04,0,1.13-0.04,1.23-0.05
					c2.61-0.11,5.76,2.73,5.76,2.73l2.41,2.53c1.03,0.9,0.93,0.07,0.93,0.07c0.56-0.22-0.83-1.59-0.83-1.59
					c0.11,0.07-3.11-2.12-3.11-2.12c-1.28-0.82-1.29-1.32-1.29-1.32c-0.1-0.97-0.12-1-0.12-1s-1.43-0.97-1.67-0.91
					c-0.16,0.04,1.25,1.18,1.25,1.18c0.26,0.55-0.35,0.32-0.47,0.28c-0.93-0.6-2.15-0.57-2.15-0.57l-0.02-0.72
					c0.09-1.22,0.55-2.08,0.55-2.08l0.64-1.11l0.42-0.89c0.56-1.02,0.72-2.37,0.72-2.37L765.11,494.43z"/>
				<path id="path9359" fill="none" stroke="#005091" stroke-width="1.000000e-06" stroke-miterlimit="3.864" d="M765.11,494.43
					l-0.65,0.01l0.1,2.52c0.01,1.35-0.43,2.45-0.43,2.45l-0.51,1.22l-0.5,0.94l-0.47,1.01c-0.26,0.48-0.29,1.03-0.29,1.03l0.02,0.32
					c0.01,0.8-0.61,0.76-0.61,0.76l-2.64,0.55l-1.37,0.12c-3-0.04-2.55,3.38-2.55,3.38c0.07,0.46,0.38,0.82,0.38,0.82l0.34,0.59
					c0.21,0.42-0.25,0.83-0.25,0.83l-0.36,0.18c-0.25,0.12-0.11,0.77-0.11,0.77l0.08,0.24l0.1,0.37c0.02,0.21-0.18,0.41-0.18,0.41
					c-0.17,0.27,0,0.89,0,0.89l0.04,0.77l-0.04,0.38c0,0-0.03,0.43-0.03,0.39c0-0.04-0.01,0.04-0.01,0.04l-0.48-0.02
					c-1.49-0.04-1.44,1.44-1.44,1.44c0.07,0.58,0.78,1.31,0.78,1.31l0.71,1.25l0.85,1.24l0.94,1.27c0.32,0.41,0.23,1.27,0.23,1.27
					l-0.01,0.6c-0.01,0.75,0.25,0.97,0.25,0.97l0.47,0.76c0,0,0.43,1.08,0.45,1.12c0.3,0.49,0.49,2.6,0.34,2.8
					c0.15-0.07-1.1,0.58-1.17,0.86c-0.33,1.99,0.21,3,0.21,3l1.31,1.14l0.98,1.18c1.23,1.87,2.39,1.91,2.39,1.91
					c0.33,0.8,1.38,1.61,1.38,1.61s1.08,0.74,3.06,0.44c0.58-0.01,0.77-0.56,0.77-0.56s0.23-1.73,1.07-2.1
					c1.08-0.72,1.69,0.07,1.69,0.07c0.44,0.2,0.6-0.32,0.01-0.51c-0.17-0.03-0.65-0.09-0.65-0.09c-1.59-0.33-2.04,0.95-2.04,0.95
					l-0.47,1.18c-0.17,0.73-1.1,0.68-1.1,0.68l-1.27-0.08c-0.29,0-0.56-0.05-0.81-0.17c-0.36-0.25-0.72-0.85-0.72-0.85l-0.21-0.3
					l-0.34-0.39l-0.31-0.21l-0.38-0.17c0,0-0.86-0.36-1.75-1.53c-0.26-0.5-0.6-0.97-0.96-1.44l-0.85-0.63
					c-0.98-0.78-0.75-1.82-0.75-1.82l0.03-0.91c0.03-0.26,0.5-0.53,1.11-0.76c0.24-0.12,0.29-0.42,0.29-0.42l0.04-0.76l-0.12-1.4
					l-0.26-1.02l-0.38-1.03l-0.37-0.7c-0.27-0.51-0.18-0.96-0.18-0.96v-0.97c0.02-0.63-0.81-1.28-0.81-1.28l-0.69-0.88l-0.84-1.45
					l-0.3-0.38c-0.51-0.52-1.17-1.7-1.17-1.7c0.03-0.37-0.27-1.04,0.9-1c0.21,0.01,1,0.09,1,0.09c0.64-0.09,1.09-0.36,1.09-0.36
					c0.31-0.43,0.82-0.29,0.98-0.24c0.25,0.08,0.37,0.12,0.13,0.76c-0.04,0.13-0.22,0.59-0.22,0.59l0.1,0.09
					c0,0,0.62-0.89,0.66-1.52c-0.74-0.47-1.11-0.33-1.11-0.33l-0.76,0.31l-0.59,0.09c-0.5,0.25-0.2,0.09-0.2,0.09
					c0.32-0.41,0.05-1.48,0.05-1.48l-0.07-0.4c0,0-0.07-0.29,0.21-0.32c0.21-0.02,0.33-0.03,0.39-0.05c0.09-0.02,0.2-0.11,0.23-0.16
					c0.32-0.49,0.49-0.33,0.49-0.33s0.41,0.02,0.54,0.03c0.11,0,0.27-0.44-0.07-0.44c-0.39-0.02-0.62-0.03-0.62-0.03
					c-0.11,0-0.46,0.27-0.46,0.27c-0.71,0.3-1.12-1.59-0.18-1.37c0.24-0.2,0.4-0.94,0.4-0.94c0-0.35-0.78-1.21-0.78-1.21
					s-0.2-0.41-0.05-1.31c0.12-1.1,1.09-1.87,2.89-1.87c0.87-0.03,2.21-0.12,2.25-0.12c0.04,0,1.13-0.04,1.23-0.05
					c2.61-0.11,5.76,2.73,5.76,2.73l2.41,2.53c1.03,0.9,0.93,0.07,0.93,0.07c0.56-0.22-0.83-1.59-0.83-1.59
					c0.11,0.07-3.11-2.12-3.11-2.12c-1.28-0.82-1.29-1.32-1.29-1.32c-0.1-0.97-0.12-1-0.12-1s-1.43-0.97-1.67-0.91
					c-0.16,0.04,1.25,1.18,1.25,1.18c0.26,0.55-0.35,0.32-0.47,0.28c-0.93-0.6-2.15-0.57-2.15-0.57l-0.02-0.72
					c0.09-1.22,0.55-2.08,0.55-2.08l0.64-1.11l0.42-0.89c0.56-1.02,0.72-2.37,0.72-2.37L765.11,494.43z"/>
				<path id="path9361" fill="#005091" d="M773.27,530.16c-0.11-0.21,0.37-0.64,0.37-0.64c0.08-0.1,0.73-0.91,0.73-0.91
					s0.61-0.54,0.52-1.57c0.11-0.94-0.25-1.08-0.43-1.58c-0.03-0.56,0.26-1.66,0.26-1.66c0.14-0.33,0.51-2.39,0.51-2.39
					s0.14-2.01,0.23-2.01c0.14-0.16,1-0.19,2.58-0.1c1.09-0.51,1-1.79,1.1-1.79c0.1,0,0.37,0.12,0.37,0.12l0.2,0.48
					c0.11,0.2,0.17,0.51,0.17,0.51c-0.43,0.13-0.62,0.35-0.62,0.35c-0.18,0.26-0.1,0.63-0.1,0.63c0.06,0.36-0.63,0.3-0.63,0.3
					c-2.4-0.27-2.55-0.03-2.55-0.03c-0.19,0.24-0.58,3.45-0.58,3.45l-0.41,1.71c-0.01,0.54,0.38,1.24,0.38,1.24
					c0.15,0.66,0.01,1.63,0.01,1.63c-0.25,0.72-0.96,1.48-0.96,1.48c-0.47,0.46-0.41,0.71-0.41,0.71c0.87,1.84,1.05,3.08,1.05,3.08
					l0.12,1.03c-0.15,1.29-0.53,1.43-0.53,1.43c-0.17,0.14-0.76,0.33-0.76,0.33c-0.61,0.2-1.45,0.24-1.67,0.24
					c-0.27,0.02-0.91-0.1-0.91-0.1c-0.29-0.05-0.62-0.19-0.62-0.19s-0.43-0.2-0.03-0.23c0.09,0,1.22,0.18,1.51,0.14
					c0.28-0.05,0.97-0.06,2.03-0.51c0.89-0.27,0.31-2.45,0.31-2.45L773.27,530.16z"/>
				<path id="path9363" fill="none" stroke="#005091" stroke-width="1.000000e-06" stroke-miterlimit="3.864" d="M773.27,530.16
					c-0.11-0.21,0.37-0.64,0.37-0.64c0.08-0.1,0.73-0.91,0.73-0.91s0.61-0.54,0.52-1.57c0.11-0.94-0.25-1.08-0.43-1.58
					c-0.03-0.56,0.26-1.66,0.26-1.66c0.14-0.33,0.51-2.39,0.51-2.39s0.14-2.01,0.23-2.01c0.14-0.16,1-0.19,2.58-0.1
					c1.09-0.51,1-1.79,1.1-1.79c0.1,0,0.37,0.12,0.37,0.12l0.2,0.48c0.11,0.2,0.17,0.51,0.17,0.51c-0.43,0.13-0.62,0.35-0.62,0.35
					c-0.18,0.26-0.1,0.63-0.1,0.63c0.06,0.36-0.63,0.3-0.63,0.3c-2.4-0.27-2.55-0.03-2.55-0.03c-0.19,0.24-0.58,3.45-0.58,3.45
					l-0.41,1.71c-0.01,0.54,0.38,1.24,0.38,1.24c0.15,0.66,0.01,1.63,0.01,1.63c-0.25,0.72-0.96,1.48-0.96,1.48
					c-0.47,0.46-0.41,0.71-0.41,0.71c0.87,1.84,1.05,3.08,1.05,3.08l0.12,1.03c-0.15,1.29-0.53,1.43-0.53,1.43
					c-0.17,0.14-0.76,0.33-0.76,0.33c-0.61,0.2-1.45,0.24-1.67,0.24c-0.27,0.02-0.91-0.1-0.91-0.1c-0.29-0.05-0.62-0.19-0.62-0.19
					s-0.43-0.2-0.03-0.23c0.09,0,1.22,0.18,1.51,0.14c0.28-0.05,0.97-0.06,2.03-0.51c0.89-0.27,0.31-2.45,0.31-2.45L773.27,530.16z"
					/>
				<path id="path9365" fill="#005091" d="M776.38,507.18l-1.85-2.33l-2.51-3.75l-1.48-2.98l-1.91-6.8h0.9
					c0.63,5.51,3.76,10.67,3.76,10.67l2.81,3.76l3.32,4.17l2.77,2.65c0,0,3.15,2.39,3.44,2.63c0.22,0.47,0.52-0.74,0.52-0.74
					c0.3-0.59,0.45-0.83,0.45-0.83c0.48-1.53-0.04-1.46-0.04-1.46c-1.06-0.14-1.53-0.92-1.53-0.92c-0.74-1.16-0.34-2.52-0.34-2.52
					c-1.5,0.16-1.94-0.98-1.94-0.98c-0.9-1.7-0.18-3.37-0.18-3.37s0.22-1.1,0.17-1.92c0-0.1-0.04-1.22,0.41-1.47
					c0.42-0.3,0.76-0.36,0.76-0.36s0.26-0.51,0.64-0.56c0.75-0.1,1.24,0.89,1.29,0.94c0.04,0.04,0.89,0.8,0.89,0.8
					s0.47,0.32,1.12,0.16c0.08-0.01,0.9,0.05,0.9,0.05c0.88,0.05,1.18,0.9,1.18,0.9s0.06-2.09,1.49-2.52
					c-0.14-0.19-0.12-0.57-0.12-0.57c-0.28-1.17,0.58-1.74,0.58-1.74c1.86-1.13,3.73-0.05,3.73-0.05c1.11,0.64,1.17,2.2,1.17,2.2
					c0.14,1.28-0.02,2.02-0.02,2.02c-1.03,1.63,0.04,2.78,0.04,2.78c0.35,0.31,0.58,0.93,0.7,1.85c0.14,1.52-0.64,2.06-0.64,2.06
					c-0.52,0.43-0.37,0.9-0.37,0.9l0.16,1.85c0.02,0.92-0.38,1.68-0.38,1.68c-0.12,0.43-0.82,0.74-0.82,0.74
					c-0.51,0.12-1.25,0.1-1.25,0.1c-1.59-0.1-1.48-0.39-1.67-0.32c-0.12,0.04,0.23,0.39,0.13,0.92c-0.47,0.87-0.22,1.38-0.22,1.38
					l0.82,1.15c1.13,2.02,0.94,4.47,0.94,4.47c-0.29,4.26-1.1,6.53-1.1,6.53c-1.18,3.79-2.96,7.16-2.96,7.16
					c-2.3,3.71-7.26,4.38-7.26,4.38c-2.44,0.5-6.64,0.32-6.64,0.32c-2.18-0.17-3.41-0.71-3.41-0.71s-1.92-0.74-2.72-2.02
					c-0.03-0.04-0.28-0.67-0.19-0.71c0.22-0.12,0.19-0.29,0.19-0.29c0.06-0.2-0.19-0.47-0.19-0.47l-0.6-0.92c0,0-0.3-0.49-0.62-1.58
					c0.01-0.01-0.4-1.03-0.4-1.03c-0.18-0.72-0.37-1.38-0.37-1.38c-0.06-0.08-0.79-1.58-0.79-1.58c-0.21-1.13-0.61-1.57-0.61-1.57
					l-2.88-4.47c-0.34-0.63-0.36-1.23-0.28-1.46c0.1-0.3,0.17-0.43,0.46-0.43c0.29,0,0.89-0.07,1.08-0.06
					c0.52,0.01,0.55-0.41,0.55-0.41s0.01-1.32,0.03-1.43c0.01-0.14,0.04-0.8,0.04-0.8s-0.04-0.42,0.52-0.63
					c0.01-0.03,0.1-0.13-0.1-0.44c-0.04-0.09-0.17-0.85-0.15-0.92c0.03-0.07,0.01-0.18,0.21-0.27c0.6-0.25,0.59-0.69,0.59-0.69
					c0.12-0.25-0.5-1.32-0.5-1.32c-0.35-0.55-0.2-2.19-0.18-2.29c0.21-1.34,1.73-1.68,1.73-1.68c1.53-0.07,2.39-0.02,2.39-0.02
					l1.8,0.17c0.54,0.05,0.55-0.89,0.55-0.89l1.4-6.17c0.47,0.7,0.44,0.67,0.44,0.67l-0.26,1.38l-0.78,3.6
					c-0.31,1.71-0.3,1.22-0.3,1.41s0.62,0.25,0.62,0.25c4.17,0.72,4.59,2.02,4.78,2.3c0.67,1.18,1.77,4.62,1.77,4.62
					s0.36,0.44,0.69,0.54c0.43,0.12,0.83-0.13,0.83-0.13c0.19-0.1,0.64-0.62,0.64-0.62c0.29-0.21,0.93-0.41,0.93-0.41
					c0.27-0.06,1.22-0.47,1.33-0.5c0.09-0.03,0.4-0.27,0.48-0.35c0.09-0.06,1.06-0.31,1.06-0.31c-0.19,0.4-0.09,0.46-0.88,1.07
					c-0.12,0.09-2.12,0.74-2.12,0.74c-0.51,0.29-0.8,0.58-0.9,0.67c-0.71,0.59-1.08,0.68-1.08,0.68c-0.72,0.13-1.62-1.04-1.62-1.04
					l-0.3-0.63c0.08-0.78-1.3-3.72-1.3-3.72c-0.2-0.38-0.29-1.08-1.35-1.28c-0.88-0.34-1.42-0.49-2.48-0.68
					c-1.77-0.4-3.02-0.4-3.02-0.4l-2.14-0.04c-3.71-0.1-2.34,2.84-2.34,2.84l0.33,0.81c0.09,0.23,0.26,0.12,0.45,0.11
					c0.55-0.02,0.09,0.47,0.09,0.47c-0.21,0.22-0.5,0.75-0.05,1.16c0.01,0.12-0.22,0.08-0.22,0.08c-0.48-0.31-0.7-0.04-0.7-0.04
					c-0.29,0.44,0.12,0.7,0.12,0.7s0.24,0.26,1.12,0.02c0.21-0.05,0.72,0,0.72,0c0.36,0.07,0.35,0.36,0.35,0.36
					c-0.47,0.34-0.36,0.31-0.58,0.42c-0.12,0.05-0.23-0.64-0.99-0.1c-0.41,0.39-0.48,0.35-0.53,0.35c-0.44,0-0.49-0.13-0.62,0.36
					l-0.04,1.77l0.02,0.52l0.8-0.1c0.48-0.17,0.74-0.1,0.74-0.1c-0.17-0.07,0.82,0.08,0.46,0.93c-0.21-0.52-1.26-0.23-1.26-0.23
					c-0.76,0.55-1.82,0.29-1.82,0.29c-1.35-0.2-0.74,0.82-0.74,0.82l1.29,2.03c0,0,1.41,1.97,2.16,3.24
					c0.17,1.38,0.41,1.91,0.41,1.91c0.56,0.62,0.71,1.15,0.73,1.19c0.75,2.49,0.87,2.98,0.87,2.98c0.1,0.43,0.62,1.25,1.19,1.35
					c-0.49,0.51-0.37,1.56-0.01,1.83c0.27,0.36,1.01,0.86,1.01,0.86c0.18,0.14,2.23,1.11,4.56,1.19c2.24,0.08,4.15-0.03,5.74-0.23
					c1.41-0.17,5.18-1.81,5.18-1.81c1.14-0.58,2.04-1.9,2.04-1.9c0.72-0.76,2.24-4.32,2.24-4.32s1.11-3.79,1.16-3.79
					c0.05,0,0.83-2.58,0.97-6.89c-0.17-2.86-1.55-3.66-1.55-3.67c-0.22-0.43-0.21-0.72-0.21-0.72c-0.03-0.46,0.05-0.76,0.05-0.76
					c0.34-0.74,0.26-1.1,0.26-1.1c0.05-0.1-0.26-0.72-0.26-0.72s-0.11-0.47,0.78-0.32c0.19,0.03,0.81,0.16,0.81,0.16
					c1.36,0.17,2.35,0.08,2.65-1.58c0,0-0.38-1.45-0.24-2.72c1.23-1.37,1.03-2.58,1.03-2.63c0-0.05,0.01-0.17-0.47-0.78
					c-0.03-0.04-0.78-1.29-0.78-1.29c-0.31-1.31,0.14-2.16,0.14-2.16c0.45-0.73,0.22-2.29,0.22-2.29c-0.54-2.84-5.63-2.4-4.2,0.5
					c-1.2,0.84-1.29,1.57-1.29,1.57l-0.63,1.81l-1.05-1.04c-0.41-0.51-1.38-0.51-1.38-0.51l-1.42,0.11c0,0,0.12-0.7-0.59-1.1
					c-0.99-1.28-1.47-0.47-1.47-0.47c-1.08,0.71-0.92,3.3-0.92,3.3c-0.93,1.13-0.07,2.57-0.07,2.57c0.26,1.61,2,1.57,2,1.57
					s0,0.71,0,1.06c0.01,0.59,0.39,1.38,0.39,1.38c0.56,0.65,1.09,0.74,1.09,0.74c0.97,0.05,0.74,1,0.74,1l-0.25,1.1l-0.43,1.6
					c-0.1,0.3-0.62,0.96-0.62,0.96l-0.57-0.38l-3.2-2.45C779.7,511.41,776.38,507.18,776.38,507.18"/>
				<path id="path9367" fill="#005091" d="M759.31,532.53c-0.02-0.03-0.05-0.04-0.07-0.06c-0.58-0.39-0.94-1.18-0.94-1.18
					l-0.11-0.92c0.15-0.36,0.59-0.04,0.59-0.04s0.08,0.6,0.33,0.89c0.16,0.28,0.6,0.66,1.46,0.88c0.39,0.07,0.55,0.14,0.61,0.13
					c0.45-0.09,0.18-0.43,0.18-0.43c-0.09-0.05-0.93-0.24-0.93-0.24c-0.99-0.16-1.17-1.15-1.17-1.15c-0.03-0.86-0.48-1.49-0.48-1.49
					c-0.18,0.87-0.71,1.13-0.71,1.13c-0.13,0.32-0.15,0.63-0.15,0.63c0.02,0.81,0.3,1.47,0.52,1.85H759.31z M762.67,532.53
					c-0.34-0.72-0.71-0.32-0.89-0.01L762.67,532.53z M765.89,532.53c-0.32-0.19-0.54-0.23-0.54-0.23l-1.65-0.43
					c0,0-0.06-0.1-0.04-0.12c0.02-0.01,0.35-0.98,1.63-0.13c0.03,0.02,0.67,0.51,1.18,0.91h1.97c-0.12-0.37-0.27-0.78-0.27-0.78
					c0.28,0.21-1.13-0.75-1.13-0.75l-0.6-0.38c-1.02-0.79-2.13-0.58-2.13-0.58c-0.53,0.01-0.85,0.29-0.85,0.29l-0.19,0.14
					c0.91-0.15,1.65-0.2,2.17,0.07c0.04,0,1.49,0.64,2.34,1.72c-0.02,0.42-0.79,0.14-0.79,0.14l-0.51-0.27
					c-0.41-0.14-1.67-1.25-1.67-1.25c-0.2-0.15-0.49-0.04-0.49-0.04c-0.45,0.58-1.2,0.69-1.2,0.69l-0.55-0.03
					c-0.52-0.17-0.43,0.13-0.43,0.13s0.27,0.38,1.96,0.71c0.41,0.07,0.72,0.13,0.95,0.18L765.89,532.53z"/>
				<path id="path9369" fill="#005091" d="M765.3,536.13c-0.28-0.05-0.51-0.14-0.59-0.21c-0.04,0-0.96-0.52-1.34-1
					c0,0-0.94-1.06-0.99-1.55c0,0-0.01-0.18,0.14-0.24c0,0,0.12-0.03,0.15-0.02c0.1,0.11,0.62,1.2,0.98,1.48
					c0,0,1.34,1.13,2.28,0.67l0.73-0.51c0,0,0.22-0.14,0.37-0.14c0,0,0.47-0.03,0.84,0.09c0,0,0.51,0.07,0.08,0.3l-0.24,0.1
					l-0.23,0.08c-0.21,0.06-0.52,0.3-0.9,0.74c0,0-0.26,0.15-0.46,0.21h1.02c0.33-0.35,0.68-0.55,0.71-0.55
					c0.03,0,0.58-0.17,1.27,0.55h0.92c-0.02-0.02-0.04-0.05-0.07-0.09l-0.75-0.38c0,0-0.58-0.35-0.62-0.71
					c0.05-0.46,0.69-0.01,0.69-0.01c0.22-0.6-0.31-0.9-0.31-0.9c-0.22,0.12-1.05,0.02-1.05,0.02c-0.64-0.17-1.14-0.74-1.14-0.74
					c-0.32-0.4-0.65-0.65-0.9-0.8l-0.84,0.01c0.79,0.18,0.74,0.35,0.81,0.51c0,0,0.07,0.2-0.16,0.13c-0.06-0.01-0.88-0.15-0.94-0.15
					c-0.07,0-0.19-0.02-0.19-0.02s0.56,0.4,2,0.49c0.24,0.4,0.2,0.34-0.07,0.5c0,0-0.58,0.16-0.87,0.07
					c-0.59-0.12-1.03-0.56-1.03-0.56l-0.61-0.52l-0.66-0.39c0,0,0.1,0.3,0.11,0.32c0.39,0.56,1.5,1.18,1.5,1.18l0.65,0.26
					c0.41,0.47-0.56,0.38-0.56,0.38c-1.14,0-1.95-1.29-1.95-1.29s-0.34-0.83-0.39-0.88c-0.01-0.02-0.01-0.03-0.02-0.04l-0.89,0.01
					c-0.09,0.13-0.13,0.24-0.13,0.25c0,0.02-0.23,0.15-0.26,0.15s-0.31,0.07-0.31,0.07c-1.11,0.08-1.54-0.3-1.77-0.48l-0.87,0.01
					c0.12,0.22,0.23,0.35,0.23,0.35c0.38,0.31,0.62,0.52,0.99,0.62c0,0,0.6,0.23,2.11,0.13c0.29,0.23-0.02,0.43-0.02,0.43
					s-0.81,0.26-2.41,0.07c-0.26-0.07-0.38,0.15-0.38,0.15c-0.02,0.05,0.67,0.98,0.71,0.98c0.03,0,1.55,0.39,3.03,0.05
					c0.82-0.19,0.48,0.52,0.4,0.54c-0.06,0.11-0.44,0.21-0.79,0.29L765.3,536.13z M766.47,532.53c0.37,0.28,0.68,0.52,0.68,0.52
					c0.48,0.26,1.48,0.07,1.48,0.07c0.01-0.01-0.08-0.29-0.19-0.59H766.47z M759.65,534.46c0.65,0.03,0.93,0.09,0.93,0.09
					c0.48,0.05,1.17-0.13,1.17-0.13c0.21-0.07,0.65-0.08,0.65-0.08c0.45,0.09,0.16,0.49,0.16,0.49c-0.6,0.43-1.55,0.37-1.55,0.37
					c-1.17,0.03-1.53-0.57-1.53-0.57C759.44,534.59,759.44,534.44,759.65,534.46"/>
				<path id="path9371" fill="#005091" d="M762.31,536.13c-0.34,0.08-0.65,0.13-0.65,0.13c-0.06-0.01,0.77,0.37,2.28-0.1
					c0.28-0.09,0.28,0.3,0.28,0.3c-0.05,0.29-0.77,0.66-0.73,0.61c-0.89,0.25-1.76,0.14-1.76,0.14l1.16,1.36
					c0,0,0.29,0.05,0.32,0.05c0.04,0,0.62,0.12,1.11-0.02c0.46-0.13,1.05-1.14,1.05-1.14l0.29-0.41c0.56-0.89,0.41,0.02,0.41,0.02
					s-0.05,0.23-0.07,0.27c-0.23,0.79-0.59,1.24-0.82,1.57c-0.17,0.26-0.86,0.31-0.86,0.31c-1.38-0.16,0.67,0.45,1.27,0.15
					c0.04-0.02,0.31-0.44,0.31-0.44l0.87-2.27c0.1-0.2,0.24-0.38,0.37-0.53h-1.02c-0.02,0.01-0.04,0.01-0.07,0.01
					c-0.24,0.06-0.51,0.04-0.75,0L762.31,536.13z M769.12,536.13c0.06,0.06,0.11,0.12,0.16,0.18c0.18,0.21,0.23,0.28,0.23,0.28
					c0.39,0.05,0.92,0.05,0.53-0.46H769.12z M763.02,537.73c0.08-0.02,0.26-0.01,0.26-0.01c1.21-0.09,1.3-0.83,1.3-0.83
					c0.03-0.16,0.59-0.75,0.58,0.3c-0.26,1.06-1.47,1.04-1.47,1.04c-0.49-0.01-0.72-0.23-0.72-0.23S762.86,537.8,763.02,537.73"/>
				<path id="path9373" fill="#005091" d="M758.2,520.69c0.3,0,0.48,0.02,0.72,0.05c0.01,0.14,0.07,0.98,0.07,0.98v0.44l0.08,0.37
					l0.22,0.25c0,0,0.14,0.15,0.29,0.15c0.14,0,0.43-0.04,0.43-0.04l0.51-0.04l0.37-0.18l0.67-0.26l0.45-0.63l0.11-0.21l0.31-0.13
					c0.08-0.02,0.36-0.12,0.36-0.12c-0.07,0.08-0.75,1.19-0.85,1.31c0,0-0.2,0.16-0.28,0.14c-0.26,0.13-0.44,0.13-0.44,0.13
					l-0.58,0.26l-0.4,0.22l-0.43,0.07h-0.42l-0.4-0.03l-0.44-0.05l-0.13-0.18l0.15-0.43l0.08-0.31v-0.81l-0.13-0.46L758.2,520.69z"
					/>
				<path id="path9375" fill="none" stroke="#005091" stroke-width="0.102" stroke-miterlimit="3.864" d="M758.2,520.69
					c0.3,0,0.48,0.02,0.72,0.05c0.01,0.14,0.07,0.98,0.07,0.98v0.44l0.08,0.37l0.22,0.25c0,0,0.14,0.15,0.29,0.15
					c0.14,0,0.43-0.04,0.43-0.04l0.51-0.04l0.37-0.18l0.67-0.26l0.45-0.63l0.11-0.21l0.31-0.13c0.08-0.02,0.36-0.12,0.36-0.12
					c-0.07,0.08-0.75,1.19-0.85,1.31c0,0-0.2,0.16-0.28,0.14c-0.26,0.13-0.44,0.13-0.44,0.13l-0.58,0.26l-0.4,0.22l-0.43,0.07h-0.42
					l-0.4-0.03l-0.44-0.05l-0.13-0.18l0.15-0.43l0.08-0.31v-0.81l-0.13-0.46L758.2,520.69z"/>
				<path id="path9377" fill="#005091" d="M759.79,520.1h0.3c0,0,0.16,0.01,0.2,0.01h0.32c0.06,0,0.3,0.1,0.33,0.1
					c0.02,0,0.5,0.31,0.5,0.31l0.11,0.14l-0.07,0.19l-0.11,0.27c0,0-0.17,0.12-0.21,0.14c-0.04,0.01-0.2,0.1-0.2,0.1l-0.17,0.14
					l-0.23,0.15l-0.2,0.15l-0.13,0.1l-0.24,0.08l-0.08,0.01l-0.06,0.03l-0.13-0.03l-0.1-0.06l0.02-0.09l0.05-0.08l0.12-0.05
					l0.14-0.06l0.16-0.06l0.2-0.1l0.18-0.07l0.15-0.12l0.12-0.15l0.08-0.17l-0.23-0.1l-0.17,0.02l-0.09,0.13l-0.09,0.07l-0.1,0.11
					l-0.11,0.06l-0.08,0.02l-0.17-0.01l-0.15-0.07l-0.01-0.14l0.02-0.13l0.02-0.22c0,0,0.13-0.02,0.15-0.02
					c0.03,0,0.18-0.02,0.18-0.02l0.15,0.04c0,0,0.08,0.03,0.1,0.03c0.03,0,0.14,0.03,0.18,0.03c0.03,0,0.17-0.02,0.17-0.02
					l0.18-0.14l-0.03-0.16l-0.19-0.1h-0.12l-0.2-0.05l-0.16-0.03l-0.27-0.02l-0.09-0.08L759.79,520.1z"/>
				<path id="path9379" fill="none" stroke="#005091" stroke-width="0.102" stroke-miterlimit="3.864" d="M759.79,520.1h0.3
					c0,0,0.16,0.01,0.2,0.01h0.32c0.06,0,0.3,0.1,0.33,0.1c0.02,0,0.5,0.31,0.5,0.31l0.11,0.14l-0.07,0.19l-0.11,0.27
					c0,0-0.17,0.12-0.21,0.14c-0.04,0.01-0.2,0.1-0.2,0.1l-0.17,0.14l-0.23,0.15l-0.2,0.15l-0.13,0.1l-0.24,0.08l-0.08,0.01
					l-0.06,0.03l-0.13-0.03l-0.1-0.06l0.02-0.09l0.05-0.08l0.12-0.05l0.14-0.06l0.16-0.06l0.2-0.1l0.18-0.07l0.15-0.12l0.12-0.15
					l0.08-0.17l-0.23-0.1l-0.17,0.02l-0.09,0.13l-0.09,0.07l-0.1,0.11l-0.11,0.06l-0.08,0.02l-0.17-0.01l-0.15-0.07l-0.01-0.14
					l0.02-0.13l0.02-0.22c0,0,0.13-0.02,0.15-0.02c0.03,0,0.18-0.02,0.18-0.02l0.15,0.04c0,0,0.08,0.03,0.1,0.03
					c0.03,0,0.14,0.03,0.18,0.03c0.03,0,0.17-0.02,0.17-0.02l0.18-0.14l-0.03-0.16l-0.19-0.1h-0.12l-0.2-0.05l-0.16-0.03l-0.27-0.02
					l-0.09-0.08L759.79,520.1z"/>
				<path id="path9381" fill="#005091" d="M759.94,519.65l0.03-0.18l0.07-0.13l0.12-0.1l0.1-0.04l0.17-0.02l0.19,0.06l0.11,0.12
					l0.05,0.09l-0.02,0.08c0,0,0.06,0.04-0.09,0.04s-0.24-0.01-0.24-0.01l-0.17,0.03l-0.08,0.04l-0.1,0.03h-0.11L759.94,519.65z"/>
				<path id="path9383" fill="none" stroke="#005091" stroke-width="0.102" stroke-miterlimit="3.864" d="M759.94,519.65l0.03-0.18
					l0.07-0.13l0.12-0.1l0.1-0.04l0.17-0.02l0.19,0.06l0.11,0.12l0.05,0.09l-0.02,0.08c0,0,0.06,0.04-0.09,0.04
					s-0.24-0.01-0.24-0.01l-0.17,0.03l-0.08,0.04l-0.1,0.03h-0.11L759.94,519.65z"/>
				<path id="path9385" fill="#005091" d="M784.85,516.8l-0.33-0.26l-0.29-0.22l-0.44-0.29l-0.59-0.4l-0.55-0.44l-0.58-0.51
					l-0.66-0.52l-0.58-0.4l-0.52-0.44l-0.36-0.32c-0.15-0.06-0.33-0.08-0.33-0.08c-0.08,0.01-0.06,0.14-0.06,0.14
					c0.11,0.1,0.22,0.18,0.22,0.18l0.35,0.27l0.44,0.29l0.44,0.33l0.51,0.4l0.4,0.33l0.48,0.4l0.4,0.37l0.55,0.47l0.69,0.7
					l0.26,0.36l0.22,0.15h0.25l0.18-0.11L784.85,516.8z"/>
				<path id="path9387" fill="none" stroke="#005091" stroke-width="0.102" stroke-miterlimit="3.864" d="M784.85,516.8l-0.33-0.26
					l-0.29-0.22l-0.44-0.29l-0.59-0.4l-0.55-0.44l-0.58-0.51l-0.66-0.52l-0.58-0.4l-0.52-0.44l-0.36-0.32
					c-0.15-0.06-0.33-0.08-0.33-0.08c-0.08,0.01-0.06,0.14-0.06,0.14c0.11,0.1,0.22,0.18,0.22,0.18l0.35,0.27l0.44,0.29l0.44,0.33
					l0.51,0.4l0.4,0.33l0.48,0.4l0.4,0.37l0.55,0.47l0.69,0.7l0.26,0.36l0.22,0.15h0.25l0.18-0.11L784.85,516.8z"/>
				<path id="path9389" fill="#005091" d="M781.6,513.65c0.07-0.06,0.03-0.14,0.03-0.14l-0.22-0.29l-1.47-1.18l-0.36-0.29l-0.4-0.33
					l-0.33-0.29l-0.22-0.18c-0.06-0.05-0.12-0.05-0.18,0c0,0.1,0.15,0.22,0.15,0.22c0.06,0.07,0.54,0.4,0.54,0.4l0.48,0.4l0.47,0.37
					l0.63,0.47l0.33,0.26l0.25,0.25l0.11,0.13C781.53,513.71,781.6,513.65,781.6,513.65"/>
				<path id="path9391" fill="none" stroke="#005091" stroke-width="0.102" stroke-miterlimit="3.864" d="M781.6,513.65
					c0.07-0.06,0.03-0.14,0.03-0.14l-0.22-0.29l-1.47-1.18l-0.36-0.29l-0.4-0.33l-0.33-0.29l-0.22-0.18c-0.06-0.05-0.12-0.05-0.18,0
					c0,0.1,0.15,0.22,0.15,0.22c0.06,0.07,0.54,0.4,0.54,0.4l0.48,0.4l0.47,0.37l0.63,0.47l0.33,0.26l0.25,0.25l0.11,0.13
					C781.53,513.71,781.6,513.65,781.6,513.65z"/>
				<path id="path9393" fill="#005091" d="M783.7,517.39l-0.08-0.1l-0.09-0.11l-0.29-0.26l-0.31-0.25l-0.36-0.3l-0.23-0.2l-0.3-0.28
					l-0.32-0.28l-0.26-0.26l-0.19-0.16l-0.19-0.17l-0.21-0.19l-0.15-0.11l-0.13-0.06l-0.15,0.02l-0.03,0.11l0.11,0.14l0.27,0.21
					l0.26,0.21l0.32,0.29l0.33,0.32l0.31,0.33l0.33,0.33l0.34,0.31l0.32,0.33l0.25,0.32l0.11,0.02h0.14l0.09-0.05L783.7,517.39z"/>
				<path id="path9395" fill="none" stroke="#005091" stroke-width="0.102" stroke-miterlimit="3.864" d="M783.7,517.39l-0.08-0.1
					l-0.09-0.11l-0.29-0.26l-0.31-0.25l-0.36-0.3l-0.23-0.2l-0.3-0.28l-0.32-0.28l-0.26-0.26l-0.19-0.16l-0.19-0.17l-0.21-0.19
					l-0.15-0.11l-0.13-0.06l-0.15,0.02l-0.03,0.11l0.11,0.14l0.27,0.21l0.26,0.21l0.32,0.29l0.33,0.32l0.31,0.33l0.33,0.33
					l0.34,0.31l0.32,0.33l0.25,0.32l0.11,0.02h0.14l0.09-0.05L783.7,517.39z"/>
				<path id="path9397" fill="#005091" d="M782.88,517.76l-0.17-0.1l-0.12-0.16l-0.16-0.16l-0.12-0.13l-0.2-0.21l-0.13-0.13
					l-0.14-0.16l-0.18-0.2l-0.12-0.12l-0.07-0.07l-0.1-0.09c-0.13-0.09-0.21-0.02-0.21-0.02c-0.03,0.12,0.1,0.23,0.1,0.23l0.1,0.14
					l0.14,0.16l0.13,0.13l0.2,0.22l0.17,0.2l0.13,0.15l0.1,0.12l0.13,0.12l0.01,0.1l-0.03,0.11c0,0,0.11,0.03,0.12,0.03
					c0.02,0,0.14-0.02,0.14-0.02l0.07-0.02l0.09-0.02L782.88,517.76z"/>
				<path id="path9399" fill="none" stroke="#005091" stroke-width="0.102" stroke-miterlimit="3.864" d="M782.88,517.76l-0.17-0.1
					l-0.12-0.16l-0.16-0.16l-0.12-0.13l-0.2-0.21l-0.13-0.13l-0.14-0.16l-0.18-0.2l-0.12-0.12l-0.07-0.07l-0.1-0.09
					c-0.13-0.09-0.21-0.02-0.21-0.02c-0.03,0.12,0.1,0.23,0.1,0.23l0.1,0.14l0.14,0.16l0.13,0.13l0.2,0.22l0.17,0.2l0.13,0.15
					l0.1,0.12l0.13,0.12l0.01,0.1l-0.03,0.11c0,0,0.11,0.03,0.12,0.03c0.02,0,0.14-0.02,0.14-0.02l0.07-0.02l0.09-0.02
					L782.88,517.76z"/>
				<path id="path9401" fill="#005091" d="M779.41,518.16l-0.28-0.12l-0.42-0.67l-0.82-1.45l-1.33-1.88
					c-0.49-0.82-1.02-1.03-1.02-1.03c-0.3-0.06-1.13-0.27-1.13-0.27l0.86,0.63c0.51,0.27,1.26,1.17,1.26,1.17l0.61,0.76l0.49,0.68
					l0.37,0.58l0.44,0.71c0.09,0.07,0.4,1.39,0.4,1.39l0.19-0.03l0.16-0.14l0.13-0.15L779.41,518.16z"/>
				<path id="path9403" fill="none" stroke="#005091" stroke-width="0.102" stroke-miterlimit="3.864" d="M779.41,518.16l-0.28-0.12
					l-0.42-0.67l-0.82-1.45l-1.33-1.88c-0.49-0.82-1.02-1.03-1.02-1.03c-0.3-0.06-1.13-0.27-1.13-0.27l0.86,0.63
					c0.51,0.27,1.26,1.17,1.26,1.17l0.61,0.76l0.49,0.68l0.37,0.58l0.44,0.71c0.09,0.07,0.4,1.39,0.4,1.39l0.19-0.03l0.16-0.14
					l0.13-0.15L779.41,518.16z"/>
				<path id="path9405" fill="#005091" d="M778.79,518.85l-0.14-0.21l-0.4-0.53l-0.28-0.41l-0.39-0.59l-0.35-0.44l-0.34-0.39
					l-0.34-0.44l-0.41-0.46l-0.42-0.45l-0.37-0.39l-0.39-0.38l-0.38-0.36l-0.33-0.32l-0.81-0.84l-0.5-0.07l0.64,0.62l0.34,0.33
					l0.58,0.49l0.34,0.32l0.39,0.35l0.24,0.25l0.19,0.21l0.31,0.34l0.32,0.39l0.27,0.38l0.48,0.6l0.29,0.35l0.5,0.76l0.52,0.88
					l0.18,0.36l0.27-0.17L778.79,518.85z"/>
				<path id="path9407" fill="none" stroke="#005091" stroke-width="0.102" stroke-miterlimit="3.864" d="M778.79,518.85l-0.14-0.21
					l-0.4-0.53l-0.28-0.41l-0.39-0.59l-0.35-0.44l-0.34-0.39l-0.34-0.44l-0.41-0.46l-0.42-0.45l-0.37-0.39l-0.39-0.38l-0.38-0.36
					l-0.33-0.32l-0.81-0.84l-0.5-0.07l0.64,0.62l0.34,0.33l0.58,0.49l0.34,0.32l0.39,0.35l0.24,0.25l0.19,0.21l0.31,0.34l0.32,0.39
					l0.27,0.38l0.48,0.6l0.29,0.35l0.5,0.76l0.52,0.88l0.18,0.36l0.27-0.17L778.79,518.85z"/>
				<path id="path9409" fill="#005091" d="M778.17,519.54l-0.2-0.29l-0.18-0.32l-0.43-0.54l-0.51-0.62l-0.79-1.01l-0.51-0.59
					l-0.34-0.41l-0.73-0.83l-0.32-0.33l-0.7-0.69l-0.35-0.35l-0.56-0.51c-0.88-0.71-1.15-0.73-1.15-0.73
					c-0.33-0.04-0.64-0.04-0.64-0.04s0.36,0.25,0.38,0.25c0.02,0,0.27,0.12,0.27,0.12l0.29,0.17l0.34,0.23l0.43,0.33l0.34,0.32
					l0.77,0.74l0.49,0.49l0.43,0.46l0.6,0.67l0.59,0.67l0.45,0.56l0.82,1.06l0.81,1.19c0,0,0.06,0.13,0.08,0.15
					C778.23,519.98,778.17,519.54,778.17,519.54"/>
				<path id="path9411" fill="none" stroke="#005091" stroke-width="0.102" stroke-miterlimit="3.864" d="M778.17,519.54l-0.2-0.29
					l-0.18-0.32l-0.43-0.54l-0.51-0.62l-0.79-1.01l-0.51-0.59l-0.34-0.41l-0.73-0.83l-0.32-0.33l-0.7-0.69l-0.35-0.35l-0.56-0.51
					c-0.88-0.71-1.15-0.73-1.15-0.73c-0.33-0.04-0.64-0.04-0.64-0.04s0.36,0.25,0.38,0.25c0.02,0,0.27,0.12,0.27,0.12l0.29,0.17
					l0.34,0.23l0.43,0.33l0.34,0.32l0.77,0.74l0.49,0.49l0.43,0.46l0.6,0.67l0.59,0.67l0.45,0.56l0.82,1.06l0.81,1.19
					c0,0,0.06,0.13,0.08,0.15C778.23,519.98,778.17,519.54,778.17,519.54z"/>
				<path id="path9413" fill="#005091" d="M771.57,513.81l-0.27-0.18l-0.36-0.25l-0.43-0.21l-0.31-0.15l-0.27-0.11l-0.36-0.14
					l-0.5-0.12l-0.66-0.06l-0.5-0.03c0,0-0.71-0.17-0.02-0.28c0.03-0.01,0.41,0.02,0.41,0.02l0.53,0.05
					c0.53,0.03,1.14,0.29,1.16,0.29c0.02,0,0.72,0.29,0.72,0.29l1.16,0.77l0.9,0.81C772.95,514.84,771.57,513.81,771.57,513.81"/>
				<path id="path9415" fill="none" stroke="#005091" stroke-width="0.102" stroke-miterlimit="3.864" d="M771.57,513.81l-0.27-0.18
					l-0.36-0.25l-0.43-0.21l-0.31-0.15l-0.27-0.11l-0.36-0.14l-0.5-0.12l-0.66-0.06l-0.5-0.03c0,0-0.71-0.17-0.02-0.28
					c0.03-0.01,0.41,0.02,0.41,0.02l0.53,0.05c0.53,0.03,1.14,0.29,1.16,0.29c0.02,0,0.72,0.29,0.72,0.29l1.16,0.77l0.9,0.81
					C772.95,514.84,771.57,513.81,771.57,513.81z"/>
				<path id="path9417" fill="#005091" d="M764.48,506.8c-1.36-0.3-1.7-0.25-1.7-0.25l-4.28-0.19c-0.68,0.02-1.03,0.14-1.03,0.14
					l1.03,0.13c1.3-0.03,5.46,0.53,5.46,0.53l1.75,0.24L764.48,506.8z"/>
				<path id="path9419" fill="none" stroke="#005091" stroke-width="0.102" stroke-miterlimit="3.864" d="M764.48,506.8
					c-1.36-0.3-1.7-0.25-1.7-0.25l-4.28-0.19c-0.68,0.02-1.03,0.14-1.03,0.14l1.03,0.13c1.3-0.03,5.46,0.53,5.46,0.53l1.75,0.24
					L764.48,506.8z"/>
				<path id="path9421" fill="#005091" d="M766.15,508.14l-1.84-0.38l-2.43-0.31c0,0-1.29-0.05-1.33-0.06
					c-0.13-0.03-0.34,0.05-0.34,0.05c-0.01,0.1,0.03,0.11,0.03,0.11s0.16,0.03,0.21,0.03c0.06,0,1.41,0.12,1.41,0.12l2.86,0.4
					l1.89,0.44l0.83,0.21L766.15,508.14z"/>
				<path id="path9423" fill="none" stroke="#005091" stroke-width="0.102" stroke-miterlimit="3.864" d="M766.15,508.14l-1.84-0.38
					l-2.43-0.31c0,0-1.29-0.05-1.33-0.06c-0.13-0.03-0.34,0.05-0.34,0.05c-0.01,0.1,0.03,0.11,0.03,0.11s0.16,0.03,0.21,0.03
					c0.06,0,1.41,0.12,1.41,0.12l2.86,0.4l1.89,0.44l0.83,0.21L766.15,508.14z"/>
				<path id="path9425" fill="#005091" d="M769.43,509.61l-1.79-0.36l-1.81-0.35l-2.37-0.36c-0.47-0.07-0.97,0-0.97,0
					c-0.18-0.03-0.13,0.06-0.13,0.06c0,0.1,0.19,0.2,0.26,0.2c0.06,0,0.32,0.03,0.32,0.03c0.33-0.01,1.85,0.23,1.85,0.23l1.79,0.32
					c0,0,1.36,0.32,1.52,0.36c0.16,0.03,1.52,0.35,1.52,0.35L769.43,509.61z"/>
				<path id="path9427" fill="none" stroke="#005091" stroke-width="0.102" stroke-miterlimit="3.864" d="M769.43,509.61l-1.79-0.36
					l-1.81-0.35l-2.37-0.36c-0.47-0.07-0.97,0-0.97,0c-0.18-0.03-0.13,0.06-0.13,0.06c0,0.1,0.19,0.2,0.26,0.2
					c0.06,0,0.32,0.03,0.32,0.03c0.33-0.01,1.85,0.23,1.85,0.23l1.79,0.32c0,0,1.36,0.32,1.52,0.36c0.16,0.03,1.52,0.35,1.52,0.35
					L769.43,509.61z"/>
				<path id="path9429" fill="#005091" d="M766.2,516.83l-0.23,0.08h-0.26l-0.19-0.08l-0.19-0.1l-0.28-0.17l-0.29-0.16l-0.39-0.25
					l-0.21-0.12l-0.1-0.06l-0.25-0.09l-0.02,0.07l0.08,0.08l0.17,0.12l0.16,0.13l0.39,0.3l0.35,0.23l0.33,0.19l0.23,0.14l0.18,0.12
					l0.22,0.14l0.2-0.03l0.12-0.31L766.2,516.83z"/>
				<path id="path9431" fill="none" stroke="#005091" stroke-width="0.102" stroke-miterlimit="3.864" d="M766.2,516.83l-0.23,0.08
					h-0.26l-0.19-0.08l-0.19-0.1l-0.28-0.17l-0.29-0.16l-0.39-0.25l-0.21-0.12l-0.1-0.06l-0.25-0.09l-0.02,0.07l0.08,0.08l0.17,0.12
					l0.16,0.13l0.39,0.3l0.35,0.23l0.33,0.19l0.23,0.14l0.18,0.12l0.22,0.14l0.2-0.03l0.12-0.31L766.2,516.83z"/>
				<path id="path9433" fill="#005091" d="M766.03,517.86c-0.04,0.02-0.26,0.06-0.26,0.06l-0.17-0.1l-0.31-0.21l-0.16-0.1
					l-0.33-0.19l-0.21-0.12l-0.16-0.18l-0.17-0.09l-0.24-0.08l-0.17-0.06c-0.03-0.04-0.14,0-0.14,0s-0.02,0.08,0.06,0.12
					c0.08,0.04,0.21,0.11,0.27,0.15c0.06,0.04,0.47,0.39,0.47,0.39l0.56,0.41l0.47,0.29c0,0,0.33,0.16,0.37,0.16
					s0.12,0.21,0.12,0.21l0.19,0.06l0.31-0.25c0,0-0.06-0.14-0.08-0.2c-0.03-0.06-0.13-0.23-0.13-0.23S766.08,517.84,766.03,517.86"
					/>
				<path id="path9435" fill="none" stroke="#005091" stroke-width="0.102" stroke-miterlimit="3.864" d="M766.03,517.86
					c-0.04,0.02-0.26,0.06-0.26,0.06l-0.17-0.1l-0.31-0.21l-0.16-0.1l-0.33-0.19l-0.21-0.12l-0.16-0.18l-0.17-0.09l-0.24-0.08
					l-0.17-0.06c-0.03-0.04-0.14,0-0.14,0s-0.02,0.08,0.06,0.12c0.08,0.04,0.21,0.11,0.27,0.15c0.06,0.04,0.47,0.39,0.47,0.39
					l0.56,0.41l0.47,0.29c0,0,0.33,0.16,0.37,0.16s0.12,0.21,0.12,0.21l0.19,0.06l0.31-0.25c0,0-0.06-0.14-0.08-0.2
					c-0.03-0.06-0.13-0.23-0.13-0.23S766.08,517.84,766.03,517.86z"/>
				<path id="path9437" fill="#005091" d="M765.58,519.55l-0.2-0.12l-0.29-0.15l-0.41-0.25l-0.31-0.2l-0.27-0.19
					c0,0,0-0.02-0.15-0.08c-0.2-0.08-0.29-0.11-0.29-0.11c-0.05-0.02-0.12,0.11-0.08,0.15c0.05,0.04,0.21,0.19,0.21,0.19l0.27,0.12
					l0.35,0.29l0.27,0.2l0.26,0.15l0.23,0.16l0.18,0.11l0.15,0.06l0.12,0.16l0.02,0.27l-0.18,0.02l-0.19-0.06l-0.35-0.25l-0.47-0.29
					l-0.25-0.18l-0.18-0.15c0,0-0.19-0.1-0.25-0.1c-0.06,0-0.17-0.01-0.21-0.02c-0.14-0.01-0.14,0.1-0.14,0.1
					c0.04,0.11,0.21,0.19,0.21,0.19l0.63,0.33l0.31,0.25l0.26,0.17l0.26,0.18l0.24,0.06l0.19,0.04l0.1-0.02l0.17-0.35v-0.33
					L765.58,519.55z"/>
				<path id="path9439" fill="none" stroke="#005091" stroke-width="0.102" stroke-miterlimit="3.864" d="M765.58,519.55l-0.2-0.12
					l-0.29-0.15l-0.41-0.25l-0.31-0.2l-0.27-0.19c0,0,0-0.02-0.15-0.08c-0.2-0.08-0.29-0.11-0.29-0.11
					c-0.05-0.02-0.12,0.11-0.08,0.15c0.05,0.04,0.21,0.19,0.21,0.19l0.27,0.12l0.35,0.29l0.27,0.2l0.26,0.15l0.23,0.16l0.18,0.11
					l0.15,0.06l0.12,0.16l0.02,0.27l-0.18,0.02l-0.19-0.06l-0.35-0.25l-0.47-0.29l-0.25-0.18l-0.18-0.15c0,0-0.19-0.1-0.25-0.1
					c-0.06,0-0.17-0.01-0.21-0.02c-0.14-0.01-0.14,0.1-0.14,0.1c0.04,0.11,0.21,0.19,0.21,0.19l0.63,0.33l0.31,0.25l0.26,0.17
					l0.26,0.18l0.24,0.06l0.19,0.04l0.1-0.02l0.17-0.35v-0.33L765.58,519.55z"/>
				<path id="path9441" fill="#005091" d="M765.58,521.41l-0.33-0.21l-0.35-0.19l-0.33-0.16l-0.2-0.17l-0.29-0.16l-0.23-0.13
					l-0.18-0.08l-0.21-0.08c0,0-0.08,0.02-0.06,0.06c0.02,0.04,0.08,0.14,0.08,0.14s0.25,0.11,0.27,0.15
					c0.02,0.04,0.29,0.14,0.31,0.18c0.02,0.04,0.2,0.21,0.2,0.21s0.15,0.08,0.25,0.12c0.1,0.04,0.31,0.21,0.31,0.21
					s0.25,0.11,0.27,0.15c0.02,0.04,0.04,0.08,0.1,0.15c0.06,0.06,0.16,0.12,0.16,0.12s0.13,0.04,0.17-0.02s0.1-0.12,0.1-0.12
					L765.58,521.41z"/>
				<path id="path9443" fill="none" stroke="#005091" stroke-width="0.102" stroke-miterlimit="3.864" d="M765.58,521.41l-0.33-0.21
					l-0.35-0.19l-0.33-0.16l-0.2-0.17l-0.29-0.16l-0.23-0.13l-0.18-0.08l-0.21-0.08c0,0-0.08,0.02-0.06,0.06
					c0.02,0.04,0.08,0.14,0.08,0.14s0.25,0.11,0.27,0.15c0.02,0.04,0.29,0.14,0.31,0.18c0.02,0.04,0.2,0.21,0.2,0.21
					s0.15,0.08,0.25,0.12c0.1,0.04,0.31,0.21,0.31,0.21s0.25,0.11,0.27,0.15c0.02,0.04,0.04,0.08,0.1,0.15
					c0.06,0.06,0.16,0.12,0.16,0.12s0.13,0.04,0.17-0.02s0.1-0.12,0.1-0.12L765.58,521.41z"/>
				<path id="path9445" fill="#005091" d="M775.37,521.86l-0.2-0.1l-0.26-0.14l-0.22-0.12l-0.19-0.1l-0.24-0.15l-0.23-0.08
					l-0.28-0.12l-0.22-0.06l-0.24-0.08c0,0-0.1-0.08-0.15,0c-0.04,0.08-0.04,0.12-0.04,0.12s0.09,0.06,0.15,0.08
					s0.36,0.18,0.36,0.18l0.47,0.25l0.38,0.22l0.31,0.16l0.22,0.14l0.2,0.09l0.18-0.09V521.86z"/>
				<path id="path9447" fill="none" stroke="#005091" stroke-width="0.102" stroke-miterlimit="3.864" d="M775.37,521.86l-0.2-0.1
					l-0.26-0.14l-0.22-0.12l-0.19-0.1l-0.24-0.15l-0.23-0.08l-0.28-0.12l-0.22-0.06l-0.24-0.08c0,0-0.1-0.08-0.15,0
					c-0.04,0.08-0.04,0.12-0.04,0.12s0.09,0.06,0.15,0.08s0.36,0.18,0.36,0.18l0.47,0.25l0.38,0.22l0.31,0.16l0.22,0.14l0.2,0.09
					l0.18-0.09V521.86z"/>
				<path id="path9449" fill="#005091" d="M775.13,522.73l-0.18-0.04l-0.31-0.2l-0.3-0.18l-0.34-0.27l-0.29-0.14l-0.67-0.34
					l-0.54-0.23l-0.21-0.14l-0.3-0.08l-0.16,0.06l0.16,0.18l0.26,0.13l0.71,0.36l0.45,0.25l0.75,0.46l0.65,0.43l0.18,0.12l0.12-0.1
					L775.13,522.73z"/>
				<path id="path9451" fill="none" stroke="#005091" stroke-width="0.102" stroke-miterlimit="3.864" d="M775.13,522.73l-0.18-0.04
					l-0.31-0.2l-0.3-0.18l-0.34-0.27l-0.29-0.14l-0.67-0.34l-0.54-0.23l-0.21-0.14l-0.3-0.08l-0.16,0.06l0.16,0.18l0.26,0.13
					l0.71,0.36l0.45,0.25l0.75,0.46l0.65,0.43l0.18,0.12l0.12-0.1L775.13,522.73z"/>
				<path id="path9453" fill="#005091" d="M775.03,523.46h-0.26l-0.19-0.16l-0.22-0.2l-0.2-0.14l-0.31-0.19l-0.42-0.24l-0.45-0.22
					l-0.42-0.18l-0.55-0.25l-0.4-0.18l-0.41-0.16l-0.18-0.04l-0.1,0.1l0.06,0.14l0.32,0.14l0.41,0.14l0.77,0.39l0.77,0.38l0.56,0.37
					l0.39,0.22l0.18,0.12l0.18,0.11l0.25,0.18l0.2,0.04L775.03,523.46z"/>
				<path id="path9455" fill="none" stroke="#005091" stroke-width="0.102" stroke-miterlimit="3.864" d="M775.03,523.46h-0.26
					l-0.19-0.16l-0.22-0.2l-0.2-0.14l-0.31-0.19l-0.42-0.24l-0.45-0.22l-0.42-0.18l-0.55-0.25l-0.4-0.18l-0.41-0.16l-0.18-0.04
					l-0.1,0.1l0.06,0.14l0.32,0.14l0.41,0.14l0.77,0.39l0.77,0.38l0.56,0.37l0.39,0.22l0.18,0.12l0.18,0.11l0.25,0.18l0.2,0.04
					L775.03,523.46z"/>
				<path id="path9457" fill="#005091" d="M774.87,524.33l-0.35-0.08l-0.22-0.1l-0.39-0.22l-0.46-0.29l-0.55-0.32l-0.59-0.28
					l-0.4-0.23l-0.53-0.26l-0.34-0.16l-0.45-0.16l-0.28-0.12l-0.29-0.09l-0.3-0.01l-0.24-0.03l-0.2,0.04l0.06,0.13
					c0,0,0.14,0.06,0.24,0.08s0.59,0.12,0.59,0.12l0.75,0.24l0.58,0.29l0.83,0.48l0.88,0.49l0.46,0.24l0.45,0.26
					c0,0,0.2,0.13,0.24,0.15c0.04,0.02,0.12,0.1,0.14,0.14c0.02,0.04,0.08,0.26,0.08,0.26l0.15-0.1l0.1-0.2L774.87,524.33z"/>
				<path id="path9459" fill="none" stroke="#005091" stroke-width="0.102" stroke-miterlimit="3.864" d="M774.87,524.33l-0.35-0.08
					l-0.22-0.1l-0.39-0.22l-0.46-0.29l-0.55-0.32l-0.59-0.28l-0.4-0.23l-0.53-0.26l-0.34-0.16l-0.45-0.16l-0.28-0.12l-0.29-0.09
					l-0.3-0.01l-0.24-0.03l-0.2,0.04l0.06,0.13c0,0,0.14,0.06,0.24,0.08s0.59,0.12,0.59,0.12l0.75,0.24l0.58,0.29l0.83,0.48
					l0.88,0.49l0.46,0.24l0.45,0.26c0,0,0.2,0.13,0.24,0.15c0.04,0.02,0.12,0.1,0.14,0.14c0.02,0.04,0.08,0.26,0.08,0.26l0.15-0.1
					l0.1-0.2L774.87,524.33z"/>
				<path id="path9461" fill="#005091" d="M765.89,518.71l-0.25-0.05l-0.18-0.12l-0.33-0.19l-0.25-0.16l-0.25-0.17l-0.24-0.12
					l-0.11-0.1l-0.2-0.17l-0.17-0.12c0,0-0.16-0.06-0.2-0.06c-0.04,0-0.15,0.02-0.15,0.02s0,0.12,0.04,0.14
					c0.05,0.02,0.23,0.17,0.23,0.17l0.27,0.16l0.22,0.19l0.19,0.14l0.25,0.17l0.26,0.14l0.21,0.17l0.12,0.08l0.13,0.08l0.12,0.1
					l0.23-0.06l0.12-0.08L765.89,518.71z"/>
				<path id="path9463" fill="none" stroke="#005091" stroke-width="0.102" stroke-miterlimit="3.864" d="M765.89,518.71l-0.25-0.05
					l-0.18-0.12l-0.33-0.19l-0.25-0.16l-0.25-0.17l-0.24-0.12l-0.11-0.1l-0.2-0.17l-0.17-0.12c0,0-0.16-0.06-0.2-0.06
					c-0.04,0-0.15,0.02-0.15,0.02s0,0.12,0.04,0.14c0.05,0.02,0.23,0.17,0.23,0.17l0.27,0.16l0.22,0.19l0.19,0.14l0.25,0.17
					l0.26,0.14l0.21,0.17l0.12,0.08l0.13,0.08l0.12,0.1l0.23-0.06l0.12-0.08L765.89,518.71z"/>
				<path id="path9465" fill="#005091" d="M765.89,518.71l-0.25-0.05l-0.18-0.12l-0.33-0.19l-0.25-0.16l-0.25-0.17l-0.24-0.12
					l-0.11-0.1l-0.2-0.17l-0.17-0.12c0,0-0.17-0.07-0.21-0.08c-0.14-0.02-0.14,0.16-0.1,0.18c0.05,0.02,0.23,0.17,0.23,0.17
					l0.27,0.16l0.22,0.19l0.19,0.14l0.25,0.17l0.26,0.14l0.21,0.17l0.12,0.08l0.13,0.08l0.12,0.1l0.23-0.06l0.12-0.08L765.89,518.71
					z"/>
				<path id="path9467" fill="none" stroke="#005091" stroke-width="0.102" stroke-miterlimit="3.864" d="M765.89,518.71l-0.25-0.05
					l-0.18-0.12l-0.33-0.19l-0.25-0.16l-0.25-0.17l-0.24-0.12l-0.11-0.1l-0.2-0.17l-0.17-0.12c0,0-0.17-0.07-0.21-0.08
					c-0.14-0.02-0.14,0.16-0.1,0.18c0.05,0.02,0.23,0.17,0.23,0.17l0.27,0.16l0.22,0.19l0.19,0.14l0.25,0.17l0.26,0.14l0.21,0.17
					l0.12,0.08l0.13,0.08l0.12,0.1l0.23-0.06l0.12-0.08L765.89,518.71z"/>
				<path id="path9469" fill="#005091" d="M764.45,502.93l0.1,0.16l0.11,0.2l0.13,0.11l0.11,0.11l0.08,0.22
					c0.03,0.02-0.19-0.07-0.19-0.07l-0.2-0.09l-0.13-0.09l-0.15-0.1l-0.1-0.54L764.45,502.93z"/>
				<path id="path9471" fill="none" stroke="#005091" stroke-width="1.000000e-06" stroke-miterlimit="3.864" d="M764.45,502.93
					l0.1,0.16l0.11,0.2l0.13,0.11l0.11,0.11l0.08,0.22c0.03,0.02-0.19-0.07-0.19-0.07l-0.2-0.09l-0.13-0.09l-0.15-0.1l-0.1-0.54
					L764.45,502.93z"/>
				<path id="path9473" fill="#005091" d="M743.88,493.17c0.3,0.23,0.37,0.68,0.14,0.98c-0.24,0.32-0.68,0.37-0.99,0.14
					c-0.31-0.24-0.37-0.67-0.13-0.98C743.13,493,743.57,492.93,743.88,493.17"/>
				<path id="path9475" fill="#005091" d="M750.23,484.7l-0.33,0.28l-0.52-0.62l-2.43,2.04l5.69,1.44l0.17,0.2l-3.24,2.72l0.16,0.18
					l-0.33,0.27l-0.86-1.02l0.33-0.27l0.4,0.47l2.28-1.91l-5.68-1.47l-0.16-0.19l3.69-3.1L750.23,484.7z"/>
				<path id="path9477" fill="#005091" d="M760.4,483.41l-2.09,1.16l-0.23-0.41l0.78-0.44l-1.45-2.6c-0.46-0.84-1.36-1.14-2.14-0.7
					c-0.76,0.42-0.95,1.28-0.47,2.14l1.45,2.61l0.79-0.44l0.23,0.42l-2.37,1.31l-0.23-0.42l0.79-0.43l-1.57-2.84
					c-0.54-0.98-0.13-2.14,0.99-2.76c1.19-0.66,2.43-0.34,3.05,0.78l1.46,2.64l0.78-0.43L760.4,483.41z"/>
				<path id="path9479" fill="#005091" d="M766.09,475.87c1.1-0.27,1.86,0.08,2.08,0.96c0.22,0.87-0.29,1.55-1.39,1.86
					c0.84-0.21,1.58,0.13,1.75,0.83c0.2,0.81-0.29,1.48-1.27,1.73l-2.82,0.7l-0.11-0.43l0.87-0.21l-1.12-4.49l-0.86,0.22l-0.11-0.43
					L766.09,475.87z M765.49,478.72l0.83-0.21c0.76-0.19,1.05-0.65,0.87-1.37c-0.16-0.66-0.64-0.89-1.4-0.71l-0.82,0.21
					L765.49,478.72z M766.07,481.05l0.82-0.2c0.56-0.14,0.78-0.54,0.64-1.12c-0.15-0.59-0.61-0.88-1.19-0.73l-0.74,0.18
					L766.07,481.05z"/>
				<path id="path9481" fill="#005091" d="M776.41,475.87l-0.44,0.02l-0.03-0.63l-2.02,0.07l0.08,2.08l1.52-0.05l-0.02-0.6
					l0.44-0.01l0.06,1.65h-0.45l-0.02-0.57l-1.52,0.05l0.07,1.99l1.95-0.07l-0.02-0.61l0.43-0.02l0.05,1.33l-0.45,0.02v-0.24
					l-3.74,0.13l-0.01-0.44l0.89-0.03l-0.16-4.62l-0.9,0.03l-0.01-0.44l4.26-0.15L776.41,475.87z"/>
				<path id="path9483" fill="#005091" d="M785.98,476.3l-0.33-0.05c-0.25-0.05-0.5,0.06-0.75,0.32l-1.34,1.43
					c0.75,0.26,1.14,0.91,1.02,1.7c-0.15,0.96-0.85,1.36-1.99,1.18l-2.77-0.44l0.07-0.47l0.89,0.14l0.71-4.52l-0.88-0.14l0.07-0.44
					l2.66,0.42l-0.07,0.44l-0.88-0.14l-0.31,1.95l0.57,0.09l1.56-1.69c0.37-0.4,0.47-0.44,0.98-0.35l0.86,0.13L785.98,476.3z
					 M781.67,480.26l0.82,0.12c0.61,0.1,1-0.21,1.1-0.87c0.11-0.65-0.19-1.14-0.75-1.23l-0.84-0.13L781.67,480.26z"/>
				<path id="path9485" fill="#005091" d="M793.24,479.7l-0.4-0.15l0.26-0.68l-1.87-0.72l-1.63,4.25l0.83,0.32l-0.17,0.44
					l-2.51-0.96l0.17-0.44l0.84,0.31l1.64-4.27l-0.84-0.32l0.16-0.42l3.95,1.52L793.24,479.7z"/>
				<path id="path9487" fill="#005091" d="M798.76,481.9l-0.77-0.46l-2.36,3.93l0.76,0.46l-0.24,0.41l-2.31-1.38l0.25-0.41
					l0.76,0.46l2.36-3.93l-0.76-0.46l0.23-0.38l2.3,1.39L798.76,481.9z"/>
				<path id="path9489" fill="#005091" d="M803.3,491.4l0.65,0.61l-0.32,0.35l-1.76-1.63l0.33-0.35l0.66,0.62l2.32-2.49l-5.09,0.55
					l-1.12-1.04l0.32-0.35l0.61,0.57l0.39-0.07l2.91-3.12l-0.65-0.61l0.3-0.32l1.75,1.63l-0.3,0.32l-0.66-0.62l-2.4,2.57l5.29-0.61
					l0.26,0.25L803.3,491.4z"/>
				<path id="path9491" fill="#005091" d="M808.69,494.55c-0.31,0.22-0.76,0.15-0.98-0.16c-0.23-0.32-0.15-0.75,0.15-0.98
					c0.32-0.23,0.76-0.16,0.99,0.16C809.07,493.88,809.01,494.32,808.69,494.55"/>
				<path id="path9493" fill="#005091" d="M739.46,505.54l0.37-0.82l-4.22-1.87l-0.37,0.81l-0.4-0.18l1.1-2.46l0.4,0.18l-0.36,0.81
					l1.86,0.83l1.32-2.97l-1.86-0.83l-0.36,0.81l-0.4-0.17l1.09-2.46l0.4,0.18l-0.36,0.81l4.22,1.88l0.36-0.82l0.41,0.18l-1.1,2.46
					l-0.4-0.18l0.36-0.81l-1.92-0.86l-1.32,2.97l1.92,0.86l0.36-0.81l0.4,0.18l-1.09,2.46L739.46,505.54z"/>
				<path id="path9495" fill="#005091" d="M732.61,514.38l0.37-2.36l0.47,0.07l-0.14,0.88l2.94,0.47c0.95,0.15,1.74-0.38,1.88-1.26
					c0.13-0.86-0.43-1.54-1.4-1.69l-2.95-0.47l-0.14,0.9l-0.47-0.08l0.42-2.67l0.47,0.08l-0.14,0.89l3.2,0.51
					c1.1,0.17,1.77,1.22,1.57,2.48c-0.21,1.34-1.23,2.12-2.5,1.91l-2.97-0.47l-0.14,0.89L732.61,514.38z"/>
				<path id="path9497" fill="#005091" d="M738.38,525.96l-0.11-0.89l-4.55,0.56l0.11,0.89l-0.47,0.06l-0.23-1.85l3.76-2.39
					l-4.22-1.38l-0.22-1.77l0.47-0.06l0.11,0.89l4.55-0.56l-0.11-0.89l0.44-0.05l0.29,2.37l-0.43,0.06l-0.11-0.89l-3.71,0.46
					l4.47,1.45l-4.2,2.69l3.94-0.49l-0.11-0.88l0.44-0.06l0.33,2.67L738.38,525.96z"/>
				<path id="path9499" fill="#005091" d="M740.91,532.23c0.41,1.06,0.15,1.86-0.7,2.19c-0.84,0.32-1.57-0.1-2.01-1.16
					c0.31,0.82,0.06,1.59-0.61,1.84c-0.78,0.3-1.51-0.11-1.87-1.05l-1.04-2.71l0.41-0.16l0.32,0.83l4.31-1.65l-0.32-0.84l0.41-0.15
					L740.91,532.23z M738.01,531.98l0.31,0.8c0.28,0.74,0.78,0.97,1.46,0.7c0.64-0.24,0.82-0.74,0.53-1.48l-0.3-0.78L738.01,531.98z
					 M735.76,532.84l0.31,0.79c0.21,0.55,0.63,0.72,1.19,0.5c0.56-0.21,0.79-0.71,0.58-1.27l-0.28-0.71L735.76,532.84z"/>
				<path id="path9501" fill="#005091" d="M744.75,538.99c0.86,1.23,0.5,3.08-0.78,3.97c-1.26,0.88-3.11,0.58-3.97-0.65
					c-0.87-1.25-0.53-3.08,0.74-3.97C742.02,537.44,743.88,537.74,744.75,538.99 M740.4,542.02c0.58,0.81,1.91,0.87,3,0.11
					c1.1-0.78,1.51-2.04,0.93-2.87c-0.57-0.82-1.91-0.85-3.01-0.08C740.24,539.94,739.83,541.2,740.4,542.02"/>
				<path id="path9503" fill="#005091" d="M750.68,547.7l-0.31-0.3l0.51-0.52l-1.44-1.39l-3.16,3.27l0.64,0.62l-0.33,0.34
					l-1.94-1.87l0.33-0.34l0.65,0.62l3.18-3.3l-0.64-0.62l0.3-0.31l3.04,2.93L750.68,547.7z"/>
				<path id="path9505" fill="#005091" d="M753.51,548.42l2.39,1.5c1.39,0.87,1.82,2.52,0.98,3.86c-0.81,1.3-2.52,1.66-3.9,0.8
					l-2.39-1.49l0.23-0.38l0.76,0.48l2.45-3.92l-0.76-0.47L753.51,548.42z M754.78,549.78l-2.41,3.86l0.8,0.49
					c0.93,0.59,2.17,0.18,2.85-0.91c0.68-1.09,0.49-2.36-0.45-2.95L754.78,549.78z"/>
				<path id="path9507" fill="#005091" d="M764.43,554.3l-0.95-0.32l-1.5,4.33l1.65,0.57l0.21-0.63l0.42,0.14l-0.45,1.3l-0.42-0.14
					l0.08-0.23l-4.14-1.42l-0.08,0.22l-0.4-0.14l0.45-1.3l0.4,0.14l-0.22,0.63l1.65,0.56l1.49-4.33l-0.96-0.33l0.15-0.42l2.77,0.96
					L764.43,554.3z"/>
				<path id="path9509" fill="#005091" d="M769.36,558.28l-2.23-0.43l0.17-0.89l2.24,0.44L769.36,558.28z"/>
				<path id="path9511" fill="#005091" d="M779.4,561.02l-2.39,0.04l-0.01-0.47l0.89-0.02l-0.05-2.97
					c-0.01-0.97-0.67-1.65-1.56-1.63c-0.87,0.01-1.44,0.69-1.43,1.66l0.06,2.99l0.9-0.01l0.01,0.47l-2.7,0.05l-0.01-0.48l0.9-0.01
					l-0.05-3.24c-0.02-1.12,0.89-1.96,2.17-1.98c1.35-0.02,2.3,0.84,2.32,2.13l0.05,3.01l0.89-0.02L779.4,561.02z"/>
				<path id="path9513" fill="#005091" d="M789.14,558.58l0.86-0.23l0.12,0.46l-2.31,0.62l-0.12-0.46l0.87-0.23l-0.88-3.29
					l-2.23,4.61l-1.48,0.4l-0.12-0.46l0.8-0.22l0.15-0.36l-1.1-4.13l-0.87,0.23l-0.11-0.42l2.31-0.62l0.11,0.42l-0.87,0.24
					l0.91,3.39l2.29-4.8l0.34-0.09L789.14,558.58z"/>
				<path id="path9515" fill="#005091" d="M794.43,551.2l-0.79,0.42l2.15,4.05l0.79-0.42l0.22,0.42l-2.37,1.26l-0.22-0.42l0.79-0.42
					l-2.16-4.04l-0.79,0.42l-0.2-0.39l2.37-1.27L794.43,551.2z"/>
				<path id="path9517" fill="#005091" d="M803.31,550.72l0.4-0.3l0.29,0.38l-1.38,1.04l-0.29-0.38l0.54-0.41l-3.41-2.03l0.99,3.86
					l0.6-0.45l0.28,0.38l-1.84,1.39l-0.29-0.38l0.47-0.35l-1.4-5.42l0.23-0.17L803.31,550.72z"/>
				<path id="path9519" fill="#005091" d="M806.37,542.02l-0.3,0.33l-0.47-0.42l-1.35,1.5l1.55,1.39l1.02-1.13l-0.45-0.4l0.3-0.32
					l1.23,1.1l-0.3,0.32l-0.43-0.38l-1.02,1.13l1.48,1.33l1.3-1.45l-0.45-0.41l0.28-0.32l0.99,0.89l-0.29,0.33l-0.18-0.16l-2.5,2.78
					l-0.33-0.3l0.6-0.66l-3.43-3.09l-0.6,0.66l-0.33-0.29l2.85-3.17L806.37,542.02z"/>
				<path id="path9521" fill="#005091" d="M810.59,533.88l-0.16,0.29c-0.13,0.23-0.11,0.5,0.05,0.82l0.88,1.75
					c0.5-0.62,1.25-0.76,1.95-0.37c0.84,0.46,0.99,1.25,0.43,2.26l-1.36,2.46l-0.42-0.23l0.43-0.78l-4.01-2.22l-0.43,0.78
					l-0.38-0.22l1.3-2.35l0.39,0.22l-0.44,0.78l1.73,0.95l0.28-0.51l-1.05-2.04c-0.26-0.48-0.25-0.59,0-1.04l0.42-0.76
					L810.59,533.88z M812.83,539.29l0.41-0.73c0.3-0.54,0.14-1.01-0.45-1.34c-0.57-0.31-1.14-0.2-1.41,0.3l-0.41,0.74L812.83,539.29
					z"/>
				<path id="path9523" fill="#005091" d="M811.62,530.63c-0.11-0.52-0.1-0.97,0.04-1.4c0.3-0.94,1.18-1.43,2.03-1.15
					c0.73,0.23,1.01,0.63,1.23,1.77c0.06,0.29,0.13,0.61,0.21,0.96c0.1,0.46,0.22,0.63,0.51,0.73c0.47,0.15,0.87-0.1,1.05-0.64
					c0.1-0.3,0.11-0.52,0.01-1.04l-0.57-0.19l0.14-0.42l1.36,0.45l-0.14,0.41l-0.28-0.09c0.08,0.39,0.05,0.74-0.07,1.12
					c-0.3,0.9-1.18,1.41-1.99,1.14c-0.67-0.22-0.95-0.68-1.13-1.84c-0.17-1.1-0.37-1.5-0.79-1.64c-0.45-0.14-0.9,0.16-1.08,0.73
					c-0.13,0.38-0.13,0.73,0,1.28l0.59,0.19l-0.14,0.42l-1.41-0.46l0.13-0.42L811.62,530.63z"/>
				<path id="path9525" fill="#005091" d="M813.83,521.79l-0.12,0.89l4.54,0.63l0.12-0.88l0.47,0.07l-0.37,2.66L818,525.1l0.12-0.89
					l-4.54-0.64l-0.12,0.89l-0.44-0.06l0.38-2.67L813.83,521.79z"/>
				<path id="path9527" fill="#005091" d="M813.93,514.85l0.04,1.01l4.58-0.16l-0.06-1.74l-0.67,0.03l-0.01-0.44l1.38-0.05
					l0.01,0.44l-0.24,0.01l0.16,4.38l0.23-0.01l0.02,0.43l-1.38,0.05l-0.02-0.43l0.67-0.03l-0.06-1.73l-4.58,0.16l0.03,1.01
					l-0.44,0.01l-0.1-2.92L813.93,514.85z"/>
				<path id="path9529" fill="#005091" d="M812.2,505.94l0.12,0.5l5.62,0.86l0.07,0.3l-4.53,3.49l0.11,0.43l-0.43,0.11l-0.4-1.62
					l0.43-0.1l0.16,0.65l1.12-0.86l-0.52-2.11l-1.39-0.2l0.13,0.51l-0.43,0.1l-0.48-1.94L812.2,505.94z M818.85,505.49
					c0.32-0.08,0.65,0.12,0.73,0.43c0.08,0.32-0.12,0.66-0.44,0.74c-0.31,0.07-0.65-0.13-0.73-0.45
					C818.33,505.9,818.53,505.57,818.85,505.49 M819.36,507.53c0.32-0.08,0.65,0.12,0.73,0.44c0.08,0.32-0.12,0.65-0.44,0.73
					c-0.31,0.08-0.65-0.12-0.73-0.44C818.84,507.94,819.04,507.61,819.36,507.53 M814.87,509.39l1.82-1.39l-2.25-0.33L814.87,509.39
					z"/>
				<path id="path9531" fill="#005091" d="M809.72,500.18l0.43,0.92l4.16-1.94l-0.74-1.58l-0.6,0.29l-0.19-0.4l1.25-0.59l0.19,0.4
					l-0.22,0.1l1.85,3.98l0.22-0.11l0.18,0.39l-1.25,0.59l-0.18-0.39l0.6-0.28l-0.73-1.58l-4.16,1.94l0.43,0.91l-0.4,0.19
					l-1.24-2.65L809.72,500.18z"/>
			</g>
		</g>
	</g>
</g>
</svg>
