<?xml version="1.0" encoding="UTF-8"?>
<svg id="Ebene_1" data-name="Ebene 1" xmlns="http://www.w3.org/2000/svg" viewBox="0 0 338.27212849017178 338.28017544242357">
  <defs>
    <style>
      .cls-1 {
        fill: #007bb7;
      }

      .cls-2 {
        fill: #fff;
      }
    </style>
  </defs>
  <path class="cls-1" d="M338.26092233922736,169.0625960782063c-.00003661316077,48.22101213737733-.00911667680339,96.44204257444107,.01120362691108,144.66305471181749,.00256292118866,6.11934226288759-1.94664848268076,11.47771032554374-5.98918068757484,16.03616245321609-4.25261851608775,4.7954330793109-9.60981945156527,7.5598936538554-15.99614308398668,8.24576593705569-1.63309338176259,.17538420389974-3.28409059868864,.25883077837534-4.92684985464803,.25905037462508-95.42861304839062,.01185819742568-190.85722609678305,.03275644041969-286.28578422543433-.02572936046454-8.98682823020954-.00548990621428-16.23019270830173-3.79883210430853-21.25912005260034-11.39217758670384C1.24024590231966,322.96102722150135,.00631834248634,318.62619727367746,.00439615159394,313.96072857417676c-.00745993131841-18.08880178784784-.00316703832596-36.17758527600654-.00316703832596-54.26638706385256-.00001830658039-78.35291139222227-.00100686189671-156.70582278444363,.00166589877153-235.05873646412601,.00026544541015-7.53933853000035,2.85856330167098-13.79675879659135,8.57177229690751-18.70949515950269C12.30822105790321,2.71567506513384,16.65217110122649,.81011718040008,21.5573459652469,.25924855342328,22.94308083909073,.10362744003396,24.34391864136978,.01058210765859,25.73783655643911,.01041741047175,121.61633380643525-.00091867399715,217.49483105643139-.00734929851842,313.37330999984897,.0145091061986c7.59975697603113,.00173275164889,14.02877155283386,2.85704669913957,19.05495291014267,8.59625069970116,3.90091250260957,4.45432347525821,5.84529096938059,9.68119455928627,5.83987222172436,15.63886594650648-.01907545628092,20.98737162139332-.00724940564942,41.97477069231718-.00721279248864,62.96215603847577,.00003661315895,27.28360781238916,.00003661315895,54.56720647493512,0,81.85081428732428Zm-156.11375387167755,119.20978163170457c0-.63210780166264,.00003661316077-1.32143872577763,.00003661316077-2.01076964989443,0-22.23296729280264-.0079816688467-44.46593458560528,.00644391613241-66.69890187840883,.00303889226598-4.69447370400667,.07783957783249-9.38905720613729,.13806822577862-14.0833479132707,.05576184244455-4.34573656150496,.29557803943499-8.67880973934007,1.03966728698106-12.96970213775148,.74555377394063-4.29947495179476,1.88751822952872-8.47617730092225,3.95868806884755-12.34884864383184,3.17915728256776-5.94445215054475,8.00275802645228-9.87211405404651,14.5069760335773-11.68976710296283,5.37850979450923-1.50302652370283,10.85356849152777-1.73493846193651,16.3310802702581-.80787629899805,7.06655952919573,1.19606756750181,12.28045655703681,5.01093019796008,15.47224537975308,11.50029213977632,2.30714165452264,4.6907039684047,3.3820308012746,9.71711570189291,3.76192894783526,14.85801027966409,.40069442135064,5.42318555537531,.60320180845883,10.87235666683773,.61638254600257,16.31085906055432,.06136365590282,25.33044557838457,.02647131456797,50.66112905270438,.03108457271082,75.99173932827489,.00010983947868,.68073007104431,.05803185835612,1.36147844177685,.09394936816352,2.15154914494997,.77337977542265,.05680222964293,1.40931374878528,.14184087692229,2.04557724058395,.14398194034584,3.79846888136308,.01277318179564,7.59701098904407,.00647808933536,11.39555309672505,.00647808933536,11.59549756264096,0,23.19095851212296,.00267175435874,34.78645607476392-.00675258464435,.7231831332756-.00058558999808,1.44625642706887-.09645765220921,2.31021715995121-.15803610025978v-2.26899653858709c0-29.37749464238823-.0025263080297-58.75500758446287,.00172081851269-88.13250222684928,.00102516847437-7.29507887770251-.32633309370613-14.56744784336024-1.20061873766281-21.81741799165775-.80296320857997-6.65795696169789-2.07501422109999-13.20424923096925-4.24851784218663-19.55740659957792-2.38717802194697-6.97774399875379-5.81021556224914-13.36685110323015-10.90230060728027-18.77080368716361-6.10107050406441-6.47476794112754-13.64733565356073-10.48063355866907-22.15919966767069-12.78344791954441-5.41475682275268-1.46491742472335-10.94151330147542-2.14614158732729-16.53981189453589-2.49084364876035-7.23908073839266-.44571633579926-14.38732422720568-.01898592566158-21.37439658637595,1.92510881324415-13.3365631527904,3.71081060798588-24.02672711192281,11.06935280154084-31.22659515612031,23.10642052154617-.12961058585279,.21670489801545-.33951383124986,.38540971602015-.74782378984855,.83788778630878v-1.82726953463771c0-3.4473591585438,.00032951843787-6.89471831708761-.00007322632155-10.34207747563232-.00032951843787-2.74789020761636,.01233863486777-5.49589021335669-.00783521620542-8.24364317331765-.01083749531426-1.47625408105705-.14249841811943-1.58033355306088-1.65121689588523-1.62900157166223-.09988070005966-.00322074497944-.19990785275877-.0026443048273-.29986177913815-.0026443048273-14.89419681210711-.00019214671738-29.78841193079643-.00249790732869-44.68260874290536,.00749372198425-.63104611652125,.00042089281033-1.26201900672277,.11512333334031-1.97297334460927,.1843785002502v161.61146573103451c1.34705307046715,.47802443387627,48.93742404858494,.5049798733944,50.51775786700819,.00439192497106Zm-81.72445377075019,.14590340752147V126.65508352844518c-.67419472540041-.06970350924985-1.25729590910487-.18231063557505-1.84047031912905-.18266747947928-15.64410755206882-.00959818603314-31.28821510413854-.00966223493924-46.93232265620827,.00016469718594-.57980599931852,.00036599374835-1.15953877231641,.11616641552246-1.8376877189794,.18868807662966-.04018294293201,.77084688157447-.10257176730829,1.40952427100819-.10262668704854,2.04820166044101-.00446680550158,52.56038955751592-.00410067390294,105.12078826487596-.00360639624523,157.68118697223417,.00001830658039,.34968872624631-.01354686914328,.70106102373029,.01459034419895,1.04877338373808,.0752034303232,.92883723261366,.23042492148943,1.07666210731259,1.19595055978334,1.16830694173768,.24805415795436,.02355169766633,.49940350029556,.01683571239482,.74923339650377,.01683571239482,15.64410755206973,.00058558999626,31.28819679755998,.00254365654655,46.93230434962879-.00794206432511,.58031858355662-.00038429343476,1.16056394079169-.12313859641472,1.82463512749564-.19835031156981ZM75.09920438287736,46.24953737651413c-15.36425486478856-.26380371842424-29.33440874870848,12.45431889207703-29.3449899519037,29.32955403635879-.00977571367821,15.59414265426767,12.47064361585581,29.32394975709849,29.40622546174563,29.31578809652456,17.35408856950835-.00835380729131,29.38081592881372-14.40857910732484,29.35515010376184-29.37677180473565-.0272584975055-15.89839325673529-13.26038947372945-29.53726006310353-29.41638561360378-29.26857032814769Z"/>
  <path class="cls-2" d="M182.14716846754982,288.27237770991087c-1.58033381842324,.50058794842334-49.17070479654103,.47363250890521-50.51775786700819-.00439192497106V126.6565200539053c.71095433788651-.0692551669099,1.34192722808803-.18395760743988,1.97297334460927-.1843785002502,14.89419681210893-.00999162931294,29.78841193079825-.00768586870163,44.68260874290536-.00749372198425,.09995392637938,0,.1999810790785-.00057644015214,.29986177913815,.0026443048273,1.5087184777658,.04866801860135,1.64037940057096,.15274749060518,1.65121689588523,1.62900157166223,.0201738510732,2.74775295996096,.00750569776756,5.49575296570129,.00783521620542,8.24364317331765,.00040274475941,3.44735915854471,.00007322632155,6.89471831708852,.00007322632155,10.34207747563232v1.82726953463771c.40830995859869-.45247807028863,.61821320399577-.62118288829333,.74782378984855-.83788778630878,7.1998680441975-12.03706772000533,17.89003200332991-19.39560991356029,31.22659515612031-23.10642052154617,6.98707235917027-1.94409473890573,14.13531584798329-2.37082514904341,21.37439658637595-1.92510881324415,5.59829859306046,.34470206143305,11.12505507178321,1.02592622403699,16.53981189453589,2.49084364876035,8.51186401410996,2.30281436087535,16.05812916360628,6.30867997841688,22.15919966767069,12.78344791954441,5.09208504503113,5.40395258393346,8.5151225853333,11.79305968840981,10.90230060728027,18.77080368716361,2.17350362108664,6.35315736860866,3.44555463360666,12.89944963788002,4.24851784218663,19.55740659957792,.87428564395668,7.24997014829751,1.20164390613718,14.52233911395524,1.20061873766281,21.81741799165775-.0042471265424,29.37749464238641-.00172081851269,58.75500758446105-.00172081851269,88.13250222684928v2.26899653858709c-.86396073288233,.06157844805057-1.58703402667561,.1574505102617-2.31021715995121,.15803610025978-11.59549756264096,.00942433900309-23.19095851212296,.00675258464435-34.78645607476392,.00675258464435-3.79854210768099,0-7.59708421536197,.00629509246028-11.39555309672505-.00647808933536-.63626349179867-.00214106342355-1.2721974651613-.08717971070291-2.04557724058395-.14398194034584-.0359175098074-.79007070317311-.09383952868484-1.47081907390566-.09394936816352-2.15154914494997-.00461325814285-25.33061027557051,.030279083192-50.66129374989032-.03108457271082-75.99173932827489-.01318073754373-5.43850239371659-.21568812465193-10.88767350517901-.61638254600257-16.31085906055432-.37989814656066-5.14089457777118-1.45478729331262-10.16730631125938-3.76192894783526-14.85801027966409-3.19178882271626-6.48936194181624-8.40568585055735-10.30422457227451-15.47224537975308-11.50029213977632-5.47751177873033-.92706216293846-10.95257047574887-.69515022470478-16.3310802702581,.80787629899805-6.50421800712502,1.81765304891633-11.32781875100954,5.74531495241808-14.5069760335773,11.68976710296283-2.07116983931883,3.8726713429096-3.21313429490692,8.04937369203708-3.95868806884755,12.34884864383184-.74408924754607,4.29089239841142-.9839054445365,8.62396557624652-1.03966728698106,12.96970213775148-.06022864794613,4.6942907071334-.13502933351265,9.38887420926403-.13806822577862,14.0833479132707-.01442558497911,22.23296729280355-.00644391613241,44.46593458560619-.00644391613241,66.69890187840883,0,.6893309241168-.00003661316077,1.37866184823179-.00003661316077,2.01076964989443Z"/>
  <path class="cls-2" d="M100.42271469679963,288.41828111743234c-.66407118670395,.07521171515509-1.24431654393902,.19796601813505-1.82463512749564,.19835031156981-15.64410755206882,.01048572087166-31.28819679755907,.00852765432137-46.93230434962879,.00794206432511-.24982989620821,0-.50117923854941,.00671598527151-.74923339650377-.01683571239482-.96552563829391-.0916448344251-1.12074712946014-.23946970912402-1.19595055978334-1.16830694173768-.02813721334223-.34771236000779-.01457203761856-.69908465749177-.01459034419895-1.04877338373808-.00049427765771-52.56039870735822-.00086040925635-105.12079741471825,.00360639624523-157.68118697223417,.00005491974025-.63867738943281,.06244374411654-1.27735477886654,.10262668704854-2.04820166044101,.67814894666299-.0725216611072,1.25788171966087-.18832208288131,1.8376877189794-.18868807662966,15.64410755206973-.00982693212518,31.28821510413945-.00976288321908,46.93232265620827-.00016469718594,.58317441002418,.00035684390423,1.16627559372864,.11296397022943,1.84047031912905,.18266747947928v161.76319758898717Z"/>
  <path class="cls-2" d="M75.09920438287736,46.24953737651413c16.15599613987433-.26868973495584,29.38912711609828,13.3701770714124,29.41638561360378,29.26857032814769,.02566582505187,14.96819269741081-12.00106153425349,29.36841799744434-29.35515010376184,29.37677180473565-16.93558184588983,.00816166057393-29.41600117542384-13.72164544225689-29.40622546174563-29.31578809652456,.01058120319522-16.87523514428176,13.98073508711514-29.59335775478303,29.3449899519037-29.32955403635879Z"/>
</svg>