<?xml version="1.0" encoding="utf-8"?>
<!-- Generator: Adobe Illustrator 16.0.4, SVG Export Plug-In . SVG Version: 6.00 Build 0)  -->
<!DOCTYPE svg PUBLIC "-//W3C//DTD SVG 1.0//EN" "http://www.w3.org/TR/2001/REC-SVG-20010904/DTD/svg10.dtd">
<svg version="1.0" id="Ebene_1" xmlns="http://www.w3.org/2000/svg" xmlns:xlink="http://www.w3.org/1999/xlink" x="0px" y="0px"
	 width="595.279px" height="164.87px" viewBox="0 339.249 595.279 164.87" enable-background="new 0 339.249 595.279 164.87"
	 xml:space="preserve">
<title>Element 15</title>
<g id="Ebene_2">
	<g id="Ebene_1-2">
		<path fill="#006E7F" d="M34.432,377.555l32.826,91.75l32.673-91.75h34.585v126.564h-26.429v-34.61l2.548-59.688l-34.508,94.299
			H58.032l-34.33-94.222l2.549,59.612v34.61H0V377.555H34.432z"/>
		<path fill="#006E7F" d="M233.148,478.123h-45.569l-8.666,25.996h-27.627l46.946-126.131h24.084l47.226,126.131h-27.652
			L233.148,478.123z M191.885,456.536h31.526l-15.853-47.2L191.885,456.536z"/>
		<path fill="#006E7F" d="M365.216,398.683h-38.764v105.436H300.38V398.683h-38.229v-21.128h103.065V398.683z"/>
		<path fill="#006E7F" d="M484.95,504.119h-26.072V449.91h-50.973v54.209h-25.944V377.555h26.072v51.278h50.972v-51.278h26.073
			L484.95,504.119z"/>
		<g>
			<path fill="#A5C54C" d="M595.28,394.325h-89.94c-1.987,0-3.619-2.192-3.619-4.868l0,0v-7.034c0-2.676,1.606-4.868,3.619-4.868
				h89.94V394.325z"/>
			<path fill="#A5C54C" d="M540.128,432.732v-89.864c0-2.013,2.166-3.619,4.868-3.619h7.033c2.677,0,4.843,1.606,4.843,3.594l0,0
				v89.89H540.128z"/>
		</g>
	</g>
</g>
</svg>
