<?xml version="1.0" encoding="utf-8"?>
<!-- Generator: Adobe Illustrator 16.0.4, SVG Export Plug-In . SVG Version: 6.00 Build 0)  -->
<!DOCTYPE svg PUBLIC "-//W3C//DTD SVG 1.1//EN" "http://www.w3.org/Graphics/SVG/1.1/DTD/svg11.dtd">
<svg version="1.1" id="Ebene_1" xmlns="http://www.w3.org/2000/svg" xmlns:xlink="http://www.w3.org/1999/xlink" x="0px" y="0px"
	 width="233.061px" height="233.061px" viewBox="8.042 66.513 233.061 233.061"
	 enable-background="new 8.042 66.513 233.061 233.061" xml:space="preserve">
<circle fill="#00D0AF" cx="124.572" cy="183.043" r="116.53"/>
<g>
	<path fill="#FEFFFF" d="M139.023,248.738c-7.475-1.992-11.461-4.982-17.938-12.955c-4.484-5.979-12.956-19.433-17.44-26.408
		l-2.989-5.481H88.696v16.941c0.498,21.427,0,20.928,9.468,22.423l4.982,0.498v1.993v1.993H63.284v-1.993
		c0-1.993,0.498-1.993,4.484-2.989c4.982-0.997,6.976-2.492,7.475-6.977c0.498-1.992,0.498-15.446,0.498-39.363
		c0-34.88-0.498-35.877-1.495-38.368c-1.495-2.492-3.488-3.488-8.969-3.986c-1.993-0.499-2.491-0.499-2.491-2.492v-1.993
		l21.426-0.498c27.405-0.499,32.389,0,40.36,5.481c7.475,4.983,10.963,11.959,9.967,21.426
		c-0.499,10.463-8.472,20.928-18.438,24.915c-1.993,0.498-3.487,1.494-3.487,1.494c0,0.996,8.471,13.952,13.951,21.426
		c7.475,10.465,13.454,15.945,17.938,18.438c1.993,0.996,4.484,1.494,4.982,1.494c1.496,0,1.496,0.498,1.496,1.993
		s-0.499,2.491-0.997,2.491c-2.491,0.997-9.468,0.997-12.956,0L139.023,248.738z M110.621,194.426
		c6.976-3.488,10.962-8.969,11.46-17.439c0.498-6.478-0.996-10.962-4.982-14.949c-4.484-4.982-12.457-6.976-23.918-5.979
		l-4.982,0.498v19.433c0,17.938,0,19.931,0.996,19.931c0.499,0,4.484,0.499,8.97,0c6.976,0,8.471-0.498,11.958-1.993
		L110.621,194.426z"/>
	<path fill="#FEFFFF" d="M163.937,171.505c-12.457-1.993-16.941-9.966-15.945-30.396c0.498-10.464,1.494-14.948,5.48-18.935
		c3.488-3.488,6.479-4.484,12.457-4.983c6.479-0.498,10.465,0.997,14.451,3.986c2.491,1.993,4.484,4.983,4.484,6.478
		c0,0.499-1.495,0.997-2.99,1.993l-2.989,1.495l-1.495-1.495c-2.491-2.99-4.484-4.484-6.977-5.481
		c-4.982-1.495-9.965,0.997-12.457,5.481c-1.494,2.492-1.494,2.99-1.494,14.45c0,10.962,0,12.457,1.494,14.45
		c1.994,3.488,5.98,5.481,10.465,4.983c6.478-0.499,9.965-4.983,9.965-11.959v-3.488h-4.982h-4.982v-6.478h17.938v7.474
		c0,5.979-0.498,7.973-1.494,10.962c-2.99,7.474-11.461,11.958-20.928,10.962V171.505z"/>
</g>
</svg>
