<?xml version="1.0" encoding="UTF-8"?>
<svg id="Ebene_1" data-name="Ebene 1" xmlns="http://www.w3.org/2000/svg" xmlns:xlink="http://www.w3.org/1999/xlink" version="1.1" viewBox="0 0 346.4 75.4">
  <defs>
    <style>
      .cls-1 {
        fill: url(#Unbenannter_Verlauf);
      }

      .cls-1, .cls-2, .cls-3, .cls-4 {
        stroke-width: 0px;
      }

      .cls-2 {
        fill: #000100;
      }

      .cls-5 {
        stroke: #e41715;
      }

      .cls-5, .cls-6, .cls-7 {
        fill: none;
      }

      .cls-5, .cls-7 {
        stroke-width: 3.2px;
      }

      .cls-3 {
        fill: url(#Unbenannter_Verlauf_3);
      }

      .cls-4 {
        fill: url(#Unbenannter_Verlauf_2);
      }

      .cls-6 {
        stroke-width: 1.4px;
      }

      .cls-6, .cls-7 {
        stroke: #000100;
      }

      .cls-8 {
        isolation: isolate;
      }
    </style>
    <linearGradient id="Unbenannter_Verlauf" data-name="Unbenannter Verlauf" x1="42.3" y1="37.8" x2="53.2" y2="56.7" gradientTransform="translate(0 75.5) scale(1 -1)" gradientUnits="userSpaceOnUse">
      <stop offset="0" stop-color="#e2f0e5"/>
      <stop offset="1" stop-color="#59865e"/>
    </linearGradient>
    <linearGradient id="Unbenannter_Verlauf_2" data-name="Unbenannter Verlauf 2" x1="20.6" y1="37.8" x2="42.3" y2="37.8" gradientTransform="translate(0 75.5) scale(1 -1)" gradientUnits="userSpaceOnUse">
      <stop offset="0" stop-color="#9f5f5e"/>
      <stop offset="1" stop-color="#ecdada"/>
    </linearGradient>
    <linearGradient id="Unbenannter_Verlauf_3" data-name="Unbenannter Verlauf 3" x1="53.2" y1="19" x2="42.3" y2="37.8" gradientTransform="translate(0 75.5) scale(1 -1)" gradientUnits="userSpaceOnUse">
      <stop offset="0" stop-color="#5f859f"/>
      <stop offset="1" stop-color="#cfd9e0"/>
    </linearGradient>
  </defs>
  <polygon class="cls-1" points="85.8 37.7 20.6 0 42.3 37.7 85.8 37.7"/>
  <polygon class="cls-4" points="42.3 37.7 20.6 0 20.6 75.4 42.3 37.7"/>
  <polygon class="cls-3" points="85.8 37.7 20.6 75.4 42.3 37.7 85.8 37.7"/>
  <g class="cls-8">
    <g class="cls-8">
      <path class="cls-2" d="M93.1,63.8l-2.8-1.7c-1.7-1.1-3-2.1-3.7-3.1-.7-1-1.1-2.2-1.1-3.6,0-2,.7-3.6,2.1-4.9,1.4-1.3,3.2-1.9,5.4-1.9s4.1.6,5.9,1.8v4.2c-1.8-1.8-3.8-2.7-6-2.7s-2.2.3-2.9.8c-.8.6-1.2,1.3-1.2,2.1s.3,1.5.8,2.2c.6.7,1.5,1.4,2.7,2.1l2.8,1.7c3.1,1.9,4.7,4.2,4.7,7.1s-.7,3.7-2.1,5c-1.4,1.3-3.2,1.9-5.4,1.9s-4.8-.8-6.9-2.3v-4.7c2,2.5,4.3,3.8,6.9,3.8s2.1-.3,2.9-1,1.1-1.4,1.1-2.4c0-1.6-1.1-3-3.4-4.4Z"/>
      <path class="cls-2" d="M103.9,48.9h13.6v3.3h-10v7.1h10v3.3h-10v11.9h-3.7v-25.6Z"/>
      <path class="cls-2" d="M130.2,74.5h-8.7v-25.6h6.7c2.1,0,3.8.3,4.9.9s2.1,1.3,2.7,2.3.9,2.1.9,3.5c0,2.5-1.3,4.3-3.9,5.4,1.9.4,3.4,1.1,4.5,2.3,1.1,1.2,1.7,2.6,1.7,4.2s-.3,2.5-1,3.5-1.7,1.9-3,2.5c-1.3.6-2.9,1-4.9,1ZM128.3,52.2h-3.1v7.7h2.4c2,0,3.3-.4,4.2-1.1.8-.7,1.2-1.7,1.2-2.9,0-2.5-1.6-3.7-4.7-3.7ZM128.6,63.1h-3.4v8.1h3.6c2,0,3.4-.2,4.1-.5.7-.3,1.3-.8,1.7-1.5s.6-1.4.6-2.1-.2-1.5-.7-2.1c-.5-.6-1.1-1.1-2-1.4-.8-.3-2.2-.5-4-.5Z"/>
      <path class="cls-2" d="M152,48.9h16.6l-11.6,25.9-3.3-1.4,9.4-21h-11.1v-3.5Z"/>
      <path class="cls-2" d="M170.7,55.8c0-2,.8-3.7,2.3-5.1,1.5-1.4,3.3-2.1,5.5-2.1s3.9.7,5.4,2.1c1.5,1.4,2.2,3.1,2.2,5.1s-1.1,4.2-3.2,5.7c2.4,1.4,3.6,3.4,3.6,6s-.8,3.9-2.3,5.2-3.5,2.1-5.8,2.1-4.3-.7-5.8-2.1c-1.6-1.4-2.4-3.2-2.4-5.2s1.2-4.6,3.6-6c-1.1-.9-1.9-1.8-2.3-2.6-.5-.9-.7-1.9-.7-3ZM182.8,67.6v-.4c0-1.2-.4-2.1-1.3-2.9-.8-.7-1.9-1.1-3.2-1.1s-2.4.4-3.2,1.1c-.8.7-1.2,1.7-1.2,2.9s.4,2.1,1.3,2.9c.8.7,1.9,1.1,3.3,1.1s2.3-.3,3.2-1,1.2-1.6,1.2-2.7ZM182.5,55.9c0-1.1-.4-2-1.1-2.7-.8-.7-1.7-1.1-2.9-1.1s-2.2.4-2.9,1.1-1.1,1.6-1.1,2.7.4,2,1.2,2.7c.8.8,1.8,1.1,2.9,1.1s2.1-.4,2.8-1.1c.8-.8,1.2-1.7,1.2-2.7Z"/>
      <path class="cls-2" d="M189.5,48.9h16.6l-11.6,25.9-3.3-1.4,9.4-21h-11.1v-3.5Z"/>
    </g>
  </g>
  <g class="cls-8">
    <g class="cls-8">
      <path class="cls-2" d="M89,20.7l-1.5-.9c-1-.6-1.7-1.2-2.1-1.7-.4-.6-.6-1.2-.6-2,0-1.1.4-2,1.2-2.7.8-.7,1.8-1,3-1s2.3.3,3.3,1v2.3c-1-1-2.1-1.5-3.3-1.5s-1.2.2-1.6.5c-.4.3-.6.7-.6,1.2s.2.8.5,1.2c.3.4.8.8,1.5,1.2l1.6.9c1.7,1,2.6,2.3,2.6,3.9s-.4,2.1-1.1,2.8-1.8,1.1-3,1.1-2.7-.4-3.8-1.3v-2.6c1.1,1.4,2.4,2.1,3.8,2.1s1.2-.2,1.6-.5.6-.8.6-1.3c0-.9-.6-1.7-1.9-2.5Z"/>
      <path class="cls-2" d="M102.7,22.1h-6.6c0,.9.3,1.6.9,2.1.6.5,1.3.8,2.1.8s2.3-.4,3.4-1.1v1.8c-.6.4-1.1.7-1.7.8s-1.2.2-2,.2-1.9-.2-2.5-.6c-.6-.4-1.1-1-1.5-1.7-.4-.7-.6-1.6-.6-2.5,0-1.4.4-2.6,1.2-3.5.8-.9,1.9-1.3,3.1-1.3s2.2.4,3,1.3c.7.9,1.1,2,1.1,3.5v.2ZM96.2,21h4.7c0-.7-.3-1.3-.7-1.7s-.9-.6-1.6-.6-1.2.2-1.6.6-.7,1-.8,1.7Z"/>
      <path class="cls-2" d="M112.4,19.8v6.8h-1.9v-5.2c0-1-.1-1.8-.4-2.2-.3-.4-.8-.6-1.5-.6s-.7,0-1.1.3-.7.5-1.1.9v6.8h-1.8v-9.3h1.8v1.2c.9-.9,1.9-1.4,2.8-1.4s2.1.6,2.8,1.7c1-1.1,2-1.7,3.1-1.7s1.7.3,2.2,1c.6.7.9,1.7.9,3v5.5h-1.8v-5.5c0-.8-.2-1.4-.5-1.8s-.8-.6-1.4-.6-1.5.4-2.1,1.2Z"/>
      <path class="cls-2" d="M121.7,13.3c.3,0,.6.1.8.3s.3.5.3.8-.1.6-.3.8c-.2.2-.5.3-.8.3s-.5-.1-.8-.3c-.2-.2-.3-.5-.3-.8s.1-.5.3-.8c.2-.2.5-.3.8-.3ZM120.8,17.3h1.8v9.3h-1.8v-9.3Z"/>
      <path class="cls-2" d="M132.3,24.4v1.8c-.9.3-1.8.5-2.7.5-1.5,0-2.6-.4-3.5-1.3-.9-.9-1.3-2-1.3-3.5s.4-2.7,1.3-3.6c.8-.9,2-1.4,3.3-1.4s.9,0,1.3.1c.4,0,.9.3,1.4.5v2c-.9-.6-1.8-.9-2.6-.9s-1.5.3-2.1.9c-.5.6-.8,1.3-.8,2.2s.3,1.7.9,2.3c.6.6,1.4.8,2.3.8s1.5-.2,2.4-.6Z"/>
      <path class="cls-2" d="M138.9,17.2c1.4,0,2.6.5,3.5,1.4.9.9,1.4,2.1,1.4,3.5s-.5,2.5-1.4,3.4-2.2,1.3-3.6,1.3-2.6-.5-3.5-1.4c-.9-.9-1.4-2-1.4-3.4s.5-2.5,1.4-3.4c1-.9,2.1-1.4,3.6-1.4ZM138.8,18.9c-.9,0-1.6.3-2.2.9-.6.6-.9,1.3-.9,2.2s.3,1.6.9,2.2c.6.6,1.3.8,2.2.8s1.7-.3,2.2-.9c.6-.6.9-1.3.9-2.2s-.3-1.6-.9-2.2c-.6-.6-1.4-.9-2.3-.9Z"/>
      <path class="cls-2" d="M147.7,17.3v1.2c.8-.9,1.8-1.4,2.8-1.4s1.1.2,1.6.5c.5.3.9.7,1.1,1.2.3.5.4,1.4.4,2.5v5.3h-1.8v-5.3c0-1-.1-1.6-.4-2-.3-.4-.8-.6-1.5-.6s-1.6.4-2.2,1.3v6.7h-1.9v-9.3h1.9Z"/>
      <path class="cls-2" d="M162.5,12.4h1.9v14.2h-4c-1.4,0-2.5-.4-3.3-1.3-.8-.9-1.2-2-1.2-3.5s.4-2.5,1.3-3.4c.9-.9,2-1.3,3.3-1.3s1.3.1,2,.4v-5ZM162.5,25v-5.9c-.6-.3-1.2-.4-1.7-.4-.9,0-1.7.3-2.2.9-.5.6-.8,1.4-.8,2.4s.2,1.7.7,2.2c.3.3.6.5.9.6s.9.2,1.7.2h1.4Z"/>
      <path class="cls-2" d="M172.8,26.6v-1.2c-.4.4-.8.8-1.3,1-.5.2-1,.4-1.5.4s-1.1-.1-1.6-.4-.9-.7-1.1-1.2c-.3-.5-.4-1.3-.4-2.5v-5.4h1.8v5.3c0,1,.1,1.7.4,2.1.3.4.8.6,1.5.6s1.6-.4,2.2-1.3v-6.7h1.8v9.3h-1.8Z"/>
      <path class="cls-2" d="M184.3,24.4v1.8c-.9.3-1.8.5-2.7.5-1.5,0-2.6-.4-3.5-1.3-.9-.9-1.3-2-1.3-3.5s.4-2.7,1.3-3.6c.8-.9,2-1.4,3.3-1.4s.9,0,1.3.1c.4,0,.9.3,1.4.5v2c-.9-.6-1.8-.9-2.6-.9s-1.5.3-2.1.9c-.5.6-.8,1.3-.8,2.2s.3,1.7.9,2.3c.6.6,1.4.8,2.3.8s1.5-.2,2.4-.6Z"/>
      <path class="cls-2" d="M185.1,18.7l3.5-3.4v1.9h3v1.7h-3v4.6c0,1.1.4,1.6,1.3,1.6s1.4-.2,2.1-.7v1.7c-.7.4-1.5.6-2.3.6s-1.6-.2-2.1-.7c-.2-.1-.3-.3-.4-.5-.1-.2-.2-.4-.3-.7,0-.3-.1-.9-.1-1.7v-4.1h-1.6v-.2Z"/>
      <path class="cls-2" d="M197.8,17.2c1.4,0,2.6.5,3.5,1.4.9.9,1.4,2.1,1.4,3.5s-.5,2.5-1.4,3.4c-1,.9-2.2,1.3-3.6,1.3s-2.6-.5-3.5-1.4c-.9-.9-1.4-2-1.4-3.4s.5-2.5,1.4-3.4c1-.9,2.1-1.4,3.6-1.4ZM197.7,18.9c-.9,0-1.6.3-2.2.9-.6.6-.9,1.3-.9,2.2s.3,1.6.9,2.2,1.3.8,2.2.8,1.7-.3,2.2-.9c.6-.6.9-1.3.9-2.2s-.3-1.6-.9-2.2c-.6-.6-1.4-.9-2.3-.9Z"/>
      <path class="cls-2" d="M206.8,17.3v2.1-.2c1-1.4,1.9-2.2,2.8-2.2s1.4.4,2.2,1.1l-1,1.6c-.6-.6-1.2-.9-1.8-.9s-1.1.3-1.5.9-.7,1.2-.7,2v4.9h-1.9v-9.3h1.9Z"/>
      <path class="cls-2" d="M230.3,12.4h1.9v14.2h-1.7l-9.5-10.9v10.9h-1.9v-14.2h1.6l9.6,11v-11Z"/>
      <path class="cls-2" d="M240.9,21v4c0,.3.1.5.3.5s.6-.2,1-.5v1.1c-.4.3-.8.5-1,.6-.3,0-.5.1-.8.1-.8,0-1.3-.3-1.4-.9-.8.6-1.6.9-2.5.9s-1.2-.2-1.6-.6c-.4-.4-.7-1-.7-1.6s.2-1.1.6-1.6,1-.8,1.8-1.1l2.4-.8v-.5c0-1.1-.6-1.7-1.7-1.7s-2,.5-2.9,1.6v-2c.7-.8,1.8-1.3,3.1-1.3s1.8.3,2.4.8c.2.2.4.4.5.7.2.3.3.6.3.8s0,.8,0,1.6ZM239.1,24.8v-2.8l-1.2.5c-.6.2-1.1.5-1.3.8s-.4.6-.4.9.1.7.4.9c.2.2.6.4,1,.4.6,0,1.1-.2,1.6-.7Z"/>
      <path class="cls-2" d="M245.8,17.3v1.2c.8-.9,1.8-1.4,2.8-1.4s1.1.2,1.6.5c.5.3.9.7,1.1,1.2.3.5.4,1.4.4,2.5v5.3h-1.8v-5.3c0-1-.1-1.6-.4-2-.3-.4-.8-.6-1.5-.6s-1.6.4-2.2,1.3v6.7h-1.9v-9.3h1.9Z"/>
      <path class="cls-2" d="M258.8,17.2c1.4,0,2.6.5,3.5,1.4.9.9,1.4,2.1,1.4,3.5s-.5,2.5-1.4,3.4c-1,.9-2.2,1.3-3.6,1.3s-2.6-.5-3.5-1.4-1.4-2-1.4-3.4.5-2.5,1.4-3.4c1-.9,2.1-1.4,3.6-1.4ZM258.7,18.9c-.9,0-1.6.3-2.2.9-.6.6-.9,1.3-.9,2.2s.3,1.6.9,2.2c.6.6,1.3.8,2.2.8s1.7-.3,2.2-.9.9-1.3.9-2.2-.3-1.6-.9-2.2c-.6-.6-1.4-.9-2.3-.9Z"/>
      <path class="cls-2" d="M265.7,31.4v-14.1h3.2c1.7,0,2.9.4,3.9,1.2.9.8,1.4,2,1.4,3.5s-.4,2.6-1.3,3.5-2,1.4-3.3,1.4-1.3-.1-2-.4v5h-1.9ZM268.9,19h-1.3v5.7c.6.3,1.2.4,1.8.4s1.6-.3,2.1-.9.8-1.4.8-2.3-.1-1.1-.4-1.6c-.3-.5-.6-.8-1.1-1-.5-.2-1.1-.3-2-.3Z"/>
      <path class="cls-2" d="M276.2,12.4h1.8v6.1c.8-.9,1.7-1.4,2.9-1.4s1.2.2,1.7.5.9.7,1.1,1.3c.2.5.4,1.4.4,2.4v5.3h-1.8v-5.8c0-.7-.2-1.2-.5-1.7-.3-.4-.8-.6-1.3-.6s-.8.1-1.1.3c-.4.2-.8.6-1.2,1v6.7h-1.8v-14.2Z"/>
      <path class="cls-2" d="M291.1,17.2c1.4,0,2.6.5,3.5,1.4.9.9,1.4,2.1,1.4,3.5s-.5,2.5-1.4,3.4c-1,.9-2.2,1.3-3.6,1.3s-2.6-.5-3.5-1.4c-.9-.9-1.4-2-1.4-3.4s.5-2.5,1.4-3.4c1-.9,2.1-1.4,3.6-1.4ZM291,18.9c-.9,0-1.6.3-2.2.9-.6.6-.9,1.3-.9,2.2s.3,1.6.9,2.2,1.3.8,2.2.8,1.7-.3,2.2-.9c.6-.6.9-1.3.9-2.2s-.3-1.6-.9-2.2c-.6-.6-1.4-.9-2.3-.9Z"/>
      <path class="cls-2" d="M296.8,18.7l3.5-3.4v1.9h3v1.7h-3v4.6c0,1.1.4,1.6,1.3,1.6s1.4-.2,2.1-.7v1.7c-.7.4-1.5.6-2.3.6s-1.6-.2-2.1-.7c-.2-.1-.3-.3-.4-.5-.1-.2-.2-.4-.3-.7,0-.3-.1-.9-.1-1.7v-4.1h-1.6v-.2Z"/>
      <path class="cls-2" d="M309.5,17.2c1.4,0,2.6.5,3.5,1.4.9.9,1.4,2.1,1.4,3.5s-.5,2.5-1.4,3.4c-1,.9-2.2,1.3-3.6,1.3s-2.6-.5-3.5-1.4-1.4-2-1.4-3.4.5-2.5,1.4-3.4c1-.9,2.1-1.4,3.6-1.4ZM309.4,18.9c-.9,0-1.6.3-2.2.9-.6.6-.9,1.3-.9,2.2s.3,1.6.9,2.2c.6.6,1.3.8,2.2.8s1.7-.3,2.2-.9.9-1.3.9-2.2-.3-1.6-.9-2.2c-.6-.6-1.4-.9-2.3-.9Z"/>
      <path class="cls-2" d="M318.3,17.3v1.2c.8-.9,1.8-1.4,2.8-1.4s1.1.2,1.6.5c.5.3.9.7,1.1,1.2.3.5.4,1.4.4,2.5v5.3h-1.8v-5.3c0-1-.1-1.6-.4-2-.3-.4-.8-.6-1.5-.6s-1.6.4-2.2,1.3v6.7h-1.9v-9.3h1.9Z"/>
      <path class="cls-2" d="M327.8,13.3c.3,0,.6.1.8.3s.3.5.3.8-.1.6-.3.8c-.2.2-.5.3-.8.3s-.5-.1-.8-.3c-.2-.2-.3-.5-.3-.8s.1-.5.3-.8c.2-.2.5-.3.8-.3ZM326.9,17.3h1.8v9.3h-1.8v-9.3Z"/>
      <path class="cls-2" d="M338.5,24.4v1.8c-.9.3-1.8.5-2.7.5-1.5,0-2.6-.4-3.5-1.3-.9-.9-1.3-2-1.3-3.5s.4-2.7,1.3-3.6,2-1.4,3.3-1.4.9,0,1.3.1c.4,0,.9.3,1.4.5v2c-.9-.6-1.8-.9-2.6-.9s-1.5.3-2.1.9c-.5.6-.8,1.3-.8,2.2s.3,1.7.9,2.3c.6.6,1.4.8,2.3.8s1.5-.2,2.4-.6Z"/>
      <path class="cls-2" d="M340.1,25.9v-2c.5.4,1.1.7,1.6.9.5.2,1,.3,1.4.3s.7,0,1-.3c.3-.2.4-.4.4-.7s0-.5-.3-.7c-.2-.2-.6-.4-1.2-.8-1.2-.7-2-1.2-2.3-1.7-.4-.5-.6-1-.6-1.5s.3-1.3.8-1.8c.6-.5,1.3-.7,2.2-.7s1.9.3,2.8.8v1.8c-1.1-.7-2-1-2.7-1s-.6,0-.9.2c-.2.2-.3.4-.3.6s0,.4.3.6.5.4,1.1.7l.7.4c1.6.9,2.3,1.9,2.3,2.9s-.3,1.4-.9,1.9c-.6.5-1.4.7-2.3.7s-1,0-1.5-.2c-.4-.1-1-.3-1.6-.7Z"/>
    </g>
  </g>
  <path class="cls-5" d="M85.8,37.7"/>
  <path class="cls-5" d="M22.1,37.7"/>
  <path class="cls-7" d="M0,37.7h22.1"/>
  <line class="cls-6" x1="42.3" y1="37.7" x2="85.8" y2="37.7"/>
  <line class="cls-6" x1="42.3" y1="37.7" x2="22.1" y2="72.7"/>
  <path class="cls-7" d="M81.8,37.7h141.6c8.7,0,7.7,5.9,9.9,18.4,1.9,10.9,2,17.5,3.5,17.5s2.2-13,2.8-17.9c1.7-14.9,1.1-17.9,8.2-17.9h98.6"/>
  <path class="cls-2" d="M23.7,5.5l55.8,32.2-55.8,32.2V5.5M20.6,0v75.4l65.3-37.7L20.6,0h0Z"/>
  <line class="cls-6" x1="22.1" y1="2.7" x2="42.3" y2="37.7"/>
</svg>