<?xml version="1.0" encoding="utf-8"?>
<!-- Generator: Adobe Illustrator 16.0.4, SVG Export Plug-In . SVG Version: 6.00 Build 0)  -->
<!DOCTYPE svg PUBLIC "-//W3C//DTD SVG 1.1//EN" "http://www.w3.org/Graphics/SVG/1.1/DTD/svg11.dtd">
<svg version="1.1" id="Ebene_1" xmlns="http://www.w3.org/2000/svg" xmlns:xlink="http://www.w3.org/1999/xlink" x="0px" y="0px"
	 width="65.271px" height="94.725px" viewBox="0 0 65.271 94.725" enable-background="new 0 0 65.271 94.725" xml:space="preserve">
<g>
	
		<linearGradient id="SVGID_1_" gradientUnits="userSpaceOnUse" x1="21.6174" y1="56.0935" x2="32.4969" y2="74.9371" gradientTransform="matrix(1 0 0 -1 0.1401 93.7788)">
		<stop  offset="0" style="stop-color:#E2F0E5"/>
		<stop  offset="1" style="stop-color:#59865E"/>
	</linearGradient>
	<polygon fill="url(#SVGID_1_)" points="65.272,37.686 0,0 21.757,37.686 	"/>
	
		<linearGradient id="SVGID_2_" gradientUnits="userSpaceOnUse" x1="-0.1399" y1="56.0945" x2="21.6169" y2="56.0945" gradientTransform="matrix(1 0 0 -1 0.1401 93.7788)">
		<stop  offset="0" style="stop-color:#9F5F5E"/>
		<stop  offset="1" style="stop-color:#ECDADA"/>
	</linearGradient>
	<polygon fill="url(#SVGID_2_)" points="21.757,37.686 0,0 0,75.37 	"/>
	
		<linearGradient id="SVGID_3_" gradientUnits="userSpaceOnUse" x1="32.4963" y1="37.2502" x2="21.6174" y2="56.0931" gradientTransform="matrix(1 0 0 -1 0.1401 93.7788)">
		<stop  offset="0" style="stop-color:#5F859F"/>
		<stop  offset="1" style="stop-color:#CFD9E0"/>
	</linearGradient>
	<polygon fill="url(#SVGID_3_)" points="65.272,37.686 0,75.37 21.757,37.686 	"/>
	<g enable-background="new    ">
		<path fill="#010202" d="M4.164,88.741L2.66,87.828c-0.942-0.575-1.613-1.142-2.012-1.699c-0.399-0.557-0.598-1.197-0.598-1.923
			c0-1.088,0.377-1.971,1.132-2.65c0.755-0.679,1.735-1.019,2.941-1.019c1.154,0,2.212,0.324,3.174,0.972v2.245
			c-0.996-0.958-2.066-1.437-3.214-1.437c-0.646,0-1.176,0.149-1.592,0.448c-0.415,0.299-0.623,0.682-0.623,1.147
			c0,0.414,0.153,0.801,0.459,1.162c0.306,0.361,0.798,0.74,1.476,1.138l1.51,0.894c1.685,1.007,2.527,2.288,2.527,3.844
			c0,1.107-0.371,2.007-1.112,2.699c-0.742,0.692-1.706,1.038-2.893,1.038c-1.364,0-2.607-0.419-3.728-1.258v-2.512
			c1.068,1.353,2.304,2.029,3.708,2.029c0.62,0,1.135-0.173,1.547-0.518s0.618-0.776,0.618-1.296
			C5.983,90.293,5.376,89.496,4.164,88.741z"/>
		<path fill="#010202" d="M10.037,80.716h7.367v1.76h-5.389v3.856h5.389v1.76h-5.389v6.438h-1.978V80.716z"/>
		<path fill="#010202" d="M24.197,94.529H19.52V80.716h3.619c1.14,0,2.03,0.153,2.669,0.46c0.64,0.306,1.127,0.728,1.463,1.266
			c0.336,0.537,0.504,1.158,0.504,1.863c0,1.358-0.702,2.331-2.106,2.917c1.008,0.191,1.811,0.606,2.408,1.246
			s0.895,1.404,0.895,2.294c0,0.706-0.182,1.335-0.544,1.889c-0.363,0.554-0.895,1.006-1.597,1.354
			C26.13,94.354,25.252,94.529,24.197,94.529z M23.198,82.475h-1.701v4.153h1.315c1.055,0,1.805-0.201,2.25-0.604
			c0.445-0.402,0.667-0.923,0.667-1.562C25.73,83.137,24.886,82.475,23.198,82.475z M23.347,88.388h-1.849v4.381h1.948
			c1.081,0,1.814-0.084,2.2-0.253c0.386-0.168,0.695-0.43,0.93-0.786c0.234-0.355,0.351-0.737,0.351-1.146
			c0-0.422-0.124-0.808-0.371-1.157c-0.247-0.349-0.598-0.609-1.053-0.781C25.048,88.474,24.329,88.388,23.347,88.388z"/>
		<path fill="#010202" d="M36.013,80.716h8.939l-6.251,13.976l-1.769-0.745l5.052-11.342h-5.972V80.716z"/>
		<path fill="#010202" d="M46.119,84.421c0-1.08,0.405-1.998,1.216-2.752s1.803-1.132,2.977-1.132c1.153,0,2.127,0.374,2.922,1.122
			s1.191,1.668,1.191,2.762c0,1.231-0.573,2.25-1.721,3.053c1.279,0.739,1.918,1.828,1.918,3.266c0,1.142-0.414,2.085-1.245,2.83
			s-1.879,1.118-3.145,1.118c-1.253,0-2.304-0.381-3.154-1.143s-1.275-1.704-1.275-2.825c0-1.405,0.652-2.487,1.958-3.246
			c-0.588-0.474-1.008-0.946-1.262-1.417C46.245,85.585,46.119,85.04,46.119,84.421z M52.626,90.821v-0.198
			c0-0.633-0.227-1.148-0.678-1.547c-0.451-0.399-1.037-0.599-1.756-0.599c-0.705,0-1.279,0.201-1.725,0.604
			S47.8,90.004,47.8,90.643s0.228,1.16,0.683,1.562c0.454,0.401,1.044,0.603,1.771,0.603c0.691,0,1.26-0.185,1.705-0.554
			S52.626,91.408,52.626,90.821z M52.457,84.482c0-0.6-0.206-1.094-0.618-1.482c-0.412-0.39-0.934-0.584-1.566-0.584
			c-0.641,0-1.164,0.191-1.572,0.574c-0.409,0.382-0.613,0.873-0.613,1.473c0,0.574,0.216,1.064,0.647,1.474s0.95,0.613,1.558,0.613
			c0.6,0,1.11-0.203,1.532-0.608S52.457,85.05,52.457,84.482z"/>
		<path fill="#010202" d="M56.265,80.716h8.938l-6.251,13.976l-1.769-0.745l5.052-11.342h-5.971V80.716z"/>
	</g>
	<path fill="none" stroke="#E41715" stroke-width="3.1592" d="M65.272,37.686"/>
	<path fill="none" stroke="#E41715" stroke-width="3.1592" d="M1.542,37.686"/>
	<line fill="none" stroke="#010202" stroke-width="1.3539" x1="21.757" y1="37.686" x2="62.051" y2="37.685"/>
	<line fill="none" stroke="#010202" stroke-width="1.3539" x1="21.757" y1="37.686" x2="1.542" y2="72.698"/>
	<path fill="none" stroke="#010202" stroke-width="3.1592" d="M61.266,37.686"/>
	<g>
		<path fill="#010202" d="M3.159,5.472l55.794,32.213L3.159,69.898V5.472 M0,0v75.37l65.271-37.685L0,0L0,0z"/>
	</g>
	<line fill="none" stroke="#010202" stroke-width="1.3539" x1="1.542" y1="2.672" x2="21.757" y2="37.686"/>
</g>
</svg>
