<?xml version="1.0" encoding="utf-8"?>
<!-- Generator: Adobe Illustrator 16.0.4, SVG Export Plug-In . SVG Version: 6.00 Build 0)  -->
<!DOCTYPE svg PUBLIC "-//W3C//DTD SVG 1.0//EN" "http://www.w3.org/TR/2001/REC-SVG-20010904/DTD/svg10.dtd">
<svg version="1.0" xmlns="http://www.w3.org/2000/svg" xmlns:xlink="http://www.w3.org/1999/xlink" x="0px" y="0px"
	 width="133.793px" height="99.482px" viewBox="0 0 133.793 99.482" enable-background="new 0 0 133.793 99.482"
	 xml:space="preserve">
<g id="Ebene_2">
</g>
<g id="TU-Logo">
	<g>
		<path fill="#DC0814" d="M95.428,99.482c7.99,0,13.732-2.372,18.191-5.359c4.158-2.786,7.381-6.083,9.854-10.336
			c3.195-5.497,4.18-10.606,4.449-13.57c0.002-0.024,5.871-61.786,5.871-61.786L104.17,8.429
			C104.17,8.429,95.418,99.482,95.428,99.482z"/>
		<path fill="#DC0814" d="M67.4,29.129l-4.011,41.66c-0.738,9.97,3,15.092,5.326,17.791c4.248,4.929,12.061,8.804,21.083,10.42
			c0.25-2.649,8.021-83.29,8.021-83.305c0.27-4.14-0.936-7.76-3.697-10.914C90.902,1.103,86.137,0,84.168,0L13.339,0.008
			C8.011,0.008,0,5.415,0,14.333C0,25.353,9.792,29.13,13.161,29.13C14.881,29.13,67.4,29.129,67.4,29.129z"/>
		<path fill="#DC0814" d="M26.155,91.109l26.376-0.001l5.397-56.052l-26.377,0.001C31.552,35.058,26.838,83.851,26.155,91.109
			L26.155,91.109z"/>
	</g>
	<g>
		<path fill="#FFFFFF" d="M123.129,59.29c-0.139,1.448-0.387,2.545-0.783,3.662l-14.693-0.013l0.215-2.214l4.693,0.004
			c0.594,0.001,1.408,0.063,1.928,0.188l0.004-0.042c-1.219-0.538-1.9-1.76-1.754-3.271c0.234-2.44,2.086-3.783,5.158-3.781
			C121.422,53.827,123.459,55.877,123.129,59.29z M114.506,58.187c-0.16,1.655,1.66,2.546,3.383,2.548l3.154,0.003
			c0.188-0.455,0.299-0.972,0.361-1.613c0.168-1.759-0.781-2.959-3.527-2.962C115.828,56.161,114.639,56.802,114.506,58.187z"/>
		<path fill="#FFFFFF" d="M119.611,43.249l-0.629,6.537c2.311,0.064,3.43-0.928,3.633-3.038c0.096-0.992-0.01-2.027-0.309-2.959
			l1.729-0.287c0.307,1.075,0.428,2.358,0.305,3.641c-0.305,3.165-2.113,4.922-5.699,4.919c-3.055-0.003-5.199-1.763-4.914-4.741
			c0.283-2.938,2.326-4.157,4.643-4.155C118.697,43.165,119.188,43.188,119.611,43.249z M115.355,47.445
			c-0.119,1.24,0.719,2.11,2.115,2.299l0.42-4.365C116.459,45.336,115.48,46.142,115.355,47.445z"/>
		<path fill="#FFFFFF" d="M117.043,35.441c-0.586,2.047,0.732,3.041,3.785,3.044l4.141,0.003l-0.215,2.214l-10.184-0.009l0.203-2.11
			c0.572,0.001,1.469,0.063,2.234,0.209l0.004-0.041c-1.33-0.457-2.5-1.492-2.109-3.416L117.043,35.441z"/>
		<path fill="#FFFFFF" d="M125.453,33.443l-14.959-0.013l0.213-2.213l14.959,0.013L125.453,33.443z"/>
		<path fill="#FFFFFF" d="M114.076,27.076c-0.074,0.787-0.73,1.427-1.51,1.426c-0.758,0-1.311-0.642-1.236-1.429
			c0.074-0.766,0.752-1.405,1.51-1.405C113.598,25.669,114.15,26.311,114.076,27.076z M125.957,28.203l-10.184-0.009l0.213-2.213
			l10.186,0.009L125.957,28.203z"/>
		<path fill="#FFFFFF" d="M127.08,16.543l-6.537-0.006c-1.27-0.001-2.062,0.351-2.176,1.529c-0.148,1.553,1.359,2.69,3.41,2.692
			l4.896,0.004l-0.213,2.214l-10.184-0.009l0.203-2.11c0.553,0.001,1.43,0.043,1.992,0.146l0.002-0.021
			c-1.254-0.601-2.035-1.843-1.867-3.581c0.225-2.337,1.77-3.06,3.553-3.058l7.131,0.006L127.08,16.543z"/>
	</g>
</g>
</svg>
