<?xml version="1.0" encoding="utf-8"?>
<!-- Generator: Adobe Illustrator 16.0.4, SVG Export Plug-In . SVG Version: 6.00 Build 0)  -->
<!DOCTYPE svg PUBLIC "-//W3C//DTD SVG 1.1//EN" "http://www.w3.org/Graphics/SVG/1.1/DTD/svg11.dtd">
<svg version="1.1" xmlns="http://www.w3.org/2000/svg" xmlns:xlink="http://www.w3.org/1999/xlink" x="0px" y="0px"
	 width="113.383px" height="113.385px" viewBox="0 0 113.383 113.385" enable-background="new 0 0 113.383 113.385"
	 xml:space="preserve">
<g id="Ebene_2">
	<polyline fill="#005DA8" points="42.271,45.379 48.263,10.123 36.936,12.738 42.13,45.379 42.271,45.379 	"/>
	<polyline fill="#005DA8" points="50.965,99.389 49.322,106.908 65.229,103.234 64.388,99.389 50.965,99.389 	"/>
	<polyline fill="#005DA8" points="57.606,68.378 52.731,91.052 62.621,91.052 57.748,68.378 57.606,68.378 	"/>
	<path fill="#005DA8" d="M97.927,66.352c-0.849-1.295-2.262-1.942-4.241-1.942c-1.13,0-2.07,0.167-2.823,0.494
		c-0.755,0.33-1.354,0.767-1.803,1.309c-0.447,0.54-0.753,1.165-0.92,1.872c-0.165,0.705-0.243,1.436-0.243,2.188
		c0,1.555,0.327,2.862,0.987,3.92c0.66,1.062,2.073,2.039,4.238,2.935l7.842,3.391c1.93,0.846,3.508,1.729,4.733,2.647
		c1.223,0.919,2.199,1.906,2.931,2.967c0.73,1.061,1.237,2.226,1.519,3.497c0.213,0.961,0.319,2.029,0.371,3.149l2.865-0.66
		l-4.668-20.22h-9.517C99.198,69.497,98.773,67.648,97.927,66.352"/>
	<path fill="#005DA8" d="M66.452,8.08h10.172v50.437H66.452V8.08L66.452,8.08z M51.389,59.617h12.575l10.952,41.381l2.884-0.666
		c-0.514-1.676-0.784-3.564-0.784-5.689v-2.048H87.19v1.482c0,1.177,0.094,2.249,0.28,3.215c0.053,0.267,0.12,0.519,0.197,0.762
		l12.292-2.838c-0.034-0.953-0.178-1.796-0.443-2.516c-0.307-0.823-0.812-1.564-1.519-2.226c-0.708-0.66-1.639-1.261-2.791-1.802
		c-1.155-0.541-2.578-1.096-4.275-1.66c-2.261-0.753-4.214-1.577-5.862-2.474c-1.647-0.894-3.028-1.941-4.13-3.144
		c-1.109-1.199-1.923-2.589-2.44-4.166c-0.516-1.578-0.776-3.401-0.776-5.475c0-4.992,1.39-8.712,4.167-11.162
		c2.78-2.448,6.596-3.672,11.443-3.672c2.262,0,4.347,0.246,6.253,0.741c1.906,0.494,3.555,1.295,4.944,2.4
		c0.719,0.572,1.353,1.232,1.907,1.968L92.117,0L58.392,7.785l-9.976,50.732H37.043l-5.652-36.592H31.25l-5.651,36.592H14.226
		L5.799,19.927L0,21.266l21.266,92.119h0.005l16.92-3.907L51.389,59.617"/>
	<polyline fill="#005DA8" points="20.514,45.379 25.278,15.431 14.898,17.826 20.373,45.379 20.514,45.379 	"/>
	<path fill="#FFFFFF" d="M52.731,91.052l4.875-22.674h0.142l4.873,22.674H52.731L52.731,91.052z M51.389,59.617l-13.198,49.86
		l11.13-2.57l1.643-7.519h13.423l0.841,3.846l9.688-2.236L63.964,59.617H51.389"/>
	<path fill="#FFFFFF" d="M104.53,60.062c-1.39-1.105-3.038-1.907-4.944-2.4c-1.906-0.494-3.991-0.741-6.253-0.741
		c-4.848,0-8.663,1.223-11.443,3.672c-2.776,2.45-4.167,6.17-4.167,11.162c0,2.072,0.261,3.896,0.776,5.475
		c0.518,1.577,1.331,2.967,2.44,4.166c1.102,1.202,2.482,2.25,4.13,3.144c1.648,0.896,3.602,1.721,5.862,2.474
		c1.696,0.564,3.12,1.119,4.275,1.66c1.152,0.541,2.083,1.141,2.791,1.802c0.707,0.66,1.212,1.402,1.519,2.226
		c0.266,0.72,0.409,1.562,0.443,2.516l10.558-2.438c-0.052-1.121-0.158-2.188-0.371-3.149c-0.281-1.271-0.788-2.438-1.519-3.497
		c-0.731-1.06-1.708-2.048-2.931-2.967c-1.226-0.918-2.804-1.803-4.733-2.647l-7.842-3.391c-2.165-0.896-3.579-1.873-4.238-2.935
		c-0.659-1.058-0.986-2.365-0.986-3.92c0-0.753,0.078-1.483,0.243-2.188c0.167-0.707,0.472-1.332,0.92-1.872
		c0.447-0.542,1.048-0.979,1.803-1.309c0.753-0.328,1.694-0.495,2.824-0.495c1.979,0,3.392,0.648,4.24,1.943
		c0.847,1.296,1.271,3.144,1.271,5.546h9.517l-2.276-9.866C105.884,61.295,105.25,60.635,104.53,60.062"/>
	<path fill="#FFFFFF" d="M87.471,97.292c-0.187-0.966-0.28-2.038-0.28-3.215v-1.482H77.016v2.048c0,2.126,0.271,4.014,0.784,5.689
		l9.868-2.279C87.591,97.81,87.523,97.558,87.471,97.292"/>
	<polyline fill="#FFFFFF" points="42.271,45.379 42.13,45.379 36.936,12.738 25.278,15.43 20.514,45.378 20.373,45.378 
		14.898,17.826 5.8,19.926 14.227,58.517 25.6,58.517 31.251,21.925 31.392,21.925 37.044,58.517 48.417,58.517 58.393,7.785 
		48.264,10.123 42.272,45.378 	"/>
	<rect x="66.452" y="8.08" fill="#FFFFFF" width="10.172" height="50.438"/>
</g>
<g id="Ebene_1">
</g>
</svg>
