<?xml version="1.0" encoding="utf-8"?>
<!-- Generator: Adobe Illustrator 25.0.0, SVG Export Plug-In . SVG Version: 6.00 Build 0)  -->
<svg version="1.1" id="Ebene_1" xmlns="http://www.w3.org/2000/svg" xmlns:xlink="http://www.w3.org/1999/xlink" x="0px" y="0px"
	 viewBox="0 0 171.78 116.86" style="enable-background:new 0 0 171.78 116.86;" xml:space="preserve">
<style type="text/css">
	.st0{fill:#0D5EA8;}
	.st1{fill:#FFFFFF;}
	.st2{fill-rule:evenodd;clip-rule:evenodd;fill:#AA8132;}
	.st3{fill-rule:evenodd;clip-rule:evenodd;fill:#FFFFFF;}
</style>
<g>
	<path class="st0" d="M31.5,33.83L35.74,8.9c0.12-0.72-0.53-1.33-1.24-1.17l-6.07,1.4c-0.52,0.12-0.86,0.63-0.78,1.16l3.75,23.54
		H31.5"/>
	<path class="st0" d="M38.02,74.34l-0.89,4.06c-0.16,0.73,0.5,1.38,1.23,1.21l9.38-2.17c0.54-0.13,0.89-0.67,0.77-1.21l-0.24-1.1
		c-0.1-0.47-0.52-0.8-1-0.8H38.02"/>
	<path class="st0" d="M43,51.08l-3.39,15.77c-0.14,0.64,0.35,1.24,1,1.24h4.89c0.65,0,1.13-0.6,1-1.24l-3.39-15.77H43"/>
	<path class="st0" d="M73.24,49.56c-0.64-0.97-1.7-1.46-3.18-1.46c-0.85,0-1.55,0.13-2.12,0.37c-0.57,0.25-1.02,0.57-1.35,0.98
		c-0.34,0.41-0.56,0.87-0.69,1.4c-0.12,0.53-0.18,1.08-0.18,1.64c0,1.17,0.25,2.15,0.74,2.94c0.5,0.8,1.55,1.53,3.18,2.2l5.88,2.54
		c1.45,0.63,2.63,1.3,3.55,1.99c0.92,0.69,1.65,1.43,2.2,2.23c0.55,0.8,0.93,1.67,1.14,2.62c0.08,0.38,0.15,0.79,0.19,1.21
		c0.07,0.61,0.64,1.02,1.24,0.88l0,0c0.55-0.13,0.89-0.68,0.77-1.22l-3.09-13.38c-0.11-0.46-0.52-0.79-0.99-0.79h-5.34
		c-0.53,0-0.98-0.41-1.01-0.94C74.07,51.43,73.76,50.36,73.24,49.56"/>
	<path class="st0" d="M49.64,5.86h6.61c0.56,0,1.02,0.46,1.02,1.02v35.79c0,0.56-0.46,1.02-1.02,1.02h-5.59
		c-0.56,0-1.02-0.46-1.02-1.02V5.86L49.64,5.86z M38.34,44.51h8.65c0.46,0,0.87,0.31,0.99,0.76l7.76,29.32
		c0.14,0.53,0.68,0.86,1.22,0.73l0.18-0.04c0.54-0.12,0.89-0.65,0.77-1.19c-0.22-1.01-0.34-2.11-0.34-3.31v-0.51
		c0-0.56,0.46-1.02,1.02-1.02h6.61v1.11c0,0.88,0.07,1.69,0.21,2.41c0.04,0.2,0.09,0.39,0.15,0.57l8.35-1.93
		c0.51-0.12,0.87-0.61,0.78-1.13c-0.06-0.34-0.14-0.66-0.24-0.95c-0.23-0.62-0.61-1.17-1.14-1.67c-0.53-0.5-1.23-0.95-2.09-1.35
		c-0.87-0.41-1.93-0.82-3.21-1.25c-1.7-0.56-3.16-1.18-4.4-1.86c-1.24-0.67-2.27-1.46-3.1-2.36c-0.83-0.9-1.44-1.94-1.83-3.12
		c-0.39-1.18-0.58-2.55-0.58-4.11c0-3.74,1.04-6.53,3.13-8.37c2.09-1.84,4.95-2.75,8.58-2.75c1.7,0,3.26,0.18,4.69,0.56
		c1.43,0.37,2.67,0.97,3.71,1.8c0.54,0.43,1.01,0.92,1.43,1.48L69.11,0.79c-0.13-0.55-0.68-0.89-1.22-0.77L44.23,5.49
		c-0.39,0.09-0.69,0.4-0.77,0.8l-7.19,36.58c-0.09,0.48-0.51,0.82-1,0.82h-6.81c-0.5,0-0.93-0.37-1.01-0.87l-4.11-26.58h-0.11
		l-4.1,26.58c-0.08,0.5-0.51,0.87-1.01,0.87h-6.83c-0.48,0-0.9-0.33-1-0.8L4.37,15.75c-0.12-0.56-0.67-0.9-1.23-0.78l-2.35,0.54
		c-0.55,0.13-0.89,0.68-0.77,1.22l15.72,68.1h0l12.09-2.79c0.37-0.09,0.66-0.37,0.76-0.73L38.34,44.51"/>
	<path class="st0" d="M15.18,33.83l3.33-20.97c0.11-0.72-0.53-1.32-1.24-1.16l-5.34,1.23c-0.54,0.12-0.88,0.65-0.77,1.19l3.91,19.69
		H15.18"/>
	<path class="st1" d="M39.34,68.09L43,51.08h0.11l3.39,15.77c0.14,0.64-0.35,1.24-1,1.24H39.34L39.34,68.09z M38.34,44.51
		l-9.47,35.76c-0.2,0.74,0.47,1.43,1.22,1.26l6.07-1.4c0.38-0.09,0.68-0.39,0.77-0.78l0.92-4.2c0.1-0.47,0.52-0.8,1-0.8h8.42
		c0.48,0,0.9,0.33,1,0.8l0.23,1.07c0.12,0.56,0.67,0.9,1.23,0.78l5.23-1.21c0.56-0.13,0.9-0.7,0.76-1.26l-7.74-29.26
		c-0.12-0.45-0.52-0.76-0.99-0.76H38.34"/>
	<path class="st1" d="M78.19,44.84c-1.04-0.83-2.28-1.43-3.71-1.8c-1.43-0.37-2.99-0.56-4.69-0.56c-3.64,0-6.5,0.92-8.58,2.75
		c-2.08,1.84-3.13,4.63-3.13,8.37c0,1.55,0.2,2.92,0.58,4.11c0.39,1.18,1,2.23,1.83,3.12c0.83,0.9,1.86,1.69,3.1,2.36
		c1.24,0.67,2.7,1.29,4.4,1.86c1.27,0.42,2.34,0.84,3.21,1.25c0.86,0.41,1.56,0.86,2.09,1.35c0.53,0.5,0.91,1.05,1.14,1.67
		c0.1,0.26,0.17,0.54,0.23,0.85c0.1,0.56,0.67,0.91,1.23,0.78l5.95-1.37c0.51-0.12,0.83-0.6,0.79-1.11
		c-0.05-0.51-0.12-0.99-0.22-1.45c-0.21-0.95-0.59-1.83-1.14-2.62c-0.55-0.79-1.28-1.54-2.2-2.23c-0.92-0.69-2.1-1.35-3.55-1.99
		l-5.88-2.54c-1.62-0.67-2.68-1.4-3.18-2.2c-0.49-0.79-0.74-1.77-0.74-2.94c0-0.56,0.06-1.11,0.18-1.64c0.13-0.53,0.35-1,0.69-1.4
		c0.34-0.41,0.79-0.73,1.35-0.98c0.56-0.25,1.27-0.37,2.12-0.37c1.48,0,2.54,0.49,3.18,1.46c0.52,0.8,0.83,1.87,0.92,3.22
		c0.04,0.53,0.48,0.94,1.01,0.94h4.87c0.66,0,1.14-0.61,0.99-1.25l-1.36-5.92c-0.04-0.15-0.1-0.3-0.2-0.42
		C79.1,45.65,78.67,45.22,78.19,44.84"/>
	<path class="st1" d="M65.4,72.77c-0.14-0.72-0.21-1.53-0.21-2.41v-1.11h-6.61c-0.56,0-1.02,0.46-1.02,1.02v0.51
		c0,1.18,0.11,2.26,0.33,3.25c0.12,0.56,0.68,0.92,1.24,0.79l6.43-1.48C65.49,73.15,65.44,72.97,65.4,72.77"/>
	<path class="st1" d="M31.5,33.83h-0.11l-3.72-23.4c-0.09-0.58-0.66-0.97-1.24-0.83l-7.01,1.62c-0.41,0.09-0.71,0.42-0.78,0.83
		l-3.46,21.78h-0.11l-3.9-19.63c-0.11-0.57-0.67-0.93-1.23-0.8l-4.81,1.11c-0.54,0.13-0.89,0.67-0.77,1.21l5.93,27.15
		c0.1,0.47,0.52,0.8,1,0.8h6.83c0.5,0,0.93-0.37,1.01-0.87l4.1-26.58h0.11l4.11,26.58c0.08,0.5,0.51,0.87,1.01,0.87h6.81
		c0.49,0,0.91-0.35,1-0.82l7.02-35.68c0.14-0.73-0.51-1.36-1.23-1.19l-5.4,1.25c-0.4,0.09-0.71,0.42-0.78,0.82L31.5,33.83"/>
	<path class="st1" d="M50.66,43.69h5.59c0.56,0,1.02-0.46,1.02-1.02V6.88c0-0.56-0.46-1.02-1.02-1.02h-5.59
		c-0.56,0-1.02,0.46-1.02,1.02v35.79C49.64,43.23,50.09,43.69,50.66,43.69z"/>
</g>
<g>
	<g>
		<path class="st2" d="M97.17,76.7c0,4.98,0,9.95,0,14.93c0,0.14-0.05,0.28-0.1,0.41c-0.01,0.02-0.17-0.03-0.25-0.04
			c-0.02-4.82-0.04-9.64-0.04-14.46C96.77,77.21,96.63,76.78,97.17,76.7z"/>
		<path class="st2" d="M96.9,64.4c0.59,1.04,0.19,2.17,0.26,3.25c0.07,1.14,0.02,2.29,0.02,3.44c-0.34-0.01-0.4-0.25-0.4-0.51
			C96.82,68.52,96.63,66.46,96.9,64.4z"/>
		<g>
			<path class="st2" d="M158.05,76.7h13.23c0.33,1.46,0.12,2.94,0.13,4.4c0.04,3.36,0.01,6.72,0.02,10.08c0,0.5-0.15,1.02,0.16,1.49
				c-1.89,4.59-4.97,8.33-8.55,11.64c-7.21,6.67-15.66,10.86-25.45,12.22c-0.65,0.09-1.32,0.08-1.98,0.11
				c-2.15-0.11-4.3-0.1-6.45-0.01c-8.69-0.45-16.47-3.41-23.42-8.59c-5.61-4.17-9.82-9.52-12.99-15.84
				c1.41,0.14,2.84,1.25,4.06-0.23c0.43-0.43,0.19-0.96,0.2-1.44c0.02-4.12,0.01-8.24,0.02-12.36c0-0.5-0.13-1.02,0.14-1.5
				c4.03-0.02,8.07-0.09,12.1-0.03c1.4,0.02,1.9-0.45,1.87-1.86c-0.09-4.19,0.43-3.63-3.7-3.66c-3.42-0.03-6.84-0.04-10.26-0.06
				c-0.4-2.22,0.09-4.47-0.28-6.69c0.27-1.98,1.07-2.76,3.13-2.79c3.27-0.05,6.55-0.07,9.83,0c1.38,0.03,1.95-0.4,1.89-1.84
				c-0.16-3.64,0.72-3.15-3.37-3.66c-3.86-0.47-7.75-0.69-11.6,0.23c-1.54,0.37-3,0.92-4.64,1.78c0.78-2.21,1.8-4.01,2.92-5.73
				c7.51-11.59,18.15-18.29,31.82-20.22c0.45-0.06,0.92-0.03,1.38-0.04c1.2,0.3,2.4-0.06,3.61-0.05c1.56,0.01,3.12,0.22,4.68,0.05
				c5.08,0.3,9.84,1.81,14.38,4c8.73,4.2,15.63,10.38,20.23,19c0.17,0.31,0.28,0.65,0.42,0.98c0.04,4.2,0.02,8.4,0.02,12.6
				c0,1.68-0.02,1.68-1.73,1.69c-3.48,0-6.97-0.06-10.45,0.03c-1.26,0.03-1.54-0.41-1.51-1.57c0.07-3.48,0.03-6.97,0.01-10.45
				c0-0.42,0.24-0.91-0.21-1.27c-0.23-0.46-0.43-0.97-1.05-0.98c-1.64-0.01-3.28-0.06-4.91,0.02c-0.95,0.04-1.01,0.83-1.01,1.6
				c0.01,2.81,0,5.63,0,8.44c0,8.13,0,16.27,0,24.4c0,1.15,0.93,2.08,2.08,2.08c1.08,0,2.15-0.04,3.23,0.02
				c0.83,0.05,1.38-0.25,1.66-1.02c0.44-0.42,0.19-0.95,0.19-1.42c0.02-4.02,0.01-8.04,0.02-12.06
				C157.91,77.7,157.78,77.18,158.05,76.7z"/>
			<path class="st2" d="M157.69,57.11c0.32-0.74,0.37-0.42,0.37,0.1c0,3.07,0,6.13,0,9.2c0,0.92,0.03,1.84-0.01,2.76
				c-0.05,1.18,0.7,1.2,2.45,0.91c2.97-0.49,5.99-0.4,8.96,0.09c1.76,0.29,1.82-0.34,1.82-1.29c-0.02-3.73-0.02-7.46,0-11.19
				c0-0.54-0.2-1.13,0.28-1.6c0.25,0.36,0.21,0.78,0.21,1.18c0,4.03-0.02,8.07,0.01,12.1c0,0.83-0.08,1.3-1.13,1.29
				c-3.98-0.06-7.97-0.04-11.95-0.01c-0.74,0-1.11-0.12-1.09-0.99C157.67,65.49,157.67,61.3,157.69,57.11z"/>
			<path class="st2" d="M171.59,92.68c-0.52-0.45-0.3-1.05-0.31-1.58c-0.02-4.8-0.01-9.6-0.01-14.4c0.33,0.01,0.43,0.23,0.43,0.51
				C171.64,82.37,171.87,87.52,171.59,92.68z"/>
			<path class="st2" d="M158.05,76.7c0,4.94,0,9.88-0.01,14.81c0,0.11,0.21,1.06-0.34,0.16c-0.02-4.72-0.04-9.43-0.05-14.15
				C157.65,77.21,157.51,76.77,158.05,76.7z"/>
			<path class="st2" d="M136.52,32.12c-2.26,0.65-4.58,0.12-6.86,0.28c-0.48,0.03-1.02,0.17-1.42-0.28
				C131,31.73,133.76,31.7,136.52,32.12z"/>
			<path class="st2" d="M129.16,116.65c2.15-0.48,4.3-0.49,6.45,0.01C133.46,116.94,131.31,116.92,129.16,116.65z"/>
			<path class="st3" d="M118.12,58.61c0.26-1.42,1.02-2.27,2.53-2.41c4.96-0.48,9.92-0.85,14.84,0.21c3.97,0.85,7.38,2.62,8.22,7.01
				c0.86,4.53,0.18,8.33-4.14,10.71c1.28,0.82,2.53,1.57,3.36,2.83c2.99,4.52,1.12,11.77-3.69,14.26c-2.04,1.06-4.25,1.53-6.49,1.7
				c-3.89,0.29-7.78,0.2-11.66-0.27c-1.41-0.17-2.58-0.66-2.96-2.2c-0.31-0.29-0.2-0.67-0.2-1.01c-0.01-9.93-0.01-19.86,0-29.79
				C117.94,59.29,117.84,58.91,118.12,58.61z"/>
			<path class="st2" d="M118.12,58.61c0.01,10.61,0.01,21.22,0.02,31.82c-0.09,0.14-0.13,0.51-0.31,0.29
				c-0.15-0.18-0.05-0.59-0.05-0.89c0-10.44,0-20.87,0-31.31c0-0.18,0-0.37,0-0.72c-0.01-0.01,0.34,0.09,0.26,0.22
				C117.95,58.16,118.08,58.41,118.12,58.61z"/>
			<path class="st2" d="M131.22,93.52c-1.81,0-3.62,0-5.43,0c0-0.05,0-0.1,0-0.15c1.82,0,3.64,0,5.46,0
				C131.24,93.42,131.23,93.47,131.22,93.52z"/>
			<path class="st2" d="M111.42,75.76v-3.6c0.19,0,0.38-0.02,0.8,0.15c-0.41,1.9-0.33,1.55-0.74,3.45H111.42z"/>
			<path class="st2" d="M112.04,60.68c0-1.19,0-2.38,0-3.58c0.04,0,0.07,0,0.11-0.01c0,1.19,0,2.38,0,3.58
				C112.11,60.68,112.07,60.68,112.04,60.68z"/>
			<path class="st2" d="M133.44,76.74c2.74,0.55,4,2.07,4.08,4.88c0.09,3.26-0.89,4.7-3.77,5.4c-2.62,0.64-5.28,0.38-7.93,0.37
				c-0.65,0-0.72-0.39-0.71-0.9c0.03-3.17,0.05-6.33,0.07-9.5c2.29-0.63,4.61-0.23,6.92-0.22
				C132.54,76.77,132.99,76.91,133.44,76.74z"/>
			<path class="st2" d="M132.22,61.65c5.04,0.23,5.72,3.28,4.86,6.85c-0.49,2.03-2.25,2.77-4.11,2.9c-2.35,0.17-4.71,0.06-7.06,0.11
				c-0.76,0.02-0.8-0.4-0.79-0.97c0.03-2.87,0.04-5.74,0.06-8.6c1.98-0.61,4.01-0.24,6.01-0.22
				C131.53,61.71,131.88,61.84,132.22,61.65z"/>
			<path class="st2" d="M133.44,76.74c-1.77,0.56-3.59,0.13-5.39,0.24c-0.96,0.06-1.92,0.01-2.88,0.01
				c-0.04-0.41,0.2-0.52,0.55-0.51C128.29,76.59,130.88,76.23,133.44,76.74z"/>
			<path class="st2" d="M132.22,61.65c-1.71,0.61-3.49,0.14-5.23,0.28c-0.6,0.05-1.21,0.01-1.82,0c-0.02-0.42,0.26-0.49,0.58-0.49
				C127.91,61.43,130.08,61.2,132.22,61.65z"/>
		</g>
	</g>
</g>
</svg>
