<?xml version="1.0" encoding="UTF-8"?>
<svg id="Ebene_1" data-name="Ebene 1" xmlns="http://www.w3.org/2000/svg" version="1.1" viewBox="0 0 172 120">
  <defs>
    <style>
      .cls-1 {
        fill: #0d4689;
        stroke-width: 0px;
      }
    </style>
  </defs>
  <path class="cls-1" d="M93.4,63.8c0-.6-.2-1-.6-1.4-.5-.4-1.1-.5-2.1-.5s-1.4,0-1.9.1v6.7h1.2v-2.8h.6c.7,0,1,.3,1.2,1.2.2.8.4,1.4.5,1.6h1.3c-.1-.3-.3-1-.5-1.9-.2-.7-.5-1.1-.9-1.3h0c.6-.3,1.2-.9,1.2-1.7M90.8,65h-.7v-2.1c.1,0,.4,0,.8,0,.8,0,1.3.3,1.3,1.1s-.5,1.1-1.4,1.1ZM42.1,61.9h5.1v1h-1.9v5.7h-1.2v-5.7h-1.9v-1ZM27.1,61.9h1.2v6.8h-1.2v-6.8ZM34.3,61.9h1.1v6.8h-1.3l-1.8-3c-.4-.7-.9-1.6-1.2-2.3h0c0,.9,0,1.8,0,2.9v2.4h-1.1v-6.8h1.4l1.7,2.9c.5.8.8,1.5,1.2,2.3h0c0-.9-.1-1.8-.1-2.8v-2.4ZM41.3,66.8c0,1.1-.8,2-2.6,2s-1.5-.2-1.8-.4l.3-1c.4.2,1,.4,1.6.4s1.2-.4,1.2-.9-.3-.8-1.2-1.1c-1.1-.4-1.8-1-1.8-2s.9-1.9,2.4-1.9,1.3.2,1.6.3l-.3,1c-.2-.1-.7-.3-1.3-.3s-1.1.4-1.1.8.4.8,1.3,1.1c1.2.4,1.7,1,1.7,2ZM81.6,63.6c0-.6-.3-1-.7-1.3-.5-.3-1-.4-1.9-.4s-1.4,0-1.8.1v6.7c.3,0,.8,0,1.5,0,1.2,0,2-.2,2.5-.6.4-.3.7-.8.7-1.4,0-.9-.7-1.5-1.4-1.7h0c.7-.3,1.1-.9,1.1-1.5ZM78.4,62.8c.1,0,.3,0,.7,0,.8,0,1.3.3,1.3.9s-.5,1-1.3,1h-.6v-1.8ZM80.6,66.7c0,.8-.7,1.1-1.5,1.1s-.5,0-.7,0v-2.2h.6c.9,0,1.5.3,1.5,1.1ZM96.2,61.9v5.7h2.8v1h-4v-6.8h1.2ZM158.3,1.2h13.4c-1.7,65.4-55.3,118-121,118.2v-13.4c58.3-.2,105.9-46.9,107.6-104.9ZM107.4,50.6c3.3-2.7,5.6-6.5,5.6-11.4,0-6.9-4.5-11.6-10.7-13.2v-.2c6.1-2.2,8.8-6.7,8.8-11.5s-2.7-8.5-6.5-10.5c-3.9-2.3-8.5-3-15.9-3s-12.5.5-15.7,1.1v52.8c2.7.4,7.2.8,13.2.8,10.7,0,17.2-1.8,21.1-4.9ZM85.2,10c1-.2,2.6-.3,5.2-.3,5.5,0,8.6,2.2,8.6,6.2s-3.4,6.6-9.8,6.6h-4v-12.5ZM85.2,31.2h4.1c6.1,0,10.9,2.2,10.9,7.6s-4.9,7.7-10.4,7.7-3.5,0-4.7-.2v-15.1ZM104.3,63.4h0c0,.9,0,1.8,0,2.9v2.4h-1.1v-6.8h1.4l1.7,2.9c.5.8.8,1.5,1.2,2.3h0c0-.9-.1-1.8-.1-2.8v-2.4h1.1v6.8h-1.3l-1.8-3c-.4-.7-.9-1.6-1.2-2.3ZM101.4,68.7h-1.2v-6.8h1.2v6.8ZM84.6,62.9v1.7h2.6v1h-2.6v2h2.9v1h-4.1v-6.8h3.9v1h-2.7ZM2.4,67.7h3.5v1H.7v-.7l3.5-5h0s-3.2,0-3.2,0v-1h4.8v.7l-3.4,5h0ZM11.1,61.9h1.2v3.9c0,2.1-1.1,3-2.7,3s-2.6-.9-2.6-3v-3.9h1.2v3.9c0,1.3.6,1.9,1.4,1.9s1.4-.6,1.4-1.9v-3.9ZM20.7,67.7h2.9v1h-4.1v-6.8h3.9v1h-2.7v1.7h2.5v1h-2.5v2ZM42.1,54.9H.4v-6.5L26,11.5v-.3H2.7V1.2h39v7l-25,36.4v.3h25.4v10ZM73.7,68.7h-4.1v-6.8h3.9v1h-2.7v1.7h2.5v1h-2.5v2h2.9v1ZM18,66.8c0,1.1-.8,2-2.6,2s-1.5-.2-1.8-.4l.3-1c.4.2,1,.4,1.6.4s1.2-.4,1.2-.9-.3-.8-1.2-1.1c-1.1-.4-1.8-1-1.8-2s.9-1.9,2.4-1.9,1.3.2,1.6.3l-.3,1c-.2-.1-.7-.3-1.3-.3s-1.1.4-1.1.8.4.8,1.3,1.1c1.2.4,1.7,1,1.7,2ZM63,54.9h-12.2V1.2h12.2v53.7ZM65.3,63h-1.9v-1h5.1v1h-1.9v5.7h-1.2v-5.7ZM48.4,61.9h1.2v6.8h-1.2v-6.8ZM52.6,63h-1.9v-1h5.1v1h-1.9v5.7h-1.2v-5.7ZM58.2,61.9v3.9c0,1.3.6,1.9,1.4,1.9s1.4-.6,1.4-1.9v-3.9h1.2v3.9c0,2.1-1.1,3-2.7,3s-2.6-.9-2.6-3v-3.9h1.2Z"/>
</svg>